solid Default
  facet normal -1.000000e+00 -0.000000e+00 -0.000000e+00
    outer loop
      vertex -2.655000e+01 -3.040000e+01 0.000000e+00
      vertex -2.655000e+01 -3.040000e+01 5.000000e+00
      vertex -2.655000e+01 3.040000e+01 0.000000e+00
    endloop
  endfacet
  facet normal -1.000000e+00 0.000000e+00 0.000000e+00
    outer loop
      vertex -2.655000e+01 3.040000e+01 0.000000e+00
      vertex -2.655000e+01 -3.040000e+01 5.000000e+00
      vertex -2.655000e+01 3.040000e+01 5.000000e+00
    endloop
  endfacet
  facet normal 0.000000e+00 -1.000000e+00 0.000000e+00
    outer loop
      vertex -2.655000e+01 -3.040000e+01 5.000000e+00
      vertex -2.655000e+01 -3.040000e+01 0.000000e+00
      vertex -4.191999e+00 -3.040000e+01 0.000000e+00
    endloop
  endfacet
  facet normal 0.000000e+00 -1.000000e+00 0.000000e+00
    outer loop
      vertex -1.836899e+00 -3.040000e+01 2.234620e+00
      vertex -2.655000e+01 -3.040000e+01 5.000000e+00
      vertex -3.394100e+00 -3.040000e+01 1.194110e+00
    endloop
  endfacet
  facet normal 0.000000e+00 -1.000000e+00 0.000000e+00
    outer loop
      vertex -3.394100e+00 -3.040000e+01 1.194110e+00
      vertex -2.655000e+01 -3.040000e+01 5.000000e+00
      vertex -4.191999e+00 -3.040000e+01 0.000000e+00
    endloop
  endfacet
  facet normal 0.000000e+00 -1.000000e+00 0.000000e+00
    outer loop
      vertex 0.000000e+00 -3.040000e+01 2.600000e+00
      vertex -2.655000e+01 -3.040000e+01 5.000000e+00
      vertex -1.836899e+00 -3.040000e+01 2.234620e+00
    endloop
  endfacet
  facet normal 0.000000e+00 -1.000000e+00 0.000000e+00
    outer loop
      vertex 2.655000e+01 -3.040000e+01 5.000000e+00
      vertex -2.655000e+01 -3.040000e+01 5.000000e+00
      vertex 0.000000e+00 -3.040000e+01 2.600000e+00
    endloop
  endfacet
  facet normal 0.000000e+00 -1.000000e+00 0.000000e+00
    outer loop
      vertex 2.655000e+01 -3.040000e+01 0.000000e+00
      vertex 0.000000e+00 -3.040000e+01 2.600000e+00
      vertex 1.836901e+00 -3.040000e+01 2.234620e+00
    endloop
  endfacet
  facet normal 0.000000e+00 -1.000000e+00 0.000000e+00
    outer loop
      vertex 2.655000e+01 -3.040000e+01 0.000000e+00
      vertex 1.836901e+00 -3.040000e+01 2.234620e+00
      vertex 3.394100e+00 -3.040000e+01 1.194110e+00
    endloop
  endfacet
  facet normal 0.000000e+00 -1.000000e+00 0.000000e+00
    outer loop
      vertex 2.655000e+01 -3.040000e+01 0.000000e+00
      vertex 3.394100e+00 -3.040000e+01 1.194110e+00
      vertex 4.192001e+00 -3.040000e+01 0.000000e+00
    endloop
  endfacet
  facet normal 0.000000e+00 -1.000000e+00 0.000000e+00
    outer loop
      vertex 2.655000e+01 -3.040000e+01 5.000000e+00
      vertex 0.000000e+00 -3.040000e+01 2.600000e+00
      vertex 2.655000e+01 -3.040000e+01 0.000000e+00
    endloop
  endfacet
  facet normal -0.000000e+00 -0.000000e+00 -1.000000e+00
    outer loop
      vertex -1.955000e+01 -2.540000e+01 0.000000e+00
      vertex -2.655000e+01 3.040000e+01 0.000000e+00
      vertex -4.191999e+00 -3.040000e+01 0.000000e+00
    endloop
  endfacet
  facet normal 0.000000e+00 0.000000e+00 -1.000000e+00
    outer loop
      vertex -6.799999e+00 1.413330e+01 0.000000e+00
      vertex -2.655000e+01 3.040000e+01 0.000000e+00
      vertex -4.191999e+00 3.040000e+01 0.000000e+00
    endloop
  endfacet
  facet normal 0.000000e+00 0.000000e+00 -1.000000e+00
    outer loop
      vertex -2.655000e+01 -3.040000e+01 0.000000e+00
      vertex -2.655000e+01 3.040000e+01 0.000000e+00
      vertex -2.335194e+01 -2.453223e+01 0.000000e+00
    endloop
  endfacet
  facet normal 0.000000e+00 0.000000e+00 -1.000000e+00
    outer loop
      vertex -2.655000e+01 -3.040000e+01 0.000000e+00
      vertex -2.335194e+01 -2.453223e+01 0.000000e+00
      vertex -2.335194e+01 -2.626777e+01 0.000000e+00
    endloop
  endfacet
  facet normal 0.000000e+00 0.000000e+00 -1.000000e+00
    outer loop
      vertex -2.655000e+01 -3.040000e+01 0.000000e+00
      vertex -2.335194e+01 -2.626777e+01 0.000000e+00
      vertex -2.199504e+01 -2.734986e+01 0.000000e+00
    endloop
  endfacet
  facet normal 0.000000e+00 0.000000e+00 -1.000000e+00
    outer loop
      vertex -2.655000e+01 -3.040000e+01 0.000000e+00
      vertex -2.199504e+01 -2.734986e+01 0.000000e+00
      vertex -4.191999e+00 -3.040000e+01 0.000000e+00
    endloop
  endfacet
  facet normal 0.000000e+00 0.000000e+00 -1.000000e+00
    outer loop
      vertex -2.199504e+01 -2.734986e+01 0.000000e+00
      vertex -2.030302e+01 -2.696366e+01 0.000000e+00
      vertex -4.191999e+00 -3.040000e+01 0.000000e+00
    endloop
  endfacet
  facet normal -0.000000e+00 -0.000000e+00 -1.000000e+00
    outer loop
      vertex -2.030302e+01 -2.383634e+01 0.000000e+00
      vertex -2.655000e+01 3.040000e+01 0.000000e+00
      vertex -1.955000e+01 -2.540000e+01 0.000000e+00
    endloop
  endfacet
  facet normal 0.000000e+00 0.000000e+00 -1.000000e+00
    outer loop
      vertex -4.799999e+00 -1.013330e+01 0.000000e+00
      vertex -4.191999e+00 -3.040000e+01 0.000000e+00
      vertex -6.799999e+00 -1.013330e+01 0.000000e+00
    endloop
  endfacet
  facet normal -0.000000e+00 -0.000000e+00 -1.000000e+00
    outer loop
      vertex -2.199504e+01 -2.345014e+01 0.000000e+00
      vertex -2.655000e+01 3.040000e+01 0.000000e+00
      vertex -2.030302e+01 -2.383634e+01 0.000000e+00
    endloop
  endfacet
  facet normal 0.000000e+00 0.000000e+00 -1.000000e+00
    outer loop
      vertex -2.335194e+01 -2.453223e+01 0.000000e+00
      vertex -2.655000e+01 3.040000e+01 0.000000e+00
      vertex -2.199504e+01 -2.345014e+01 0.000000e+00
    endloop
  endfacet
  facet normal 0.000000e+00 0.000000e+00 -1.000000e+00
    outer loop
      vertex -6.799999e+00 -1.013330e+01 0.000000e+00
      vertex -2.655000e+01 3.040000e+01 0.000000e+00
      vertex -6.799999e+00 -6.133299e+00 0.000000e+00
    endloop
  endfacet
  facet normal 0.000000e+00 0.000000e+00 -1.000000e+00
    outer loop
      vertex -4.191999e+00 -3.040000e+01 0.000000e+00
      vertex -2.655000e+01 3.040000e+01 0.000000e+00
      vertex -6.799999e+00 -1.013330e+01 0.000000e+00
    endloop
  endfacet
  facet normal 0.000000e+00 0.000000e+00 -1.000000e+00
    outer loop
      vertex -6.799999e+00 1.413330e+01 0.000000e+00
      vertex -4.191999e+00 3.040000e+01 0.000000e+00
      vertex -4.799999e+00 1.413330e+01 0.000000e+00
    endloop
  endfacet
  facet normal 0.000000e+00 0.000000e+00 -1.000000e+00
    outer loop
      vertex -4.191999e+00 -3.040000e+01 0.000000e+00
      vertex -4.799999e+00 -1.013330e+01 0.000000e+00
      vertex -4.191999e+00 3.040000e+01 0.000000e+00
    endloop
  endfacet
  facet normal 0.000000e+00 0.000000e+00 -1.000000e+00
    outer loop
      vertex -4.799999e+00 -1.013330e+01 0.000000e+00
      vertex -4.799999e+00 -6.133299e+00 0.000000e+00
      vertex -4.191999e+00 3.040000e+01 0.000000e+00
    endloop
  endfacet
  facet normal 0.000000e+00 0.000000e+00 -1.000000e+00
    outer loop
      vertex -6.799999e+00 -6.133299e+00 0.000000e+00
      vertex -2.655000e+01 3.040000e+01 0.000000e+00
      vertex -6.799999e+00 1.013330e+01 0.000000e+00
    endloop
  endfacet
  facet normal 0.000000e+00 0.000000e+00 -1.000000e+00
    outer loop
      vertex -4.799999e+00 1.013330e+01 0.000000e+00
      vertex -6.799999e+00 -6.133299e+00 0.000000e+00
      vertex -6.799999e+00 1.013330e+01 0.000000e+00
    endloop
  endfacet
  facet normal 0.000000e+00 0.000000e+00 -1.000000e+00
    outer loop
      vertex -2.655000e+01 3.040000e+01 0.000000e+00
      vertex -6.799999e+00 1.413330e+01 0.000000e+00
      vertex -6.799999e+00 1.013330e+01 0.000000e+00
    endloop
  endfacet
  facet normal 0.000000e+00 0.000000e+00 -1.000000e+00
    outer loop
      vertex -4.799999e+00 -6.133299e+00 0.000000e+00
      vertex -6.799999e+00 -6.133299e+00 0.000000e+00
      vertex -4.799999e+00 1.013330e+01 0.000000e+00
    endloop
  endfacet
  facet normal 0.000000e+00 0.000000e+00 -1.000000e+00
    outer loop
      vertex -4.799999e+00 -6.133299e+00 0.000000e+00
      vertex -4.799999e+00 1.013330e+01 0.000000e+00
      vertex -4.191999e+00 3.040000e+01 0.000000e+00
    endloop
  endfacet
  facet normal 0.000000e+00 0.000000e+00 -1.000000e+00
    outer loop
      vertex -4.799999e+00 1.013330e+01 0.000000e+00
      vertex -4.799999e+00 1.413330e+01 0.000000e+00
      vertex -4.191999e+00 3.040000e+01 0.000000e+00
    endloop
  endfacet
  facet normal 0.000000e+00 0.000000e+00 -1.000000e+00
    outer loop
      vertex -1.955000e+01 -2.540000e+01 0.000000e+00
      vertex -4.191999e+00 -3.040000e+01 0.000000e+00
      vertex -2.030302e+01 -2.696366e+01 0.000000e+00
    endloop
  endfacet
  facet normal 0.000000e+00 1.000000e+00 0.000000e+00
    outer loop
      vertex -2.655000e+01 3.040000e+01 0.000000e+00
      vertex -2.655000e+01 3.040000e+01 5.000000e+00
      vertex -4.191999e+00 3.040000e+01 0.000000e+00
    endloop
  endfacet
  facet normal 0.000000e+00 1.000000e+00 0.000000e+00
    outer loop
      vertex 0.000000e+00 3.040000e+01 2.600000e+00
      vertex -2.655000e+01 3.040000e+01 5.000000e+00
      vertex 2.655000e+01 3.040000e+01 5.000000e+00
    endloop
  endfacet
  facet normal 0.000000e+00 1.000000e+00 0.000000e+00
    outer loop
      vertex 4.192001e+00 3.040000e+01 0.000000e+00
      vertex 2.655000e+01 3.040000e+01 5.000000e+00
      vertex 2.655000e+01 3.040000e+01 0.000000e+00
    endloop
  endfacet
  facet normal 0.000000e+00 1.000000e+00 0.000000e+00
    outer loop
      vertex 3.394100e+00 3.040000e+01 1.194110e+00
      vertex 2.655000e+01 3.040000e+01 5.000000e+00
      vertex 4.192001e+00 3.040000e+01 0.000000e+00
    endloop
  endfacet
  facet normal 0.000000e+00 1.000000e+00 0.000000e+00
    outer loop
      vertex -1.836899e+00 3.040000e+01 2.234620e+00
      vertex -2.655000e+01 3.040000e+01 5.000000e+00
      vertex 0.000000e+00 3.040000e+01 2.600000e+00
    endloop
  endfacet
  facet normal 0.000000e+00 1.000000e+00 0.000000e+00
    outer loop
      vertex 1.836901e+00 3.040000e+01 2.234620e+00
      vertex 0.000000e+00 3.040000e+01 2.600000e+00
      vertex 2.655000e+01 3.040000e+01 5.000000e+00
    endloop
  endfacet
  facet normal 0.000000e+00 1.000000e+00 0.000000e+00
    outer loop
      vertex -3.394100e+00 3.040000e+01 1.194110e+00
      vertex -2.655000e+01 3.040000e+01 5.000000e+00
      vertex -1.836899e+00 3.040000e+01 2.234620e+00
    endloop
  endfacet
  facet normal 0.000000e+00 1.000000e+00 0.000000e+00
    outer loop
      vertex -4.191999e+00 3.040000e+01 0.000000e+00
      vertex -2.655000e+01 3.040000e+01 5.000000e+00
      vertex -3.394100e+00 3.040000e+01 1.194110e+00
    endloop
  endfacet
  facet normal 0.000000e+00 1.000000e+00 0.000000e+00
    outer loop
      vertex 1.836901e+00 3.040000e+01 2.234620e+00
      vertex 2.655000e+01 3.040000e+01 5.000000e+00
      vertex 3.394100e+00 3.040000e+01 1.194110e+00
    endloop
  endfacet
  facet normal 0.000000e+00 0.000000e+00 1.000000e+00
    outer loop
      vertex 2.013160e+01 2.914010e+01 5.000000e+00
      vertex 2.655000e+01 3.040000e+01 5.000000e+00
      vertex -2.655000e+01 3.040000e+01 5.000000e+00
    endloop
  endfacet
  facet normal 0.000000e+00 0.000000e+00 1.000000e+00
    outer loop
      vertex 1.766620e+01 2.444270e+01 5.000000e+00
      vertex -6.799999e+00 1.413330e+01 5.000000e+00
      vertex -4.799999e+00 1.413330e+01 5.000000e+00
    endloop
  endfacet
  facet normal 0.000000e+00 0.000000e+00 1.000000e+00
    outer loop
      vertex -2.655000e+01 -3.040000e+01 5.000000e+00
      vertex -2.543377e+01 -2.444274e+01 5.000000e+00
      vertex -2.655000e+01 3.040000e+01 5.000000e+00
    endloop
  endfacet
  facet normal 0.000000e+00 0.000000e+00 1.000000e+00
    outer loop
      vertex -2.543377e+01 -2.444274e+01 5.000000e+00
      vertex -2.454404e+01 -2.274751e+01 5.000000e+00
      vertex -2.655000e+01 3.040000e+01 5.000000e+00
    endloop
  endfacet
  facet normal 0.000000e+00 0.000000e+00 1.000000e+00
    outer loop
      vertex -2.106785e+01 -2.937083e+01 5.000000e+00
      vertex -2.296842e+01 -2.914006e+01 5.000000e+00
      vertex -2.655000e+01 -3.040000e+01 5.000000e+00
    endloop
  endfacet
  facet normal 0.000000e+00 0.000000e+00 1.000000e+00
    outer loop
      vertex -2.454404e+01 -2.274751e+01 5.000000e+00
      vertex -2.296842e+01 -2.165994e+01 5.000000e+00
      vertex -2.655000e+01 3.040000e+01 5.000000e+00
    endloop
  endfacet
  facet normal 0.000000e+00 0.000000e+00 1.000000e+00
    outer loop
      vertex -2.296842e+01 -2.165994e+01 5.000000e+00
      vertex -2.106785e+01 -2.142917e+01 5.000000e+00
      vertex -2.655000e+01 3.040000e+01 5.000000e+00
    endloop
  endfacet
  facet normal 0.000000e+00 0.000000e+00 1.000000e+00
    outer loop
      vertex -1.927774e+01 -2.210807e+01 5.000000e+00
      vertex 2.655000e+01 -3.040000e+01 5.000000e+00
      vertex -2.106785e+01 -2.142917e+01 5.000000e+00
    endloop
  endfacet
  facet normal 0.000000e+00 0.000000e+00 1.000000e+00
    outer loop
      vertex -2.296842e+01 -2.914006e+01 5.000000e+00
      vertex -2.454404e+01 -2.805249e+01 5.000000e+00
      vertex -2.655000e+01 -3.040000e+01 5.000000e+00
    endloop
  endfacet
  facet normal 0.000000e+00 0.000000e+00 1.000000e+00
    outer loop
      vertex -1.800818e+01 -2.725889e+01 5.000000e+00
      vertex 2.655000e+01 -3.040000e+01 5.000000e+00
      vertex -1.755000e+01 -2.540000e+01 5.000000e+00
    endloop
  endfacet
  facet normal 0.000000e+00 0.000000e+00 1.000000e+00
    outer loop
      vertex -4.799999e+00 -6.133299e+00 5.000000e+00
      vertex -4.799999e+00 -1.013330e+01 5.000000e+00
      vertex 2.655000e+01 -3.040000e+01 5.000000e+00
    endloop
  endfacet
  facet normal 0.000000e+00 0.000000e+00 1.000000e+00
    outer loop
      vertex -1.927774e+01 -2.869194e+01 5.000000e+00
      vertex 2.655000e+01 -3.040000e+01 5.000000e+00
      vertex -1.800818e+01 -2.725889e+01 5.000000e+00
    endloop
  endfacet
  facet normal 0.000000e+00 0.000000e+00 1.000000e+00
    outer loop
      vertex -2.106785e+01 -2.937083e+01 5.000000e+00
      vertex 2.655000e+01 -3.040000e+01 5.000000e+00
      vertex -1.927774e+01 -2.869194e+01 5.000000e+00
    endloop
  endfacet
  facet normal 0.000000e+00 0.000000e+00 1.000000e+00
    outer loop
      vertex -2.655000e+01 -3.040000e+01 5.000000e+00
      vertex 2.655000e+01 -3.040000e+01 5.000000e+00
      vertex -2.106785e+01 -2.937083e+01 5.000000e+00
    endloop
  endfacet
  facet normal 0.000000e+00 0.000000e+00 1.000000e+00
    outer loop
      vertex 4.800001e+00 -6.133299e+00 5.000000e+00
      vertex 6.799999e+00 -6.133299e+00 5.000000e+00
      vertex -6.799999e+00 1.013330e+01 5.000000e+00
    endloop
  endfacet
  facet normal 0.000000e+00 0.000000e+00 1.000000e+00
    outer loop
      vertex -2.655000e+01 -3.040000e+01 5.000000e+00
      vertex -2.543377e+01 -2.635726e+01 5.000000e+00
      vertex -2.543377e+01 -2.444274e+01 5.000000e+00
    endloop
  endfacet
  facet normal 0.000000e+00 0.000000e+00 1.000000e+00
    outer loop
      vertex -2.655000e+01 -3.040000e+01 5.000000e+00
      vertex -2.454404e+01 -2.805249e+01 5.000000e+00
      vertex -2.543377e+01 -2.635726e+01 5.000000e+00
    endloop
  endfacet
  facet normal 0.000000e+00 0.000000e+00 1.000000e+00
    outer loop
      vertex -2.106785e+01 -2.142917e+01 5.000000e+00
      vertex -6.799999e+00 -6.133299e+00 5.000000e+00
      vertex -2.655000e+01 3.040000e+01 5.000000e+00
    endloop
  endfacet
  facet normal 0.000000e+00 0.000000e+00 1.000000e+00
    outer loop
      vertex -6.799999e+00 -6.133299e+00 5.000000e+00
      vertex -4.799999e+00 -6.133299e+00 5.000000e+00
      vertex -2.655000e+01 3.040000e+01 5.000000e+00
    endloop
  endfacet
  facet normal 0.000000e+00 0.000000e+00 1.000000e+00
    outer loop
      vertex -6.799999e+00 1.013330e+01 5.000000e+00
      vertex -6.799999e+00 1.413330e+01 5.000000e+00
      vertex -2.655000e+01 3.040000e+01 5.000000e+00
    endloop
  endfacet
  facet normal 0.000000e+00 0.000000e+00 1.000000e+00
    outer loop
      vertex -2.106785e+01 -2.142917e+01 5.000000e+00
      vertex 2.655000e+01 -3.040000e+01 5.000000e+00
      vertex -4.799999e+00 -1.013330e+01 5.000000e+00
    endloop
  endfacet
  facet normal 0.000000e+00 0.000000e+00 1.000000e+00
    outer loop
      vertex -2.106785e+01 -2.142917e+01 5.000000e+00
      vertex -6.799999e+00 -1.013330e+01 5.000000e+00
      vertex -6.799999e+00 -6.133299e+00 5.000000e+00
    endloop
  endfacet
  facet normal 0.000000e+00 0.000000e+00 1.000000e+00
    outer loop
      vertex -2.106785e+01 -2.142917e+01 5.000000e+00
      vertex -4.799999e+00 -1.013330e+01 5.000000e+00
      vertex -6.799999e+00 -1.013330e+01 5.000000e+00
    endloop
  endfacet
  facet normal 0.000000e+00 0.000000e+00 1.000000e+00
    outer loop
      vertex 4.800001e+00 -1.013330e+01 5.000000e+00
      vertex 4.800001e+00 -6.133299e+00 5.000000e+00
      vertex -4.799999e+00 -6.133299e+00 5.000000e+00
    endloop
  endfacet
  facet normal 0.000000e+00 0.000000e+00 1.000000e+00
    outer loop
      vertex 2.203210e+01 2.937080e+01 5.000000e+00
      vertex 2.382230e+01 2.869190e+01 5.000000e+00
      vertex 2.655000e+01 3.040000e+01 5.000000e+00
    endloop
  endfacet
  facet normal 0.000000e+00 0.000000e+00 1.000000e+00
    outer loop
      vertex -4.799999e+00 1.413330e+01 5.000000e+00
      vertex -4.799999e+00 1.013330e+01 5.000000e+00
      vertex 2.655000e+01 -3.040000e+01 5.000000e+00
    endloop
  endfacet
  facet normal 0.000000e+00 0.000000e+00 1.000000e+00
    outer loop
      vertex 6.799999e+00 -6.133299e+00 5.000000e+00
      vertex 6.799999e+00 -1.013330e+01 5.000000e+00
      vertex 2.655000e+01 -3.040000e+01 5.000000e+00
    endloop
  endfacet
  facet normal 0.000000e+00 0.000000e+00 1.000000e+00
    outer loop
      vertex 6.799999e+00 -6.133299e+00 5.000000e+00
      vertex -4.799999e+00 1.013330e+01 5.000000e+00
      vertex -6.799999e+00 1.013330e+01 5.000000e+00
    endloop
  endfacet
  facet normal 0.000000e+00 0.000000e+00 1.000000e+00
    outer loop
      vertex -4.799999e+00 -6.133299e+00 5.000000e+00
      vertex 4.800001e+00 -6.133299e+00 5.000000e+00
      vertex -2.655000e+01 3.040000e+01 5.000000e+00
    endloop
  endfacet
  facet normal 0.000000e+00 0.000000e+00 1.000000e+00
    outer loop
      vertex 2.655000e+01 -3.040000e+01 5.000000e+00
      vertex -4.799999e+00 1.013330e+01 5.000000e+00
      vertex 6.799999e+00 -6.133299e+00 5.000000e+00
    endloop
  endfacet
  facet normal 0.000000e+00 0.000000e+00 1.000000e+00
    outer loop
      vertex 6.799999e+00 1.013330e+01 5.000000e+00
      vertex 4.800001e+00 1.013330e+01 5.000000e+00
      vertex 2.655000e+01 -3.040000e+01 5.000000e+00
    endloop
  endfacet
  facet normal 0.000000e+00 0.000000e+00 1.000000e+00
    outer loop
      vertex 4.800001e+00 -1.013330e+01 5.000000e+00
      vertex 2.655000e+01 -3.040000e+01 5.000000e+00
      vertex 6.799999e+00 -1.013330e+01 5.000000e+00
    endloop
  endfacet
  facet normal 0.000000e+00 0.000000e+00 1.000000e+00
    outer loop
      vertex 4.800001e+00 -6.133299e+00 5.000000e+00
      vertex -6.799999e+00 1.013330e+01 5.000000e+00
      vertex -2.655000e+01 3.040000e+01 5.000000e+00
    endloop
  endfacet
  facet normal 0.000000e+00 0.000000e+00 1.000000e+00
    outer loop
      vertex -4.799999e+00 -6.133299e+00 5.000000e+00
      vertex 2.655000e+01 -3.040000e+01 5.000000e+00
      vertex 4.800001e+00 -1.013330e+01 5.000000e+00
    endloop
  endfacet
  facet normal 0.000000e+00 0.000000e+00 1.000000e+00
    outer loop
      vertex 4.800001e+00 1.013330e+01 5.000000e+00
      vertex 4.800001e+00 1.413330e+01 5.000000e+00
      vertex -4.799999e+00 1.413330e+01 5.000000e+00
    endloop
  endfacet
  facet normal 0.000000e+00 0.000000e+00 1.000000e+00
    outer loop
      vertex 1.855600e+01 2.274750e+01 5.000000e+00
      vertex 1.766620e+01 2.444270e+01 5.000000e+00
      vertex 4.800001e+00 1.413330e+01 5.000000e+00
    endloop
  endfacet
  facet normal 0.000000e+00 0.000000e+00 1.000000e+00
    outer loop
      vertex 2.555000e+01 2.540000e+01 5.000000e+00
      vertex 2.509180e+01 2.354110e+01 5.000000e+00
      vertex 2.655000e+01 -3.040000e+01 5.000000e+00
    endloop
  endfacet
  facet normal 0.000000e+00 0.000000e+00 1.000000e+00
    outer loop
      vertex 2.655000e+01 -3.040000e+01 5.000000e+00
      vertex 6.799999e+00 1.413330e+01 5.000000e+00
      vertex 6.799999e+00 1.013330e+01 5.000000e+00
    endloop
  endfacet
  facet normal 0.000000e+00 0.000000e+00 1.000000e+00
    outer loop
      vertex 2.655000e+01 -3.040000e+01 5.000000e+00
      vertex 4.800001e+00 1.013330e+01 5.000000e+00
      vertex -4.799999e+00 1.413330e+01 5.000000e+00
    endloop
  endfacet
  facet normal 0.000000e+00 0.000000e+00 1.000000e+00
    outer loop
      vertex 1.855600e+01 2.274750e+01 5.000000e+00
      vertex 4.800001e+00 1.413330e+01 5.000000e+00
      vertex 6.799999e+00 1.413330e+01 5.000000e+00
    endloop
  endfacet
  facet normal 0.000000e+00 0.000000e+00 1.000000e+00
    outer loop
      vertex -6.799999e+00 1.413330e+01 5.000000e+00
      vertex 1.766620e+01 2.635730e+01 5.000000e+00
      vertex -2.655000e+01 3.040000e+01 5.000000e+00
    endloop
  endfacet
  facet normal 0.000000e+00 0.000000e+00 1.000000e+00
    outer loop
      vertex 1.766620e+01 2.635730e+01 5.000000e+00
      vertex 1.855600e+01 2.805250e+01 5.000000e+00
      vertex -2.655000e+01 3.040000e+01 5.000000e+00
    endloop
  endfacet
  facet normal 0.000000e+00 0.000000e+00 1.000000e+00
    outer loop
      vertex 1.855600e+01 2.805250e+01 5.000000e+00
      vertex 2.013160e+01 2.914010e+01 5.000000e+00
      vertex -2.655000e+01 3.040000e+01 5.000000e+00
    endloop
  endfacet
  facet normal 0.000000e+00 0.000000e+00 1.000000e+00
    outer loop
      vertex 2.203210e+01 2.937080e+01 5.000000e+00
      vertex 2.655000e+01 3.040000e+01 5.000000e+00
      vertex 2.013160e+01 2.914010e+01 5.000000e+00
    endloop
  endfacet
  facet normal 0.000000e+00 0.000000e+00 1.000000e+00
    outer loop
      vertex 2.382230e+01 2.869190e+01 5.000000e+00
      vertex 2.509180e+01 2.725890e+01 5.000000e+00
      vertex 2.655000e+01 3.040000e+01 5.000000e+00
    endloop
  endfacet
  facet normal 0.000000e+00 0.000000e+00 1.000000e+00
    outer loop
      vertex 2.555000e+01 2.540000e+01 5.000000e+00
      vertex 2.655000e+01 3.040000e+01 5.000000e+00
      vertex 2.509180e+01 2.725890e+01 5.000000e+00
    endloop
  endfacet
  facet normal 0.000000e+00 0.000000e+00 1.000000e+00
    outer loop
      vertex 2.203210e+01 2.142920e+01 5.000000e+00
      vertex 2.013160e+01 2.165990e+01 5.000000e+00
      vertex 6.799999e+00 1.413330e+01 5.000000e+00
    endloop
  endfacet
  facet normal 0.000000e+00 0.000000e+00 1.000000e+00
    outer loop
      vertex 2.655000e+01 -3.040000e+01 5.000000e+00
      vertex 2.655000e+01 3.040000e+01 5.000000e+00
      vertex 2.555000e+01 2.540000e+01 5.000000e+00
    endloop
  endfacet
  facet normal 0.000000e+00 0.000000e+00 1.000000e+00
    outer loop
      vertex 2.013160e+01 2.165990e+01 5.000000e+00
      vertex 1.855600e+01 2.274750e+01 5.000000e+00
      vertex 6.799999e+00 1.413330e+01 5.000000e+00
    endloop
  endfacet
  facet normal 0.000000e+00 0.000000e+00 1.000000e+00
    outer loop
      vertex 2.655000e+01 -3.040000e+01 5.000000e+00
      vertex 2.382230e+01 2.210810e+01 5.000000e+00
      vertex 6.799999e+00 1.413330e+01 5.000000e+00
    endloop
  endfacet
  facet normal 0.000000e+00 0.000000e+00 1.000000e+00
    outer loop
      vertex 2.655000e+01 -3.040000e+01 5.000000e+00
      vertex 2.509180e+01 2.354110e+01 5.000000e+00
      vertex 2.382230e+01 2.210810e+01 5.000000e+00
    endloop
  endfacet
  facet normal 0.000000e+00 0.000000e+00 1.000000e+00
    outer loop
      vertex 2.382230e+01 2.210810e+01 5.000000e+00
      vertex 2.203210e+01 2.142920e+01 5.000000e+00
      vertex 6.799999e+00 1.413330e+01 5.000000e+00
    endloop
  endfacet
  facet normal 0.000000e+00 0.000000e+00 1.000000e+00
    outer loop
      vertex 4.800001e+00 1.413330e+01 5.000000e+00
      vertex 1.766620e+01 2.444270e+01 5.000000e+00
      vertex -4.799999e+00 1.413330e+01 5.000000e+00
    endloop
  endfacet
  facet normal 0.000000e+00 0.000000e+00 1.000000e+00
    outer loop
      vertex -1.927774e+01 -2.210807e+01 5.000000e+00
      vertex -1.800818e+01 -2.354111e+01 5.000000e+00
      vertex 2.655000e+01 -3.040000e+01 5.000000e+00
    endloop
  endfacet
  facet normal 0.000000e+00 0.000000e+00 1.000000e+00
    outer loop
      vertex -1.800818e+01 -2.354111e+01 5.000000e+00
      vertex -1.755000e+01 -2.540000e+01 5.000000e+00
      vertex 2.655000e+01 -3.040000e+01 5.000000e+00
    endloop
  endfacet
  facet normal 0.000000e+00 0.000000e+00 1.000000e+00
    outer loop
      vertex 1.766620e+01 2.444270e+01 5.000000e+00
      vertex 1.766620e+01 2.635730e+01 5.000000e+00
      vertex -6.799999e+00 1.413330e+01 5.000000e+00
    endloop
  endfacet
  facet normal 1.000000e+00 0.000000e+00 0.000000e+00
    outer loop
      vertex 2.655000e+01 -3.040000e+01 5.000000e+00
      vertex 2.655000e+01 -3.040000e+01 0.000000e+00
      vertex 2.655000e+01 3.040000e+01 0.000000e+00
    endloop
  endfacet
  facet normal 1.000000e+00 0.000000e+00 0.000000e+00
    outer loop
      vertex 2.655000e+01 3.040000e+01 5.000000e+00
      vertex 2.655000e+01 -3.040000e+01 5.000000e+00
      vertex 2.655000e+01 3.040000e+01 0.000000e+00
    endloop
  endfacet
  facet normal -0.000000e+00 -0.000000e+00 -1.000000e+00
    outer loop
      vertex 6.799999e+00 1.413330e+01 0.000000e+00
      vertex 4.192001e+00 3.040000e+01 0.000000e+00
      vertex 2.655000e+01 -3.040000e+01 0.000000e+00
    endloop
  endfacet
  facet normal 0.000000e+00 0.000000e+00 -1.000000e+00
    outer loop
      vertex 2.110500e+01 2.734990e+01 0.000000e+00
      vertex 4.192001e+00 3.040000e+01 0.000000e+00
      vertex 2.655000e+01 3.040000e+01 0.000000e+00
    endloop
  endfacet
  facet normal 0.000000e+00 0.000000e+00 -1.000000e+00
    outer loop
      vertex 4.192001e+00 -3.040000e+01 0.000000e+00
      vertex 4.192001e+00 3.040000e+01 0.000000e+00
      vertex 4.800001e+00 -6.133299e+00 0.000000e+00
    endloop
  endfacet
  facet normal 0.000000e+00 0.000000e+00 -1.000000e+00
    outer loop
      vertex 2.110500e+01 2.345010e+01 0.000000e+00
      vertex 2.655000e+01 -3.040000e+01 0.000000e+00
      vertex 1.974810e+01 2.453220e+01 0.000000e+00
    endloop
  endfacet
  facet normal 0.000000e+00 0.000000e+00 -1.000000e+00
    outer loop
      vertex 4.192001e+00 -3.040000e+01 0.000000e+00
      vertex 4.800001e+00 -6.133299e+00 0.000000e+00
      vertex 4.800001e+00 -1.013330e+01 0.000000e+00
    endloop
  endfacet
  facet normal 0.000000e+00 0.000000e+00 -1.000000e+00
    outer loop
      vertex 4.192001e+00 -3.040000e+01 0.000000e+00
      vertex 4.800001e+00 -1.013330e+01 0.000000e+00
      vertex 2.655000e+01 -3.040000e+01 0.000000e+00
    endloop
  endfacet
  facet normal 0.000000e+00 0.000000e+00 -1.000000e+00
    outer loop
      vertex 4.800001e+00 -1.013330e+01 0.000000e+00
      vertex 6.799999e+00 -1.013330e+01 0.000000e+00
      vertex 2.655000e+01 -3.040000e+01 0.000000e+00
    endloop
  endfacet
  facet normal 0.000000e+00 0.000000e+00 -1.000000e+00
    outer loop
      vertex 6.799999e+00 1.013330e+01 0.000000e+00
      vertex 6.799999e+00 -6.133299e+00 0.000000e+00
      vertex 4.800001e+00 1.013330e+01 0.000000e+00
    endloop
  endfacet
  facet normal -0.000000e+00 -0.000000e+00 -1.000000e+00
    outer loop
      vertex 4.800001e+00 1.413330e+01 0.000000e+00
      vertex 4.192001e+00 3.040000e+01 0.000000e+00
      vertex 6.799999e+00 1.413330e+01 0.000000e+00
    endloop
  endfacet
  facet normal 0.000000e+00 0.000000e+00 -1.000000e+00
    outer loop
      vertex 4.800001e+00 -6.133299e+00 0.000000e+00
      vertex 4.192001e+00 3.040000e+01 0.000000e+00
      vertex 4.800001e+00 1.013330e+01 0.000000e+00
    endloop
  endfacet
  facet normal 0.000000e+00 0.000000e+00 -1.000000e+00
    outer loop
      vertex 4.192001e+00 3.040000e+01 0.000000e+00
      vertex 4.800001e+00 1.413330e+01 0.000000e+00
      vertex 4.800001e+00 1.013330e+01 0.000000e+00
    endloop
  endfacet
  facet normal -0.000000e+00 -0.000000e+00 -1.000000e+00
    outer loop
      vertex 4.800001e+00 -6.133299e+00 0.000000e+00
      vertex 4.800001e+00 1.013330e+01 0.000000e+00
      vertex 6.799999e+00 -6.133299e+00 0.000000e+00
    endloop
  endfacet
  facet normal -0.000000e+00 -0.000000e+00 -1.000000e+00
    outer loop
      vertex 6.799999e+00 -6.133299e+00 0.000000e+00
      vertex 6.799999e+00 1.013330e+01 0.000000e+00
      vertex 2.655000e+01 -3.040000e+01 0.000000e+00
    endloop
  endfacet
  facet normal -0.000000e+00 -0.000000e+00 -1.000000e+00
    outer loop
      vertex 6.799999e+00 1.013330e+01 0.000000e+00
      vertex 6.799999e+00 1.413330e+01 0.000000e+00
      vertex 2.655000e+01 -3.040000e+01 0.000000e+00
    endloop
  endfacet
  facet normal 0.000000e+00 0.000000e+00 -1.000000e+00
    outer loop
      vertex 1.974810e+01 2.453220e+01 0.000000e+00
      vertex 4.192001e+00 3.040000e+01 0.000000e+00
      vertex 1.974810e+01 2.626780e+01 0.000000e+00
    endloop
  endfacet
  facet normal 0.000000e+00 0.000000e+00 -1.000000e+00
    outer loop
      vertex 2.655000e+01 -3.040000e+01 0.000000e+00
      vertex 4.192001e+00 3.040000e+01 0.000000e+00
      vertex 1.974810e+01 2.453220e+01 0.000000e+00
    endloop
  endfacet
  facet normal 0.000000e+00 0.000000e+00 -1.000000e+00
    outer loop
      vertex 2.279700e+01 2.696370e+01 0.000000e+00
      vertex 2.655000e+01 3.040000e+01 0.000000e+00
      vertex 2.355000e+01 2.540000e+01 0.000000e+00
    endloop
  endfacet
  facet normal 0.000000e+00 0.000000e+00 -1.000000e+00
    outer loop
      vertex 2.655000e+01 -3.040000e+01 0.000000e+00
      vertex 2.110500e+01 2.345010e+01 0.000000e+00
      vertex 2.279700e+01 2.383630e+01 0.000000e+00
    endloop
  endfacet
  facet normal 0.000000e+00 0.000000e+00 -1.000000e+00
    outer loop
      vertex 2.655000e+01 -3.040000e+01 0.000000e+00
      vertex 2.279700e+01 2.383630e+01 0.000000e+00
      vertex 2.655000e+01 3.040000e+01 0.000000e+00
    endloop
  endfacet
  facet normal 0.000000e+00 0.000000e+00 -1.000000e+00
    outer loop
      vertex 2.279700e+01 2.383630e+01 0.000000e+00
      vertex 2.355000e+01 2.540000e+01 0.000000e+00
      vertex 2.655000e+01 3.040000e+01 0.000000e+00
    endloop
  endfacet
  facet normal 0.000000e+00 0.000000e+00 -1.000000e+00
    outer loop
      vertex 2.110500e+01 2.734990e+01 0.000000e+00
      vertex 2.655000e+01 3.040000e+01 0.000000e+00
      vertex 2.279700e+01 2.696370e+01 0.000000e+00
    endloop
  endfacet
  facet normal 0.000000e+00 0.000000e+00 -1.000000e+00
    outer loop
      vertex 1.974810e+01 2.626780e+01 0.000000e+00
      vertex 4.192001e+00 3.040000e+01 0.000000e+00
      vertex 2.110500e+01 2.734990e+01 0.000000e+00
    endloop
  endfacet
  facet normal 0.000000e+00 0.000000e+00 -1.000000e+00
    outer loop
      vertex 6.799999e+00 -6.133299e+00 0.000000e+00
      vertex 2.655000e+01 -3.040000e+01 0.000000e+00
      vertex 6.799999e+00 -1.013330e+01 0.000000e+00
    endloop
  endfacet
  facet normal -8.314699e-01 9.717018e-17 -5.555699e-01
    outer loop
      vertex 4.192001e+00 3.040000e+01 0.000000e+00
      vertex 4.192001e+00 -3.040000e+01 0.000000e+00
      vertex 3.394100e+00 3.040000e+01 1.194110e+00
    endloop
  endfacet
  facet normal -8.314699e-01 1.237670e-16 -5.555699e-01
    outer loop
      vertex 3.394100e+00 3.040000e+01 1.194110e+00
      vertex 4.192001e+00 -3.040000e+01 0.000000e+00
      vertex 3.394100e+00 -3.040000e+01 1.194110e+00
    endloop
  endfacet
  facet normal -5.555699e-01 1.852310e-16 -8.314699e-01
    outer loop
      vertex 3.394100e+00 3.040000e+01 1.194110e+00
      vertex 3.394100e+00 -3.040000e+01 1.194110e+00
      vertex 1.836901e+00 3.040000e+01 2.234620e+00
    endloop
  endfacet
  facet normal -5.555699e-01 1.821940e-16 -8.314699e-01
    outer loop
      vertex 1.836901e+00 3.040000e+01 2.234620e+00
      vertex 3.394100e+00 -3.040000e+01 1.194110e+00
      vertex 1.836901e+00 -3.040000e+01 2.234620e+00
    endloop
  endfacet
  facet normal -1.950901e-01 2.149131e-16 -9.807854e-01
    outer loop
      vertex 1.836901e+00 3.040000e+01 2.234620e+00
      vertex 1.836901e+00 -3.040000e+01 2.234620e+00
      vertex 0.000000e+00 3.040000e+01 2.600000e+00
    endloop
  endfacet
  facet normal -1.950901e-01 2.149131e-16 -9.807854e-01
    outer loop
      vertex 0.000000e+00 3.040000e+01 2.600000e+00
      vertex 1.836901e+00 -3.040000e+01 2.234620e+00
      vertex 0.000000e+00 -3.040000e+01 2.600000e+00
    endloop
  endfacet
  facet normal 1.950901e-01 2.149131e-16 -9.807854e-01
    outer loop
      vertex 0.000000e+00 3.040000e+01 2.600000e+00
      vertex 0.000000e+00 -3.040000e+01 2.600000e+00
      vertex -1.836899e+00 3.040000e+01 2.234620e+00
    endloop
  endfacet
  facet normal 1.950901e-01 2.149131e-16 -9.807854e-01
    outer loop
      vertex -1.836899e+00 3.040000e+01 2.234620e+00
      vertex 0.000000e+00 -3.040000e+01 2.600000e+00
      vertex -1.836899e+00 -3.040000e+01 2.234620e+00
    endloop
  endfacet
  facet normal 5.555699e-01 1.821940e-16 -8.314699e-01
    outer loop
      vertex -1.836899e+00 3.040000e+01 2.234620e+00
      vertex -1.836899e+00 -3.040000e+01 2.234620e+00
      vertex -3.394100e+00 3.040000e+01 1.194110e+00
    endloop
  endfacet
  facet normal 5.555699e-01 1.852310e-16 -8.314699e-01
    outer loop
      vertex -3.394100e+00 3.040000e+01 1.194110e+00
      vertex -1.836899e+00 -3.040000e+01 2.234620e+00
      vertex -3.394100e+00 -3.040000e+01 1.194110e+00
    endloop
  endfacet
  facet normal 8.314699e-01 1.237670e-16 -5.555699e-01
    outer loop
      vertex -3.394100e+00 3.040000e+01 1.194110e+00
      vertex -3.394100e+00 -3.040000e+01 1.194110e+00
      vertex -4.191999e+00 -3.040000e+01 0.000000e+00
    endloop
  endfacet
  facet normal 8.314699e-01 9.717018e-17 -5.555699e-01
    outer loop
      vertex -4.191999e+00 3.040000e+01 0.000000e+00
      vertex -3.394100e+00 3.040000e+01 1.194110e+00
      vertex -4.191999e+00 -3.040000e+01 0.000000e+00
    endloop
  endfacet
  facet normal 6.234901e-01 -7.818312e-01 0.000000e+00
    outer loop
      vertex -2.199504e+01 -2.345014e+01 0.000000e+00
      vertex -2.199504e+01 -2.345014e+01 8.000000e+00
      vertex -2.335194e+01 -2.453223e+01 8.000000e+00
    endloop
  endfacet
  facet normal 6.234901e-01 -7.818312e-01 0.000000e+00
    outer loop
      vertex -2.335194e+01 -2.453223e+01 0.000000e+00
      vertex -2.199504e+01 -2.345014e+01 0.000000e+00
      vertex -2.335194e+01 -2.453223e+01 8.000000e+00
    endloop
  endfacet
  facet normal 1.000000e+00 0.000000e+00 0.000000e+00
    outer loop
      vertex -2.335194e+01 -2.453223e+01 0.000000e+00
      vertex -2.335194e+01 -2.453223e+01 8.000000e+00
      vertex -2.335194e+01 -2.626777e+01 8.000000e+00
    endloop
  endfacet
  facet normal 1.000000e+00 0.000000e+00 0.000000e+00
    outer loop
      vertex -2.335194e+01 -2.626777e+01 0.000000e+00
      vertex -2.335194e+01 -2.453223e+01 0.000000e+00
      vertex -2.335194e+01 -2.626777e+01 8.000000e+00
    endloop
  endfacet
  facet normal -2.225210e-01 -9.749279e-01 -0.000000e+00
    outer loop
      vertex -2.030302e+01 -2.383634e+01 0.000000e+00
      vertex -2.030302e+01 -2.383634e+01 8.000000e+00
      vertex -2.199504e+01 -2.345014e+01 8.000000e+00
    endloop
  endfacet
  facet normal -2.225210e-01 -9.749279e-01 -0.000000e+00
    outer loop
      vertex -2.199504e+01 -2.345014e+01 0.000000e+00
      vertex -2.030302e+01 -2.383634e+01 0.000000e+00
      vertex -2.199504e+01 -2.345014e+01 8.000000e+00
    endloop
  endfacet
  facet normal -9.009688e-01 -4.338839e-01 0.000000e+00
    outer loop
      vertex -1.955000e+01 -2.540000e+01 8.000000e+00
      vertex -2.030302e+01 -2.383634e+01 8.000000e+00
      vertex -1.955000e+01 -2.540000e+01 0.000000e+00
    endloop
  endfacet
  facet normal -9.009688e-01 -4.338839e-01 0.000000e+00
    outer loop
      vertex -1.955000e+01 -2.540000e+01 0.000000e+00
      vertex -2.030302e+01 -2.383634e+01 8.000000e+00
      vertex -2.030302e+01 -2.383634e+01 0.000000e+00
    endloop
  endfacet
  facet normal -9.009688e-01 4.338839e-01 0.000000e+00
    outer loop
      vertex -1.955000e+01 -2.540000e+01 8.000000e+00
      vertex -1.955000e+01 -2.540000e+01 0.000000e+00
      vertex -2.030302e+01 -2.696366e+01 8.000000e+00
    endloop
  endfacet
  facet normal -9.009688e-01 4.338839e-01 0.000000e+00
    outer loop
      vertex -2.030302e+01 -2.696366e+01 8.000000e+00
      vertex -1.955000e+01 -2.540000e+01 0.000000e+00
      vertex -2.030302e+01 -2.696366e+01 0.000000e+00
    endloop
  endfacet
  facet normal -2.225210e-01 9.749279e-01 0.000000e+00
    outer loop
      vertex -2.030302e+01 -2.696366e+01 8.000000e+00
      vertex -2.030302e+01 -2.696366e+01 0.000000e+00
      vertex -2.199504e+01 -2.734986e+01 8.000000e+00
    endloop
  endfacet
  facet normal -2.225210e-01 9.749279e-01 0.000000e+00
    outer loop
      vertex -2.199504e+01 -2.734986e+01 8.000000e+00
      vertex -2.030302e+01 -2.696366e+01 0.000000e+00
      vertex -2.199504e+01 -2.734986e+01 0.000000e+00
    endloop
  endfacet
  facet normal 6.234901e-01 7.818312e-01 0.000000e+00
    outer loop
      vertex -2.199504e+01 -2.734986e+01 8.000000e+00
      vertex -2.199504e+01 -2.734986e+01 0.000000e+00
      vertex -2.335194e+01 -2.626777e+01 8.000000e+00
    endloop
  endfacet
  facet normal 6.234901e-01 7.818312e-01 0.000000e+00
    outer loop
      vertex -2.335194e+01 -2.626777e+01 8.000000e+00
      vertex -2.199504e+01 -2.734986e+01 0.000000e+00
      vertex -2.335194e+01 -2.626777e+01 0.000000e+00
    endloop
  endfacet
  facet normal 1.000000e+00 0.000000e+00 0.000000e+00
    outer loop
      vertex -6.799999e+00 -6.133299e+00 0.000000e+00
      vertex -6.799999e+00 -6.133299e+00 5.000000e+00
      vertex -6.799999e+00 -1.013330e+01 5.000000e+00
    endloop
  endfacet
  facet normal 1.000000e+00 0.000000e+00 0.000000e+00
    outer loop
      vertex -6.799999e+00 -1.013330e+01 0.000000e+00
      vertex -6.799999e+00 -6.133299e+00 0.000000e+00
      vertex -6.799999e+00 -1.013330e+01 5.000000e+00
    endloop
  endfacet
  facet normal 0.000000e+00 -1.000000e+00 0.000000e+00
    outer loop
      vertex -4.799999e+00 -6.133299e+00 0.000000e+00
      vertex -4.799999e+00 -6.133299e+00 5.000000e+00
      vertex -6.799999e+00 -6.133299e+00 5.000000e+00
    endloop
  endfacet
  facet normal -0.000000e+00 -1.000000e+00 -0.000000e+00
    outer loop
      vertex -6.799999e+00 -6.133299e+00 0.000000e+00
      vertex -4.799999e+00 -6.133299e+00 0.000000e+00
      vertex -6.799999e+00 -6.133299e+00 5.000000e+00
    endloop
  endfacet
  facet normal -1.000000e+00 0.000000e+00 0.000000e+00
    outer loop
      vertex -4.799999e+00 -6.133299e+00 5.000000e+00
      vertex -4.799999e+00 -6.133299e+00 0.000000e+00
      vertex -4.799999e+00 -1.013330e+01 5.000000e+00
    endloop
  endfacet
  facet normal -1.000000e+00 0.000000e+00 0.000000e+00
    outer loop
      vertex -4.799999e+00 -1.013330e+01 5.000000e+00
      vertex -4.799999e+00 -6.133299e+00 0.000000e+00
      vertex -4.799999e+00 -1.013330e+01 0.000000e+00
    endloop
  endfacet
  facet normal 0.000000e+00 1.000000e+00 0.000000e+00
    outer loop
      vertex -4.799999e+00 -1.013330e+01 5.000000e+00
      vertex -4.799999e+00 -1.013330e+01 0.000000e+00
      vertex -6.799999e+00 -1.013330e+01 5.000000e+00
    endloop
  endfacet
  facet normal 0.000000e+00 1.000000e+00 0.000000e+00
    outer loop
      vertex -6.799999e+00 -1.013330e+01 5.000000e+00
      vertex -4.799999e+00 -1.013330e+01 0.000000e+00
      vertex -6.799999e+00 -1.013330e+01 0.000000e+00
    endloop
  endfacet
  facet normal 1.000000e+00 0.000000e+00 0.000000e+00
    outer loop
      vertex -6.799999e+00 1.413330e+01 0.000000e+00
      vertex -6.799999e+00 1.413330e+01 5.000000e+00
      vertex -6.799999e+00 1.013330e+01 5.000000e+00
    endloop
  endfacet
  facet normal 1.000000e+00 0.000000e+00 0.000000e+00
    outer loop
      vertex -6.799999e+00 1.013330e+01 0.000000e+00
      vertex -6.799999e+00 1.413330e+01 0.000000e+00
      vertex -6.799999e+00 1.013330e+01 5.000000e+00
    endloop
  endfacet
  facet normal 0.000000e+00 -1.000000e+00 0.000000e+00
    outer loop
      vertex -4.799999e+00 1.413330e+01 0.000000e+00
      vertex -4.799999e+00 1.413330e+01 5.000000e+00
      vertex -6.799999e+00 1.413330e+01 5.000000e+00
    endloop
  endfacet
  facet normal -0.000000e+00 -1.000000e+00 -0.000000e+00
    outer loop
      vertex -6.799999e+00 1.413330e+01 0.000000e+00
      vertex -4.799999e+00 1.413330e+01 0.000000e+00
      vertex -6.799999e+00 1.413330e+01 5.000000e+00
    endloop
  endfacet
  facet normal -1.000000e+00 0.000000e+00 0.000000e+00
    outer loop
      vertex -4.799999e+00 1.413330e+01 5.000000e+00
      vertex -4.799999e+00 1.413330e+01 0.000000e+00
      vertex -4.799999e+00 1.013330e+01 5.000000e+00
    endloop
  endfacet
  facet normal -1.000000e+00 0.000000e+00 0.000000e+00
    outer loop
      vertex -4.799999e+00 1.013330e+01 5.000000e+00
      vertex -4.799999e+00 1.413330e+01 0.000000e+00
      vertex -4.799999e+00 1.013330e+01 0.000000e+00
    endloop
  endfacet
  facet normal 0.000000e+00 1.000000e+00 0.000000e+00
    outer loop
      vertex -4.799999e+00 1.013330e+01 5.000000e+00
      vertex -4.799999e+00 1.013330e+01 0.000000e+00
      vertex -6.799999e+00 1.013330e+01 5.000000e+00
    endloop
  endfacet
  facet normal 0.000000e+00 1.000000e+00 0.000000e+00
    outer loop
      vertex -6.799999e+00 1.013330e+01 5.000000e+00
      vertex -4.799999e+00 1.013330e+01 0.000000e+00
      vertex -6.799999e+00 1.013330e+01 0.000000e+00
    endloop
  endfacet
  facet normal -1.000000e+00 -0.000000e+00 -0.000000e+00
    outer loop
      vertex -2.543377e+01 -2.635726e+01 5.000000e+00
      vertex -2.543377e+01 -2.635726e+01 8.000000e+00
      vertex -2.543377e+01 -2.444274e+01 5.000000e+00
    endloop
  endfacet
  facet normal -1.000000e+00 0.000000e+00 0.000000e+00
    outer loop
      vertex -2.543377e+01 -2.444274e+01 5.000000e+00
      vertex -2.543377e+01 -2.635726e+01 8.000000e+00
      vertex -2.543377e+01 -2.444274e+01 8.000000e+00
    endloop
  endfacet
  facet normal -8.854561e-01 4.647231e-01 0.000000e+00
    outer loop
      vertex -2.543377e+01 -2.444274e+01 5.000000e+00
      vertex -2.543377e+01 -2.444274e+01 8.000000e+00
      vertex -2.454404e+01 -2.274751e+01 5.000000e+00
    endloop
  endfacet
  facet normal -8.854561e-01 4.647231e-01 0.000000e+00
    outer loop
      vertex -2.454404e+01 -2.274751e+01 5.000000e+00
      vertex -2.543377e+01 -2.444274e+01 8.000000e+00
      vertex -2.454404e+01 -2.274751e+01 8.000000e+00
    endloop
  endfacet
  facet normal -8.854561e-01 -4.647231e-01 -0.000000e+00
    outer loop
      vertex -2.543377e+01 -2.635726e+01 5.000000e+00
      vertex -2.454404e+01 -2.805249e+01 5.000000e+00
      vertex -2.543377e+01 -2.635726e+01 8.000000e+00
    endloop
  endfacet
  facet normal -8.854561e-01 -4.647231e-01 0.000000e+00
    outer loop
      vertex -2.543377e+01 -2.635726e+01 8.000000e+00
      vertex -2.454404e+01 -2.805249e+01 5.000000e+00
      vertex -2.454404e+01 -2.805249e+01 8.000000e+00
    endloop
  endfacet
  facet normal -5.680649e-01 -8.229838e-01 0.000000e+00
    outer loop
      vertex -2.454404e+01 -2.805249e+01 8.000000e+00
      vertex -2.454404e+01 -2.805249e+01 5.000000e+00
      vertex -2.296842e+01 -2.914006e+01 5.000000e+00
    endloop
  endfacet
  facet normal -5.680649e-01 -8.229838e-01 0.000000e+00
    outer loop
      vertex -2.296842e+01 -2.914006e+01 8.000000e+00
      vertex -2.454404e+01 -2.805249e+01 8.000000e+00
      vertex -2.296842e+01 -2.914006e+01 5.000000e+00
    endloop
  endfacet
  facet normal -1.205360e-01 -9.927090e-01 0.000000e+00
    outer loop
      vertex -2.296842e+01 -2.914006e+01 8.000000e+00
      vertex -2.296842e+01 -2.914006e+01 5.000000e+00
      vertex -2.106785e+01 -2.937083e+01 5.000000e+00
    endloop
  endfacet
  facet normal -1.205360e-01 -9.927090e-01 0.000000e+00
    outer loop
      vertex -2.106785e+01 -2.937083e+01 8.000000e+00
      vertex -2.296842e+01 -2.914006e+01 8.000000e+00
      vertex -2.106785e+01 -2.937083e+01 5.000000e+00
    endloop
  endfacet
  facet normal 3.546051e-01 -9.350162e-01 0.000000e+00
    outer loop
      vertex -2.106785e+01 -2.937083e+01 8.000000e+00
      vertex -2.106785e+01 -2.937083e+01 5.000000e+00
      vertex -1.927774e+01 -2.869194e+01 5.000000e+00
    endloop
  endfacet
  facet normal 3.546051e-01 -9.350162e-01 0.000000e+00
    outer loop
      vertex -1.927774e+01 -2.869194e+01 8.000000e+00
      vertex -2.106785e+01 -2.937083e+01 8.000000e+00
      vertex -1.927774e+01 -2.869194e+01 5.000000e+00
    endloop
  endfacet
  facet normal 7.485107e-01 -6.631227e-01 0.000000e+00
    outer loop
      vertex -1.927774e+01 -2.869194e+01 8.000000e+00
      vertex -1.927774e+01 -2.869194e+01 5.000000e+00
      vertex -1.800818e+01 -2.725889e+01 5.000000e+00
    endloop
  endfacet
  facet normal 7.485107e-01 -6.631227e-01 0.000000e+00
    outer loop
      vertex -1.800818e+01 -2.725889e+01 8.000000e+00
      vertex -1.927774e+01 -2.869194e+01 8.000000e+00
      vertex -1.800818e+01 -2.725889e+01 5.000000e+00
    endloop
  endfacet
  facet normal 9.709417e-01 -2.393159e-01 0.000000e+00
    outer loop
      vertex -1.800818e+01 -2.725889e+01 8.000000e+00
      vertex -1.800818e+01 -2.725889e+01 5.000000e+00
      vertex -1.755000e+01 -2.540000e+01 5.000000e+00
    endloop
  endfacet
  facet normal 9.709417e-01 -2.393159e-01 0.000000e+00
    outer loop
      vertex -1.755000e+01 -2.540000e+01 8.000000e+00
      vertex -1.800818e+01 -2.725889e+01 8.000000e+00
      vertex -1.755000e+01 -2.540000e+01 5.000000e+00
    endloop
  endfacet
  facet normal 9.709417e-01 2.393159e-01 0.000000e+00
    outer loop
      vertex -1.755000e+01 -2.540000e+01 5.000000e+00
      vertex -1.800818e+01 -2.354111e+01 5.000000e+00
      vertex -1.800818e+01 -2.354111e+01 8.000000e+00
    endloop
  endfacet
  facet normal 9.709417e-01 2.393159e-01 0.000000e+00
    outer loop
      vertex -1.755000e+01 -2.540000e+01 8.000000e+00
      vertex -1.755000e+01 -2.540000e+01 5.000000e+00
      vertex -1.800818e+01 -2.354111e+01 8.000000e+00
    endloop
  endfacet
  facet normal 7.485107e-01 6.631227e-01 0.000000e+00
    outer loop
      vertex -1.800818e+01 -2.354111e+01 5.000000e+00
      vertex -1.927774e+01 -2.210807e+01 5.000000e+00
      vertex -1.927774e+01 -2.210807e+01 8.000000e+00
    endloop
  endfacet
  facet normal 7.485107e-01 6.631227e-01 0.000000e+00
    outer loop
      vertex -1.800818e+01 -2.354111e+01 8.000000e+00
      vertex -1.800818e+01 -2.354111e+01 5.000000e+00
      vertex -1.927774e+01 -2.210807e+01 8.000000e+00
    endloop
  endfacet
  facet normal 3.546051e-01 9.350162e-01 0.000000e+00
    outer loop
      vertex -2.106785e+01 -2.142917e+01 5.000000e+00
      vertex -2.106785e+01 -2.142917e+01 8.000000e+00
      vertex -1.927774e+01 -2.210807e+01 5.000000e+00
    endloop
  endfacet
  facet normal 3.546051e-01 9.350162e-01 0.000000e+00
    outer loop
      vertex -1.927774e+01 -2.210807e+01 5.000000e+00
      vertex -2.106785e+01 -2.142917e+01 8.000000e+00
      vertex -1.927774e+01 -2.210807e+01 8.000000e+00
    endloop
  endfacet
  facet normal -1.205360e-01 9.927090e-01 0.000000e+00
    outer loop
      vertex -2.296842e+01 -2.165994e+01 5.000000e+00
      vertex -2.296842e+01 -2.165994e+01 8.000000e+00
      vertex -2.106785e+01 -2.142917e+01 5.000000e+00
    endloop
  endfacet
  facet normal -1.205360e-01 9.927090e-01 0.000000e+00
    outer loop
      vertex -2.106785e+01 -2.142917e+01 5.000000e+00
      vertex -2.296842e+01 -2.165994e+01 8.000000e+00
      vertex -2.106785e+01 -2.142917e+01 8.000000e+00
    endloop
  endfacet
  facet normal -5.680649e-01 8.229838e-01 0.000000e+00
    outer loop
      vertex -2.454404e+01 -2.274751e+01 5.000000e+00
      vertex -2.454404e+01 -2.274751e+01 8.000000e+00
      vertex -2.296842e+01 -2.165994e+01 5.000000e+00
    endloop
  endfacet
  facet normal -5.680649e-01 8.229838e-01 0.000000e+00
    outer loop
      vertex -2.296842e+01 -2.165994e+01 5.000000e+00
      vertex -2.454404e+01 -2.274751e+01 8.000000e+00
      vertex -2.296842e+01 -2.165994e+01 8.000000e+00
    endloop
  endfacet
  facet normal 1.000000e+00 0.000000e+00 0.000000e+00
    outer loop
      vertex 4.800001e+00 -6.133299e+00 0.000000e+00
      vertex 4.800001e+00 -6.133299e+00 5.000000e+00
      vertex 4.800001e+00 -1.013330e+01 5.000000e+00
    endloop
  endfacet
  facet normal 1.000000e+00 0.000000e+00 0.000000e+00
    outer loop
      vertex 4.800001e+00 -1.013330e+01 0.000000e+00
      vertex 4.800001e+00 -6.133299e+00 0.000000e+00
      vertex 4.800001e+00 -1.013330e+01 5.000000e+00
    endloop
  endfacet
  facet normal 0.000000e+00 -1.000000e+00 0.000000e+00
    outer loop
      vertex 6.799999e+00 -6.133299e+00 0.000000e+00
      vertex 6.799999e+00 -6.133299e+00 5.000000e+00
      vertex 4.800001e+00 -6.133299e+00 5.000000e+00
    endloop
  endfacet
  facet normal -0.000000e+00 -1.000000e+00 -0.000000e+00
    outer loop
      vertex 4.800001e+00 -6.133299e+00 0.000000e+00
      vertex 6.799999e+00 -6.133299e+00 0.000000e+00
      vertex 4.800001e+00 -6.133299e+00 5.000000e+00
    endloop
  endfacet
  facet normal 0.000000e+00 1.000000e+00 0.000000e+00
    outer loop
      vertex 6.799999e+00 -1.013330e+01 5.000000e+00
      vertex 6.799999e+00 -1.013330e+01 0.000000e+00
      vertex 4.800001e+00 -1.013330e+01 5.000000e+00
    endloop
  endfacet
  facet normal 0.000000e+00 1.000000e+00 0.000000e+00
    outer loop
      vertex 4.800001e+00 -1.013330e+01 5.000000e+00
      vertex 6.799999e+00 -1.013330e+01 0.000000e+00
      vertex 4.800001e+00 -1.013330e+01 0.000000e+00
    endloop
  endfacet
  facet normal -1.000000e+00 0.000000e+00 0.000000e+00
    outer loop
      vertex 6.799999e+00 -6.133299e+00 5.000000e+00
      vertex 6.799999e+00 -6.133299e+00 0.000000e+00
      vertex 6.799999e+00 -1.013330e+01 5.000000e+00
    endloop
  endfacet
  facet normal -1.000000e+00 0.000000e+00 0.000000e+00
    outer loop
      vertex 6.799999e+00 -1.013330e+01 5.000000e+00
      vertex 6.799999e+00 -6.133299e+00 0.000000e+00
      vertex 6.799999e+00 -1.013330e+01 0.000000e+00
    endloop
  endfacet
  facet normal 1.000000e+00 0.000000e+00 0.000000e+00
    outer loop
      vertex 4.800001e+00 1.413330e+01 0.000000e+00
      vertex 4.800001e+00 1.413330e+01 5.000000e+00
      vertex 4.800001e+00 1.013330e+01 5.000000e+00
    endloop
  endfacet
  facet normal 1.000000e+00 0.000000e+00 0.000000e+00
    outer loop
      vertex 4.800001e+00 1.013330e+01 0.000000e+00
      vertex 4.800001e+00 1.413330e+01 0.000000e+00
      vertex 4.800001e+00 1.013330e+01 5.000000e+00
    endloop
  endfacet
  facet normal 0.000000e+00 -1.000000e+00 0.000000e+00
    outer loop
      vertex 6.799999e+00 1.413330e+01 0.000000e+00
      vertex 6.799999e+00 1.413330e+01 5.000000e+00
      vertex 4.800001e+00 1.413330e+01 5.000000e+00
    endloop
  endfacet
  facet normal -0.000000e+00 -1.000000e+00 -0.000000e+00
    outer loop
      vertex 4.800001e+00 1.413330e+01 0.000000e+00
      vertex 6.799999e+00 1.413330e+01 0.000000e+00
      vertex 4.800001e+00 1.413330e+01 5.000000e+00
    endloop
  endfacet
  facet normal 0.000000e+00 1.000000e+00 0.000000e+00
    outer loop
      vertex 6.799999e+00 1.013330e+01 5.000000e+00
      vertex 6.799999e+00 1.013330e+01 0.000000e+00
      vertex 4.800001e+00 1.013330e+01 5.000000e+00
    endloop
  endfacet
  facet normal 0.000000e+00 1.000000e+00 0.000000e+00
    outer loop
      vertex 4.800001e+00 1.013330e+01 5.000000e+00
      vertex 6.799999e+00 1.013330e+01 0.000000e+00
      vertex 4.800001e+00 1.013330e+01 0.000000e+00
    endloop
  endfacet
  facet normal -1.000000e+00 0.000000e+00 0.000000e+00
    outer loop
      vertex 6.799999e+00 1.413330e+01 5.000000e+00
      vertex 6.799999e+00 1.413330e+01 0.000000e+00
      vertex 6.799999e+00 1.013330e+01 5.000000e+00
    endloop
  endfacet
  facet normal -1.000000e+00 0.000000e+00 0.000000e+00
    outer loop
      vertex 6.799999e+00 1.013330e+01 5.000000e+00
      vertex 6.799999e+00 1.413330e+01 0.000000e+00
      vertex 6.799999e+00 1.013330e+01 0.000000e+00
    endloop
  endfacet
  facet normal -1.000000e+00 -0.000000e+00 -0.000000e+00
    outer loop
      vertex 1.766620e+01 2.444270e+01 5.000000e+00
      vertex 1.766620e+01 2.444270e+01 8.000000e+00
      vertex 1.766620e+01 2.635730e+01 5.000000e+00
    endloop
  endfacet
  facet normal -1.000000e+00 0.000000e+00 0.000000e+00
    outer loop
      vertex 1.766620e+01 2.635730e+01 5.000000e+00
      vertex 1.766620e+01 2.444270e+01 8.000000e+00
      vertex 1.766620e+01 2.635730e+01 8.000000e+00
    endloop
  endfacet
  facet normal -8.854561e-01 4.647231e-01 0.000000e+00
    outer loop
      vertex 1.766620e+01 2.635730e+01 5.000000e+00
      vertex 1.766620e+01 2.635730e+01 8.000000e+00
      vertex 1.855600e+01 2.805250e+01 5.000000e+00
    endloop
  endfacet
  facet normal -8.854561e-01 4.647231e-01 0.000000e+00
    outer loop
      vertex 1.855600e+01 2.805250e+01 5.000000e+00
      vertex 1.766620e+01 2.635730e+01 8.000000e+00
      vertex 1.855600e+01 2.805250e+01 8.000000e+00
    endloop
  endfacet
  facet normal -8.854561e-01 -4.647231e-01 -0.000000e+00
    outer loop
      vertex 1.766620e+01 2.444270e+01 5.000000e+00
      vertex 1.855600e+01 2.274750e+01 5.000000e+00
      vertex 1.766620e+01 2.444270e+01 8.000000e+00
    endloop
  endfacet
  facet normal -8.854561e-01 -4.647231e-01 0.000000e+00
    outer loop
      vertex 1.766620e+01 2.444270e+01 8.000000e+00
      vertex 1.855600e+01 2.274750e+01 5.000000e+00
      vertex 1.855600e+01 2.274750e+01 8.000000e+00
    endloop
  endfacet
  facet normal -5.680649e-01 -8.229838e-01 0.000000e+00
    outer loop
      vertex 1.855600e+01 2.274750e+01 8.000000e+00
      vertex 1.855600e+01 2.274750e+01 5.000000e+00
      vertex 2.013160e+01 2.165990e+01 5.000000e+00
    endloop
  endfacet
  facet normal -5.680649e-01 -8.229838e-01 0.000000e+00
    outer loop
      vertex 2.013160e+01 2.165990e+01 8.000000e+00
      vertex 1.855600e+01 2.274750e+01 8.000000e+00
      vertex 2.013160e+01 2.165990e+01 5.000000e+00
    endloop
  endfacet
  facet normal -1.205360e-01 -9.927090e-01 0.000000e+00
    outer loop
      vertex 2.013160e+01 2.165990e+01 8.000000e+00
      vertex 2.013160e+01 2.165990e+01 5.000000e+00
      vertex 2.203210e+01 2.142920e+01 5.000000e+00
    endloop
  endfacet
  facet normal -1.205360e-01 -9.927090e-01 0.000000e+00
    outer loop
      vertex 2.203210e+01 2.142920e+01 8.000000e+00
      vertex 2.013160e+01 2.165990e+01 8.000000e+00
      vertex 2.203210e+01 2.142920e+01 5.000000e+00
    endloop
  endfacet
  facet normal 3.546051e-01 -9.350162e-01 0.000000e+00
    outer loop
      vertex 2.203210e+01 2.142920e+01 8.000000e+00
      vertex 2.203210e+01 2.142920e+01 5.000000e+00
      vertex 2.382230e+01 2.210810e+01 5.000000e+00
    endloop
  endfacet
  facet normal 3.546051e-01 -9.350162e-01 0.000000e+00
    outer loop
      vertex 2.382230e+01 2.210810e+01 8.000000e+00
      vertex 2.203210e+01 2.142920e+01 8.000000e+00
      vertex 2.382230e+01 2.210810e+01 5.000000e+00
    endloop
  endfacet
  facet normal 7.485107e-01 -6.631227e-01 0.000000e+00
    outer loop
      vertex 2.382230e+01 2.210810e+01 8.000000e+00
      vertex 2.382230e+01 2.210810e+01 5.000000e+00
      vertex 2.509180e+01 2.354110e+01 5.000000e+00
    endloop
  endfacet
  facet normal 7.485107e-01 -6.631227e-01 0.000000e+00
    outer loop
      vertex 2.509180e+01 2.354110e+01 8.000000e+00
      vertex 2.382230e+01 2.210810e+01 8.000000e+00
      vertex 2.509180e+01 2.354110e+01 5.000000e+00
    endloop
  endfacet
  facet normal 9.709417e-01 -2.393159e-01 0.000000e+00
    outer loop
      vertex 2.509180e+01 2.354110e+01 8.000000e+00
      vertex 2.509180e+01 2.354110e+01 5.000000e+00
      vertex 2.555000e+01 2.540000e+01 5.000000e+00
    endloop
  endfacet
  facet normal 9.709417e-01 -2.393159e-01 0.000000e+00
    outer loop
      vertex 2.555000e+01 2.540000e+01 8.000000e+00
      vertex 2.509180e+01 2.354110e+01 8.000000e+00
      vertex 2.555000e+01 2.540000e+01 5.000000e+00
    endloop
  endfacet
  facet normal 9.709417e-01 2.393159e-01 0.000000e+00
    outer loop
      vertex 2.555000e+01 2.540000e+01 5.000000e+00
      vertex 2.509180e+01 2.725890e+01 5.000000e+00
      vertex 2.509180e+01 2.725890e+01 8.000000e+00
    endloop
  endfacet
  facet normal 9.709417e-01 2.393159e-01 0.000000e+00
    outer loop
      vertex 2.555000e+01 2.540000e+01 8.000000e+00
      vertex 2.555000e+01 2.540000e+01 5.000000e+00
      vertex 2.509180e+01 2.725890e+01 8.000000e+00
    endloop
  endfacet
  facet normal 7.485107e-01 6.631227e-01 0.000000e+00
    outer loop
      vertex 2.509180e+01 2.725890e+01 5.000000e+00
      vertex 2.382230e+01 2.869190e+01 5.000000e+00
      vertex 2.382230e+01 2.869190e+01 8.000000e+00
    endloop
  endfacet
  facet normal 7.485107e-01 6.631227e-01 0.000000e+00
    outer loop
      vertex 2.509180e+01 2.725890e+01 8.000000e+00
      vertex 2.509180e+01 2.725890e+01 5.000000e+00
      vertex 2.382230e+01 2.869190e+01 8.000000e+00
    endloop
  endfacet
  facet normal 3.546051e-01 9.350162e-01 0.000000e+00
    outer loop
      vertex 2.203210e+01 2.937080e+01 5.000000e+00
      vertex 2.203210e+01 2.937080e+01 8.000000e+00
      vertex 2.382230e+01 2.869190e+01 5.000000e+00
    endloop
  endfacet
  facet normal 3.546051e-01 9.350162e-01 0.000000e+00
    outer loop
      vertex 2.382230e+01 2.869190e+01 5.000000e+00
      vertex 2.203210e+01 2.937080e+01 8.000000e+00
      vertex 2.382230e+01 2.869190e+01 8.000000e+00
    endloop
  endfacet
  facet normal -1.205360e-01 9.927090e-01 0.000000e+00
    outer loop
      vertex 2.013160e+01 2.914010e+01 5.000000e+00
      vertex 2.013160e+01 2.914010e+01 8.000000e+00
      vertex 2.203210e+01 2.937080e+01 5.000000e+00
    endloop
  endfacet
  facet normal -1.205360e-01 9.927090e-01 0.000000e+00
    outer loop
      vertex 2.203210e+01 2.937080e+01 5.000000e+00
      vertex 2.013160e+01 2.914010e+01 8.000000e+00
      vertex 2.203210e+01 2.937080e+01 8.000000e+00
    endloop
  endfacet
  facet normal -5.680649e-01 8.229838e-01 0.000000e+00
    outer loop
      vertex 1.855600e+01 2.805250e+01 5.000000e+00
      vertex 1.855600e+01 2.805250e+01 8.000000e+00
      vertex 2.013160e+01 2.914010e+01 5.000000e+00
    endloop
  endfacet
  facet normal -5.680649e-01 8.229838e-01 0.000000e+00
    outer loop
      vertex 2.013160e+01 2.914010e+01 5.000000e+00
      vertex 1.855600e+01 2.805250e+01 8.000000e+00
      vertex 2.013160e+01 2.914010e+01 8.000000e+00
    endloop
  endfacet
  facet normal 1.000000e+00 0.000000e+00 0.000000e+00
    outer loop
      vertex 1.974810e+01 2.626780e+01 0.000000e+00
      vertex 1.974810e+01 2.626780e+01 8.000000e+00
      vertex 1.974810e+01 2.453220e+01 8.000000e+00
    endloop
  endfacet
  facet normal 1.000000e+00 0.000000e+00 0.000000e+00
    outer loop
      vertex 1.974810e+01 2.453220e+01 0.000000e+00
      vertex 1.974810e+01 2.626780e+01 0.000000e+00
      vertex 1.974810e+01 2.453220e+01 8.000000e+00
    endloop
  endfacet
  facet normal 6.234901e-01 -7.818312e-01 0.000000e+00
    outer loop
      vertex 2.110500e+01 2.734990e+01 0.000000e+00
      vertex 2.110500e+01 2.734990e+01 8.000000e+00
      vertex 1.974810e+01 2.626780e+01 8.000000e+00
    endloop
  endfacet
  facet normal 6.234901e-01 -7.818312e-01 0.000000e+00
    outer loop
      vertex 1.974810e+01 2.626780e+01 0.000000e+00
      vertex 2.110500e+01 2.734990e+01 0.000000e+00
      vertex 1.974810e+01 2.626780e+01 8.000000e+00
    endloop
  endfacet
  facet normal -2.225210e-01 -9.749279e-01 -0.000000e+00
    outer loop
      vertex 2.279700e+01 2.696370e+01 0.000000e+00
      vertex 2.279700e+01 2.696370e+01 8.000000e+00
      vertex 2.110500e+01 2.734990e+01 8.000000e+00
    endloop
  endfacet
  facet normal -2.225210e-01 -9.749279e-01 -0.000000e+00
    outer loop
      vertex 2.110500e+01 2.734990e+01 0.000000e+00
      vertex 2.279700e+01 2.696370e+01 0.000000e+00
      vertex 2.110500e+01 2.734990e+01 8.000000e+00
    endloop
  endfacet
  facet normal -9.009688e-01 -4.338839e-01 0.000000e+00
    outer loop
      vertex 2.355000e+01 2.540000e+01 8.000000e+00
      vertex 2.279700e+01 2.696370e+01 8.000000e+00
      vertex 2.355000e+01 2.540000e+01 0.000000e+00
    endloop
  endfacet
  facet normal -9.009688e-01 -4.338839e-01 0.000000e+00
    outer loop
      vertex 2.355000e+01 2.540000e+01 0.000000e+00
      vertex 2.279700e+01 2.696370e+01 8.000000e+00
      vertex 2.279700e+01 2.696370e+01 0.000000e+00
    endloop
  endfacet
  facet normal -9.009688e-01 4.338839e-01 0.000000e+00
    outer loop
      vertex 2.355000e+01 2.540000e+01 8.000000e+00
      vertex 2.355000e+01 2.540000e+01 0.000000e+00
      vertex 2.279700e+01 2.383630e+01 8.000000e+00
    endloop
  endfacet
  facet normal -9.009688e-01 4.338839e-01 0.000000e+00
    outer loop
      vertex 2.279700e+01 2.383630e+01 8.000000e+00
      vertex 2.355000e+01 2.540000e+01 0.000000e+00
      vertex 2.279700e+01 2.383630e+01 0.000000e+00
    endloop
  endfacet
  facet normal -2.225210e-01 9.749279e-01 0.000000e+00
    outer loop
      vertex 2.279700e+01 2.383630e+01 8.000000e+00
      vertex 2.279700e+01 2.383630e+01 0.000000e+00
      vertex 2.110500e+01 2.345010e+01 8.000000e+00
    endloop
  endfacet
  facet normal -2.225210e-01 9.749279e-01 0.000000e+00
    outer loop
      vertex 2.110500e+01 2.345010e+01 8.000000e+00
      vertex 2.279700e+01 2.383630e+01 0.000000e+00
      vertex 2.110500e+01 2.345010e+01 0.000000e+00
    endloop
  endfacet
  facet normal 6.234901e-01 7.818312e-01 0.000000e+00
    outer loop
      vertex 2.110500e+01 2.345010e+01 8.000000e+00
      vertex 2.110500e+01 2.345010e+01 0.000000e+00
      vertex 1.974810e+01 2.453220e+01 8.000000e+00
    endloop
  endfacet
  facet normal 6.234901e-01 7.818312e-01 0.000000e+00
    outer loop
      vertex 1.974810e+01 2.453220e+01 8.000000e+00
      vertex 2.110500e+01 2.345010e+01 0.000000e+00
      vertex 1.974810e+01 2.453220e+01 0.000000e+00
    endloop
  endfacet
  facet normal 0.000000e+00 0.000000e+00 1.000000e+00
    outer loop
      vertex -2.543377e+01 -2.444274e+01 8.000000e+00
      vertex -2.543377e+01 -2.635726e+01 8.000000e+00
      vertex -2.454404e+01 -2.805249e+01 8.000000e+00
    endloop
  endfacet
  facet normal 0.000000e+00 0.000000e+00 1.000000e+00
    outer loop
      vertex -2.106785e+01 -2.937083e+01 8.000000e+00
      vertex -2.543377e+01 -2.444274e+01 8.000000e+00
      vertex -2.296842e+01 -2.914006e+01 8.000000e+00
    endloop
  endfacet
  facet normal 0.000000e+00 0.000000e+00 1.000000e+00
    outer loop
      vertex -2.296842e+01 -2.914006e+01 8.000000e+00
      vertex -2.543377e+01 -2.444274e+01 8.000000e+00
      vertex -2.454404e+01 -2.805249e+01 8.000000e+00
    endloop
  endfacet
  facet normal 0.000000e+00 0.000000e+00 1.000000e+00
    outer loop
      vertex -2.335194e+01 -2.626777e+01 8.000000e+00
      vertex -2.543377e+01 -2.444274e+01 8.000000e+00
      vertex -2.106785e+01 -2.937083e+01 8.000000e+00
    endloop
  endfacet
  facet normal 0.000000e+00 0.000000e+00 1.000000e+00
    outer loop
      vertex -2.335194e+01 -2.453223e+01 8.000000e+00
      vertex -2.199504e+01 -2.345014e+01 8.000000e+00
      vertex -2.543377e+01 -2.444274e+01 8.000000e+00
    endloop
  endfacet
  facet normal 0.000000e+00 0.000000e+00 1.000000e+00
    outer loop
      vertex -2.199504e+01 -2.345014e+01 8.000000e+00
      vertex -2.030302e+01 -2.383634e+01 8.000000e+00
      vertex -1.800818e+01 -2.354111e+01 8.000000e+00
    endloop
  endfacet
  facet normal 0.000000e+00 0.000000e+00 1.000000e+00
    outer loop
      vertex -2.106785e+01 -2.142917e+01 8.000000e+00
      vertex -2.543377e+01 -2.444274e+01 8.000000e+00
      vertex -1.927774e+01 -2.210807e+01 8.000000e+00
    endloop
  endfacet
  facet normal 0.000000e+00 0.000000e+00 1.000000e+00
    outer loop
      vertex -2.296842e+01 -2.165994e+01 8.000000e+00
      vertex -2.543377e+01 -2.444274e+01 8.000000e+00
      vertex -2.106785e+01 -2.142917e+01 8.000000e+00
    endloop
  endfacet
  facet normal 0.000000e+00 0.000000e+00 1.000000e+00
    outer loop
      vertex -2.454404e+01 -2.274751e+01 8.000000e+00
      vertex -2.543377e+01 -2.444274e+01 8.000000e+00
      vertex -2.296842e+01 -2.165994e+01 8.000000e+00
    endloop
  endfacet
  facet normal 0.000000e+00 0.000000e+00 1.000000e+00
    outer loop
      vertex -2.199504e+01 -2.734986e+01 8.000000e+00
      vertex -2.335194e+01 -2.626777e+01 8.000000e+00
      vertex -2.106785e+01 -2.937083e+01 8.000000e+00
    endloop
  endfacet
  facet normal 0.000000e+00 0.000000e+00 1.000000e+00
    outer loop
      vertex -1.955000e+01 -2.540000e+01 8.000000e+00
      vertex -2.030302e+01 -2.696366e+01 8.000000e+00
      vertex -1.800818e+01 -2.725889e+01 8.000000e+00
    endloop
  endfacet
  facet normal 0.000000e+00 0.000000e+00 1.000000e+00
    outer loop
      vertex -2.030302e+01 -2.383634e+01 8.000000e+00
      vertex -1.955000e+01 -2.540000e+01 8.000000e+00
      vertex -1.755000e+01 -2.540000e+01 8.000000e+00
    endloop
  endfacet
  facet normal 0.000000e+00 0.000000e+00 1.000000e+00
    outer loop
      vertex -1.927774e+01 -2.210807e+01 8.000000e+00
      vertex -2.199504e+01 -2.345014e+01 8.000000e+00
      vertex -1.800818e+01 -2.354111e+01 8.000000e+00
    endloop
  endfacet
  facet normal 0.000000e+00 0.000000e+00 1.000000e+00
    outer loop
      vertex -1.927774e+01 -2.210807e+01 8.000000e+00
      vertex -2.543377e+01 -2.444274e+01 8.000000e+00
      vertex -2.199504e+01 -2.345014e+01 8.000000e+00
    endloop
  endfacet
  facet normal 0.000000e+00 0.000000e+00 1.000000e+00
    outer loop
      vertex -2.030302e+01 -2.696366e+01 8.000000e+00
      vertex -2.199504e+01 -2.734986e+01 8.000000e+00
      vertex -1.927774e+01 -2.869194e+01 8.000000e+00
    endloop
  endfacet
  facet normal 0.000000e+00 0.000000e+00 1.000000e+00
    outer loop
      vertex -2.030302e+01 -2.383634e+01 8.000000e+00
      vertex -1.755000e+01 -2.540000e+01 8.000000e+00
      vertex -1.800818e+01 -2.354111e+01 8.000000e+00
    endloop
  endfacet
  facet normal 0.000000e+00 0.000000e+00 1.000000e+00
    outer loop
      vertex -1.755000e+01 -2.540000e+01 8.000000e+00
      vertex -1.955000e+01 -2.540000e+01 8.000000e+00
      vertex -1.800818e+01 -2.725889e+01 8.000000e+00
    endloop
  endfacet
  facet normal 0.000000e+00 0.000000e+00 1.000000e+00
    outer loop
      vertex -1.800818e+01 -2.725889e+01 8.000000e+00
      vertex -2.030302e+01 -2.696366e+01 8.000000e+00
      vertex -1.927774e+01 -2.869194e+01 8.000000e+00
    endloop
  endfacet
  facet normal 0.000000e+00 0.000000e+00 1.000000e+00
    outer loop
      vertex -1.927774e+01 -2.869194e+01 8.000000e+00
      vertex -2.199504e+01 -2.734986e+01 8.000000e+00
      vertex -2.106785e+01 -2.937083e+01 8.000000e+00
    endloop
  endfacet
  facet normal 0.000000e+00 0.000000e+00 1.000000e+00
    outer loop
      vertex -2.335194e+01 -2.626777e+01 8.000000e+00
      vertex -2.335194e+01 -2.453223e+01 8.000000e+00
      vertex -2.543377e+01 -2.444274e+01 8.000000e+00
    endloop
  endfacet
  facet normal 0.000000e+00 0.000000e+00 1.000000e+00
    outer loop
      vertex 1.766620e+01 2.635730e+01 8.000000e+00
      vertex 1.766620e+01 2.444270e+01 8.000000e+00
      vertex 1.855600e+01 2.274750e+01 8.000000e+00
    endloop
  endfacet
  facet normal 0.000000e+00 0.000000e+00 1.000000e+00
    outer loop
      vertex 2.203210e+01 2.142920e+01 8.000000e+00
      vertex 1.766620e+01 2.635730e+01 8.000000e+00
      vertex 2.013160e+01 2.165990e+01 8.000000e+00
    endloop
  endfacet
  facet normal 0.000000e+00 0.000000e+00 1.000000e+00
    outer loop
      vertex 2.013160e+01 2.165990e+01 8.000000e+00
      vertex 1.766620e+01 2.635730e+01 8.000000e+00
      vertex 1.855600e+01 2.274750e+01 8.000000e+00
    endloop
  endfacet
  facet normal 0.000000e+00 0.000000e+00 1.000000e+00
    outer loop
      vertex 1.974810e+01 2.453220e+01 8.000000e+00
      vertex 1.766620e+01 2.635730e+01 8.000000e+00
      vertex 2.203210e+01 2.142920e+01 8.000000e+00
    endloop
  endfacet
  facet normal 0.000000e+00 0.000000e+00 1.000000e+00
    outer loop
      vertex 1.974810e+01 2.626780e+01 8.000000e+00
      vertex 2.110500e+01 2.734990e+01 8.000000e+00
      vertex 1.766620e+01 2.635730e+01 8.000000e+00
    endloop
  endfacet
  facet normal 0.000000e+00 0.000000e+00 1.000000e+00
    outer loop
      vertex 2.110500e+01 2.734990e+01 8.000000e+00
      vertex 2.279700e+01 2.696370e+01 8.000000e+00
      vertex 2.509180e+01 2.725890e+01 8.000000e+00
    endloop
  endfacet
  facet normal 0.000000e+00 0.000000e+00 1.000000e+00
    outer loop
      vertex 2.203210e+01 2.937080e+01 8.000000e+00
      vertex 1.766620e+01 2.635730e+01 8.000000e+00
      vertex 2.382230e+01 2.869190e+01 8.000000e+00
    endloop
  endfacet
  facet normal 0.000000e+00 0.000000e+00 1.000000e+00
    outer loop
      vertex 2.013160e+01 2.914010e+01 8.000000e+00
      vertex 1.766620e+01 2.635730e+01 8.000000e+00
      vertex 2.203210e+01 2.937080e+01 8.000000e+00
    endloop
  endfacet
  facet normal 0.000000e+00 0.000000e+00 1.000000e+00
    outer loop
      vertex 1.855600e+01 2.805250e+01 8.000000e+00
      vertex 1.766620e+01 2.635730e+01 8.000000e+00
      vertex 2.013160e+01 2.914010e+01 8.000000e+00
    endloop
  endfacet
  facet normal 0.000000e+00 0.000000e+00 1.000000e+00
    outer loop
      vertex 2.110500e+01 2.345010e+01 8.000000e+00
      vertex 1.974810e+01 2.453220e+01 8.000000e+00
      vertex 2.203210e+01 2.142920e+01 8.000000e+00
    endloop
  endfacet
  facet normal 0.000000e+00 0.000000e+00 1.000000e+00
    outer loop
      vertex 2.355000e+01 2.540000e+01 8.000000e+00
      vertex 2.279700e+01 2.383630e+01 8.000000e+00
      vertex 2.509180e+01 2.354110e+01 8.000000e+00
    endloop
  endfacet
  facet normal 0.000000e+00 0.000000e+00 1.000000e+00
    outer loop
      vertex 2.279700e+01 2.696370e+01 8.000000e+00
      vertex 2.355000e+01 2.540000e+01 8.000000e+00
      vertex 2.555000e+01 2.540000e+01 8.000000e+00
    endloop
  endfacet
  facet normal 0.000000e+00 0.000000e+00 1.000000e+00
    outer loop
      vertex 2.382230e+01 2.869190e+01 8.000000e+00
      vertex 2.110500e+01 2.734990e+01 8.000000e+00
      vertex 2.509180e+01 2.725890e+01 8.000000e+00
    endloop
  endfacet
  facet normal 0.000000e+00 0.000000e+00 1.000000e+00
    outer loop
      vertex 2.382230e+01 2.869190e+01 8.000000e+00
      vertex 1.766620e+01 2.635730e+01 8.000000e+00
      vertex 2.110500e+01 2.734990e+01 8.000000e+00
    endloop
  endfacet
  facet normal 0.000000e+00 0.000000e+00 1.000000e+00
    outer loop
      vertex 2.279700e+01 2.383630e+01 8.000000e+00
      vertex 2.110500e+01 2.345010e+01 8.000000e+00
      vertex 2.382230e+01 2.210810e+01 8.000000e+00
    endloop
  endfacet
  facet normal 0.000000e+00 0.000000e+00 1.000000e+00
    outer loop
      vertex 2.279700e+01 2.696370e+01 8.000000e+00
      vertex 2.555000e+01 2.540000e+01 8.000000e+00
      vertex 2.509180e+01 2.725890e+01 8.000000e+00
    endloop
  endfacet
  facet normal 0.000000e+00 0.000000e+00 1.000000e+00
    outer loop
      vertex 2.555000e+01 2.540000e+01 8.000000e+00
      vertex 2.355000e+01 2.540000e+01 8.000000e+00
      vertex 2.509180e+01 2.354110e+01 8.000000e+00
    endloop
  endfacet
  facet normal 0.000000e+00 0.000000e+00 1.000000e+00
    outer loop
      vertex 2.509180e+01 2.354110e+01 8.000000e+00
      vertex 2.279700e+01 2.383630e+01 8.000000e+00
      vertex 2.382230e+01 2.210810e+01 8.000000e+00
    endloop
  endfacet
  facet normal 0.000000e+00 0.000000e+00 1.000000e+00
    outer loop
      vertex 2.382230e+01 2.210810e+01 8.000000e+00
      vertex 2.110500e+01 2.345010e+01 8.000000e+00
      vertex 2.203210e+01 2.142920e+01 8.000000e+00
    endloop
  endfacet
  facet normal 0.000000e+00 0.000000e+00 1.000000e+00
    outer loop
      vertex 1.974810e+01 2.453220e+01 8.000000e+00
      vertex 1.974810e+01 2.626780e+01 8.000000e+00
      vertex 1.766620e+01 2.635730e+01 8.000000e+00
    endloop
  endfacet
endsolid Default
