solid OpenSCAD_Model
  facet normal -0 -0 -1
    outer loop
      vertex -7.13294 -17.4804 0
      vertex -7.13294 17.4804 0
      vertex -6.60392 -19.3685 0
    endloop
  endfacet
  facet normal 0 0 -1
    outer loop
      vertex -6.60392 -19.3685 0
      vertex -7.13294 17.4804 0
      vertex -6.60392 19.3685 0
    endloop
  endfacet
  facet normal 0 -0 -1
    outer loop
      vertex -6.60392 -19.3685 0
      vertex -6.60392 19.3685 0
      vertex -5.58512 21.0438 0
    endloop
  endfacet
  facet normal 0 0 -1
    outer loop
      vertex -6.60392 -19.3685 0
      vertex -5.58512 21.0438 0
      vertex -4.1521 22.3822 0
    endloop
  endfacet
  facet normal 0 0 -1
    outer loop
      vertex -6.60392 -19.3685 0
      vertex -4.1521 22.3822 0
      vertex -2.41113 23.2843 0
    endloop
  endfacet
  facet normal 0 0 -1
    outer loop
      vertex -6.60392 -19.3685 0
      vertex -2.41113 23.2843 0
      vertex -0.491345 23.6832 0
    endloop
  endfacet
  facet normal 0 0 -1
    outer loop
      vertex -6.60392 -19.3685 0
      vertex -0.491345 23.6832 0
      vertex 1.46488 23.5494 0
    endloop
  endfacet
  facet normal 0 0 -1
    outer loop
      vertex -6.60392 -19.3685 0
      vertex 1.46488 23.5494 0
      vertex 3.31247 22.8928 0
    endloop
  endfacet
  facet normal 0 0 -1
    outer loop
      vertex -6.60392 -19.3685 0
      vertex 3.31247 22.8928 0
      vertex 4.91438 21.762 0
    endloop
  endfacet
  facet normal 0 0 -1
    outer loop
      vertex -6.60392 -19.3685 0
      vertex 4.91438 21.762 0
      vertex 6.15182 20.241 0
    endloop
  endfacet
  facet normal 0 0 -1
    outer loop
      vertex -6.60392 -19.3685 0
      vertex 6.15182 20.241 0
      vertex 6.933 18.4425 0
    endloop
  endfacet
  facet normal 0 0 -1
    outer loop
      vertex -6.60392 -19.3685 0
      vertex 6.933 18.4425 0
      vertex 7.2 16.5 0
    endloop
  endfacet
  facet normal 0 0 -1
    outer loop
      vertex -6.60392 -19.3685 0
      vertex 7.2 16.5 0
      vertex 7.2 12.4708 0
    endloop
  endfacet
  facet normal 0 0 -1
    outer loop
      vertex -6.60392 -19.3685 0
      vertex 7.2 12.4708 0
      vertex 26.8687 23.8265 0
    endloop
  endfacet
  facet normal 0 -0 -1
    outer loop
      vertex 26.8708 7.2 0
      vertex 26.8687 23.8265 0
      vertex 34.0687 11.3557 0
    endloop
  endfacet
  facet normal 0 0 -1
    outer loop
      vertex -6.60392 -19.3685 0
      vertex 26.8687 23.8265 0
      vertex 26.8708 7.2 0
    endloop
  endfacet
  facet normal -0 0 -1
    outer loop
      vertex 26.8708 -7.2 0
      vertex 35.1822 7.2 0
      vertex 35.1822 -7.2 0
    endloop
  endfacet
  facet normal 0 0 -1
    outer loop
      vertex 7.2 -12.4708 0
      vertex 35.1822 7.2 0
      vertex 26.8708 -7.2 0
    endloop
  endfacet
  facet normal 0 -0 -1
    outer loop
      vertex 6.933 -18.4425 0
      vertex -6.60392 -19.3685 0
      vertex 7.2 -16.5 0
    endloop
  endfacet
  facet normal 0 0 -1
    outer loop
      vertex 7.2 -12.4708 0
      vertex 26.8708 -7.2 0
      vertex 34.0687 -11.3557 0
    endloop
  endfacet
  facet normal 0 0 -1
    outer loop
      vertex -6.60392 -19.3685 0
      vertex 35.1822 7.2 0
      vertex 7.2 -12.4708 0
    endloop
  endfacet
  facet normal 0 -0 -1
    outer loop
      vertex 4.91438 -21.762 0
      vertex -6.60392 -19.3685 0
      vertex 6.15182 -20.241 0
    endloop
  endfacet
  facet normal -0 0 -1
    outer loop
      vertex 7.2 -12.4708 0
      vertex 34.0687 -11.3557 0
      vertex 26.8687 -23.8265 0
    endloop
  endfacet
  facet normal -0 0 -1
    outer loop
      vertex -6.60392 -19.3685 0
      vertex 6.933 -18.4425 0
      vertex 6.15182 -20.241 0
    endloop
  endfacet
  facet normal 0 0 -1
    outer loop
      vertex -6.60392 -19.3685 0
      vertex 4.91438 -21.762 0
      vertex 3.31247 -22.8928 0
    endloop
  endfacet
  facet normal 0 0 -1
    outer loop
      vertex -6.60392 -19.3685 0
      vertex 3.31247 -22.8928 0
      vertex 1.46488 -23.5494 0
    endloop
  endfacet
  facet normal 0 0 -1
    outer loop
      vertex -6.60392 -19.3685 0
      vertex 1.46488 -23.5494 0
      vertex -0.491345 -23.6832 0
    endloop
  endfacet
  facet normal 0 0 -1
    outer loop
      vertex -6.60392 -19.3685 0
      vertex -0.491345 -23.6832 0
      vertex -2.41113 -23.2843 0
    endloop
  endfacet
  facet normal 0 0 -1
    outer loop
      vertex -6.60392 -19.3685 0
      vertex -2.41113 -23.2843 0
      vertex -4.1521 -22.3822 0
    endloop
  endfacet
  facet normal 0 0 -1
    outer loop
      vertex -6.60392 -19.3685 0
      vertex -4.1521 -22.3822 0
      vertex -5.58512 -21.0438 0
    endloop
  endfacet
  facet normal 0 0 -1
    outer loop
      vertex 35.1822 7.2 0
      vertex -6.60392 -19.3685 0
      vertex 26.8708 7.2 0
    endloop
  endfacet
  facet normal 0 0 -1
    outer loop
      vertex 7.2 -16.5 0
      vertex -6.60392 -19.3685 0
      vertex 7.2 -12.4708 0
    endloop
  endfacet
  facet normal -1 -0 -0
    outer loop
      vertex -7.13294 -17.4804 0
      vertex -7.13294 -17.4804 14.4
      vertex -7.13294 17.4804 0
    endloop
  endfacet
  facet normal -1 0 0
    outer loop
      vertex -7.13294 17.4804 0
      vertex -7.13294 -17.4804 14.4
      vertex -7.13294 17.4804 14.4
    endloop
  endfacet
  facet normal -0.962917 -0.269797 -0
    outer loop
      vertex -7.13294 -17.4804 0
      vertex -6.60392 -19.3685 0
      vertex -7.13294 -17.4804 14.4
    endloop
  endfacet
  facet normal -0.962917 -0.269797 0
    outer loop
      vertex -7.13294 -17.4804 14.4
      vertex -6.60392 -19.3685 0
      vertex -6.60392 -19.3685 14.4
    endloop
  endfacet
  facet normal -0.854419 -0.519584 -0
    outer loop
      vertex -6.60392 -19.3685 0
      vertex -5.58512 -21.0438 0
      vertex -6.60392 -19.3685 14.4
    endloop
  endfacet
  facet normal -0.854419 -0.519584 0
    outer loop
      vertex -6.60392 -19.3685 14.4
      vertex -5.58512 -21.0438 0
      vertex -5.58512 -21.0438 14.4
    endloop
  endfacet
  facet normal -0.682553 -0.730836 0
    outer loop
      vertex -5.58512 -21.0438 14.4
      vertex -5.58512 -21.0438 0
      vertex -4.1521 -22.3822 0
    endloop
  endfacet
  facet normal -0.682553 -0.730836 0
    outer loop
      vertex -4.1521 -22.3822 14.4
      vertex -5.58512 -21.0438 14.4
      vertex -4.1521 -22.3822 0
    endloop
  endfacet
  facet normal -0.460065 -0.887885 0
    outer loop
      vertex -4.1521 -22.3822 14.4
      vertex -4.1521 -22.3822 0
      vertex -2.41113 -23.2843 0
    endloop
  endfacet
  facet normal -0.460065 -0.887885 0
    outer loop
      vertex -2.41113 -23.2843 14.4
      vertex -4.1521 -22.3822 14.4
      vertex -2.41113 -23.2843 0
    endloop
  endfacet
  facet normal -0.203456 -0.979084 0
    outer loop
      vertex -2.41113 -23.2843 14.4
      vertex -2.41113 -23.2843 0
      vertex -0.491345 -23.6832 0
    endloop
  endfacet
  facet normal -0.203456 -0.979084 0
    outer loop
      vertex -0.491345 -23.6832 14.4
      vertex -2.41113 -23.2843 14.4
      vertex -0.491345 -23.6832 0
    endloop
  endfacet
  facet normal 0.0682426 -0.997669 0
    outer loop
      vertex -0.491345 -23.6832 14.4
      vertex -0.491345 -23.6832 0
      vertex 1.46488 -23.5494 0
    endloop
  endfacet
  facet normal 0.0682426 -0.997669 0
    outer loop
      vertex 1.46488 -23.5494 14.4
      vertex -0.491345 -23.6832 14.4
      vertex 1.46488 -23.5494 0
    endloop
  endfacet
  facet normal 0.334879 -0.942261 0
    outer loop
      vertex 1.46488 -23.5494 14.4
      vertex 1.46488 -23.5494 0
      vertex 3.31247 -22.8928 0
    endloop
  endfacet
  facet normal 0.334879 -0.942261 0
    outer loop
      vertex 3.31247 -22.8928 14.4
      vertex 1.46488 -23.5494 14.4
      vertex 3.31247 -22.8928 0
    endloop
  endfacet
  facet normal 0.57668 -0.81697 0
    outer loop
      vertex 3.31247 -22.8928 14.4
      vertex 3.31247 -22.8928 0
      vertex 4.91438 -21.762 0
    endloop
  endfacet
  facet normal 0.57668 -0.81697 0
    outer loop
      vertex 4.91438 -21.762 14.4
      vertex 3.31247 -22.8928 14.4
      vertex 4.91438 -21.762 0
    endloop
  endfacet
  facet normal 0.775711 -0.631088 0
    outer loop
      vertex 4.91438 -21.762 14.4
      vertex 4.91438 -21.762 0
      vertex 6.15182 -20.241 0
    endloop
  endfacet
  facet normal 0.775711 -0.631088 0
    outer loop
      vertex 6.15182 -20.241 14.4
      vertex 4.91438 -21.762 14.4
      vertex 6.15182 -20.241 0
    endloop
  endfacet
  facet normal 0.917211 -0.398401 0
    outer loop
      vertex 6.15182 -20.241 14.4
      vertex 6.15182 -20.241 0
      vertex 6.933 -18.4425 0
    endloop
  endfacet
  facet normal 0.917211 -0.398401 0
    outer loop
      vertex 6.933 -18.4425 14.4
      vertex 6.15182 -20.241 14.4
      vertex 6.933 -18.4425 0
    endloop
  endfacet
  facet normal 0.990686 -0.136167 0
    outer loop
      vertex 6.933 -18.4425 14.4
      vertex 6.933 -18.4425 0
      vertex 7.2 -16.5 0
    endloop
  endfacet
  facet normal 0.990686 -0.136167 0
    outer loop
      vertex 7.2 -16.5 14.4
      vertex 6.933 -18.4425 14.4
      vertex 7.2 -16.5 0
    endloop
  endfacet
  facet normal 1 0 -0
    outer loop
      vertex 7.2 -16.5 14.4
      vertex 7.2 -16.5 0
      vertex 7.2 -12.4708 0
    endloop
  endfacet
  facet normal 1 0 0
    outer loop
      vertex 7.2 -12.4708 14.4
      vertex 7.2 -16.5 14.4
      vertex 7.2 -12.4708 0
    endloop
  endfacet
  facet normal -0.5 -0.866025 0
    outer loop
      vertex 7.2 -12.4708 14.4
      vertex 7.2 -12.4708 0
      vertex 26.8687 -23.8265 0
    endloop
  endfacet
  facet normal -0.5 -0.866025 0
    outer loop
      vertex 26.8687 -23.8265 14.4
      vertex 7.2 -12.4708 14.4
      vertex 26.8687 -23.8265 0
    endloop
  endfacet
  facet normal 0.866025 -0.5 -2.16319e-16
    outer loop
      vertex 30.4687 -17.5911 2.4
      vertex 26.8687 -23.8265 0
      vertex 34.0687 -11.3557 0
    endloop
  endfacet
  facet normal 0.866025 -0.5 0
    outer loop
      vertex 26.8687 -23.8265 14.4
      vertex 26.8687 -23.8265 0
      vertex 28.2514 -21.4316 5.36312
    endloop
  endfacet
  facet normal 0.866025 -0.5 -1.42038e-15
    outer loop
      vertex 31.3871 -16.0003 2.76538
      vertex 30.4687 -17.5911 2.4
      vertex 34.0687 -11.3557 0
    endloop
  endfacet
  facet normal 0.866025 -0.5 2.28929e-15
    outer loop
      vertex 26.8687 -23.8265 14.4
      vertex 28.2514 -21.4316 5.36312
      vertex 28.0687 -21.748 7.2
    endloop
  endfacet
  facet normal 0.866025 -0.5 1.52427e-15
    outer loop
      vertex 30.4687 -17.5911 12
      vertex 31.3871 -16.0003 11.6346
      vertex 34.0687 -11.3557 14.4
    endloop
  endfacet
  facet normal 0.866025 -0.5 -4.57339e-16
    outer loop
      vertex 26.8687 -23.8265 14.4
      vertex 28.0687 -21.748 7.2
      vertex 28.2514 -21.4316 9.03688
    endloop
  endfacet
  facet normal 0.866025 -0.5 -3.07005e-16
    outer loop
      vertex 29.5503 -19.1819 11.6346
      vertex 26.8687 -23.8265 14.4
      vertex 28.7716 -20.5305 10.5941
    endloop
  endfacet
  facet normal 0.866025 -0.5 7.42269e-16
    outer loop
      vertex 34.0687 -11.3557 14.4
      vertex 26.8687 -23.8265 14.4
      vertex 29.5503 -19.1819 11.6346
    endloop
  endfacet
  facet normal 0.866025 -0.5 -5.89434e-15
    outer loop
      vertex 34.0687 -11.3557 14.4
      vertex 29.5503 -19.1819 11.6346
      vertex 30.4687 -17.5911 12
    endloop
  endfacet
  facet normal 0.866025 -0.5 -8.67433e-16
    outer loop
      vertex 34.0687 -11.3557 14.4
      vertex 31.3871 -16.0003 11.6346
      vertex 32.1658 -14.6517 10.5941
    endloop
  endfacet
  facet normal 0.866025 -0.5 0
    outer loop
      vertex 34.0687 -11.3557 14.4
      vertex 32.686 -13.7506 9.03688
      vertex 34.0687 -11.3557 0
    endloop
  endfacet
  facet normal 0.866025 -0.5 1.52428e-16
    outer loop
      vertex 34.0687 -11.3557 14.4
      vertex 32.1658 -14.6517 10.5941
      vertex 32.686 -13.7506 9.03688
    endloop
  endfacet
  facet normal 0.866025 -0.5 5.8079e-15
    outer loop
      vertex 32.686 -13.7506 9.03688
      vertex 32.8687 -13.4342 7.2
      vertex 34.0687 -11.3557 0
    endloop
  endfacet
  facet normal 0.866025 -0.5 -1.19861e-16
    outer loop
      vertex 32.686 -13.7506 5.36312
      vertex 32.1658 -14.6517 3.80589
      vertex 34.0687 -11.3557 0
    endloop
  endfacet
  facet normal 0.866025 -0.5 -2.04956e-15
    outer loop
      vertex 29.5503 -19.1819 2.76538
      vertex 26.8687 -23.8265 0
      vertex 30.4687 -17.5911 2.4
    endloop
  endfacet
  facet normal 0.866025 -0.5 2.82126e-16
    outer loop
      vertex 28.7716 -20.5305 3.80589
      vertex 26.8687 -23.8265 0
      vertex 29.5503 -19.1819 2.76538
    endloop
  endfacet
  facet normal 0.866025 -0.5 -3.17946e-16
    outer loop
      vertex 28.2514 -21.4316 5.36312
      vertex 26.8687 -23.8265 0
      vertex 28.7716 -20.5305 3.80589
    endloop
  endfacet
  facet normal 0.866025 -0.5 3.26995e-16
    outer loop
      vertex 28.2514 -21.4316 9.03688
      vertex 28.7716 -20.5305 10.5941
      vertex 26.8687 -23.8265 14.4
    endloop
  endfacet
  facet normal 0.866025 -0.5 -1.46391e-15
    outer loop
      vertex 32.8687 -13.4342 7.2
      vertex 32.686 -13.7506 5.36312
      vertex 34.0687 -11.3557 0
    endloop
  endfacet
  facet normal 0.866025 -0.5 7.82107e-16
    outer loop
      vertex 32.1658 -14.6517 3.80589
      vertex 31.3871 -16.0003 2.76538
      vertex 34.0687 -11.3557 0
    endloop
  endfacet
  facet normal 0.5 0.866025 0
    outer loop
      vertex 26.8708 -7.2 0
      vertex 26.8708 -7.2 14.4
      vertex 34.0687 -11.3557 0
    endloop
  endfacet
  facet normal 0.5 0.866025 0
    outer loop
      vertex 34.0687 -11.3557 0
      vertex 26.8708 -7.2 14.4
      vertex 34.0687 -11.3557 14.4
    endloop
  endfacet
  facet normal 0 -1 0
    outer loop
      vertex 26.8708 -7.2 14.4
      vertex 26.8708 -7.2 0
      vertex 35.1822 -7.2 0
    endloop
  endfacet
  facet normal 0 -1 0
    outer loop
      vertex 35.1822 -7.2 14.4
      vertex 26.8708 -7.2 14.4
      vertex 35.1822 -7.2 0
    endloop
  endfacet
  facet normal 1 0 -0
    outer loop
      vertex 35.1822 0 2.4
      vertex 35.1822 -7.2 0
      vertex 35.1822 7.2 0
    endloop
  endfacet
  facet normal 1 0 -0
    outer loop
      vertex 35.1822 -7.2 14.4
      vertex 35.1822 -7.2 0
      vertex 35.1822 -4.43462 5.36312
    endloop
  endfacet
  facet normal 1 0 -0
    outer loop
      vertex 35.1822 1.83688 2.76538
      vertex 35.1822 0 2.4
      vertex 35.1822 7.2 0
    endloop
  endfacet
  facet normal 1 0 0
    outer loop
      vertex 35.1822 -7.2 14.4
      vertex 35.1822 -4.43462 5.36312
      vertex 35.1822 -4.8 7.2
    endloop
  endfacet
  facet normal 1 0 0
    outer loop
      vertex 35.1822 0 12
      vertex 35.1822 1.83688 11.6346
      vertex 35.1822 7.2 14.4
    endloop
  endfacet
  facet normal 1 0 0
    outer loop
      vertex 35.1822 -7.2 14.4
      vertex 35.1822 -4.8 7.2
      vertex 35.1822 -4.43462 9.03688
    endloop
  endfacet
  facet normal 1 -0 0
    outer loop
      vertex 35.1822 -1.83688 11.6346
      vertex 35.1822 -7.2 14.4
      vertex 35.1822 -3.39411 10.5941
    endloop
  endfacet
  facet normal 1 0 0
    outer loop
      vertex 35.1822 7.2 14.4
      vertex 35.1822 -7.2 14.4
      vertex 35.1822 -1.83688 11.6346
    endloop
  endfacet
  facet normal 1 0 0
    outer loop
      vertex 35.1822 7.2 14.4
      vertex 35.1822 -1.83688 11.6346
      vertex 35.1822 0 12
    endloop
  endfacet
  facet normal 1 0 0
    outer loop
      vertex 35.1822 7.2 14.4
      vertex 35.1822 1.83688 11.6346
      vertex 35.1822 3.39411 10.5941
    endloop
  endfacet
  facet normal 1 0 0
    outer loop
      vertex 35.1822 7.2 14.4
      vertex 35.1822 4.43462 9.03688
      vertex 35.1822 7.2 0
    endloop
  endfacet
  facet normal 1 0 0
    outer loop
      vertex 35.1822 7.2 14.4
      vertex 35.1822 3.39411 10.5941
      vertex 35.1822 4.43462 9.03688
    endloop
  endfacet
  facet normal 1 0 0
    outer loop
      vertex 35.1822 4.43462 9.03688
      vertex 35.1822 4.8 7.2
      vertex 35.1822 7.2 0
    endloop
  endfacet
  facet normal 1 0 -0
    outer loop
      vertex 35.1822 4.43462 5.36312
      vertex 35.1822 3.39411 3.80589
      vertex 35.1822 7.2 0
    endloop
  endfacet
  facet normal 1 0 -0
    outer loop
      vertex 35.1822 -1.83688 2.76538
      vertex 35.1822 -7.2 0
      vertex 35.1822 0 2.4
    endloop
  endfacet
  facet normal 1 0 -0
    outer loop
      vertex 35.1822 -3.39411 3.80589
      vertex 35.1822 -7.2 0
      vertex 35.1822 -1.83688 2.76538
    endloop
  endfacet
  facet normal 1 0 -0
    outer loop
      vertex 35.1822 -4.43462 5.36312
      vertex 35.1822 -7.2 0
      vertex 35.1822 -3.39411 3.80589
    endloop
  endfacet
  facet normal 1 0 0
    outer loop
      vertex 35.1822 -4.43462 9.03688
      vertex 35.1822 -3.39411 10.5941
      vertex 35.1822 -7.2 14.4
    endloop
  endfacet
  facet normal 1 0 -0
    outer loop
      vertex 35.1822 4.8 7.2
      vertex 35.1822 4.43462 5.36312
      vertex 35.1822 7.2 0
    endloop
  endfacet
  facet normal 1 0 -0
    outer loop
      vertex 35.1822 3.39411 3.80589
      vertex 35.1822 1.83688 2.76538
      vertex 35.1822 7.2 0
    endloop
  endfacet
  facet normal 0 1 0
    outer loop
      vertex 26.8708 7.2 0
      vertex 26.8708 7.2 14.4
      vertex 35.1822 7.2 0
    endloop
  endfacet
  facet normal 0 1 0
    outer loop
      vertex 35.1822 7.2 0
      vertex 26.8708 7.2 14.4
      vertex 35.1822 7.2 14.4
    endloop
  endfacet
  facet normal 0.5 -0.866025 0
    outer loop
      vertex 26.8708 7.2 14.4
      vertex 26.8708 7.2 0
      vertex 34.0687 11.3557 0
    endloop
  endfacet
  facet normal 0.5 -0.866025 0
    outer loop
      vertex 34.0687 11.3557 14.4
      vertex 26.8708 7.2 14.4
      vertex 34.0687 11.3557 0
    endloop
  endfacet
  facet normal 0.866025 0.5 0
    outer loop
      vertex 28.0687 21.748 7.2
      vertex 26.8687 23.8265 0
      vertex 26.8687 23.8265 14.4
    endloop
  endfacet
  facet normal 0.866025 0.5 -4.98833e-16
    outer loop
      vertex 28.2514 21.4316 9.03688
      vertex 28.0687 21.748 7.2
      vertex 26.8687 23.8265 14.4
    endloop
  endfacet
  facet normal 0.866025 0.5 4.99107e-16
    outer loop
      vertex 28.2514 21.4316 5.36312
      vertex 26.8687 23.8265 0
      vertex 28.0687 21.748 7.2
    endloop
  endfacet
  facet normal 0.866025 0.5 -3.37424e-16
    outer loop
      vertex 28.7716 20.5305 3.80589
      vertex 26.8687 23.8265 0
      vertex 28.2514 21.4316 5.36312
    endloop
  endfacet
  facet normal 0.866025 0.5 3.07005e-16
    outer loop
      vertex 29.5503 19.1819 2.76538
      vertex 26.8687 23.8265 0
      vertex 28.7716 20.5305 3.80589
    endloop
  endfacet
  facet normal 0.866025 0.5 -7.42269e-16
    outer loop
      vertex 34.0687 11.3557 0
      vertex 26.8687 23.8265 0
      vertex 29.5503 19.1819 2.76538
    endloop
  endfacet
  facet normal 0.866025 0.5 5.89434e-15
    outer loop
      vertex 34.0687 11.3557 0
      vertex 29.5503 19.1819 2.76538
      vertex 30.4687 17.5911 2.4
    endloop
  endfacet
  facet normal 0.866025 0.5 -1.19861e-16
    outer loop
      vertex 32.686 13.7506 5.36312
      vertex 34.0687 11.3557 0
      vertex 32.1658 14.6517 3.80589
    endloop
  endfacet
  facet normal 0.866025 0.5 -0
    outer loop
      vertex 34.0687 11.3557 14.4
      vertex 34.0687 11.3557 0
      vertex 32.686 13.7506 5.36312
    endloop
  endfacet
  facet normal 0.866025 0.5 -6.01496e-15
    outer loop
      vertex 34.0687 11.3557 14.4
      vertex 32.686 13.7506 5.36312
      vertex 32.8687 13.4342 7.2
    endloop
  endfacet
  facet normal 0.866025 0.5 3.21381e-16
    outer loop
      vertex 28.7716 20.5305 10.5941
      vertex 28.2514 21.4316 9.03688
      vertex 26.8687 23.8265 14.4
    endloop
  endfacet
  facet normal 0.866025 0.5 1.52428e-16
    outer loop
      vertex 34.0687 11.3557 14.4
      vertex 32.686 13.7506 9.03688
      vertex 32.1658 14.6517 10.5941
    endloop
  endfacet
  facet normal 0.866025 0.5 6.08784e-16
    outer loop
      vertex 34.0687 11.3557 14.4
      vertex 31.3871 16.0003 11.6346
      vertex 26.8687 23.8265 14.4
    endloop
  endfacet
  facet normal 0.866025 0.5 -8.67433e-16
    outer loop
      vertex 34.0687 11.3557 14.4
      vertex 32.1658 14.6517 10.5941
      vertex 31.3871 16.0003 11.6346
    endloop
  endfacet
  facet normal 0.866025 0.5 -4.81833e-15
    outer loop
      vertex 31.3871 16.0003 11.6346
      vertex 30.4687 17.5911 12
      vertex 26.8687 23.8265 14.4
    endloop
  endfacet
  facet normal 0.866025 0.5 -3.07005e-16
    outer loop
      vertex 29.5503 19.1819 11.6346
      vertex 28.7716 20.5305 10.5941
      vertex 26.8687 23.8265 14.4
    endloop
  endfacet
  facet normal 0.866025 0.5 1.45478e-15
    outer loop
      vertex 32.8687 13.4342 7.2
      vertex 32.686 13.7506 9.03688
      vertex 34.0687 11.3557 14.4
    endloop
  endfacet
  facet normal 0.866025 0.5 2.05537e-15
    outer loop
      vertex 30.4687 17.5911 12
      vertex 29.5503 19.1819 11.6346
      vertex 26.8687 23.8265 14.4
    endloop
  endfacet
  facet normal 0.866025 0.5 -1.52427e-15
    outer loop
      vertex 30.4687 17.5911 2.4
      vertex 31.3871 16.0003 2.76538
      vertex 34.0687 11.3557 0
    endloop
  endfacet
  facet normal 0.866025 0.5 7.36937e-16
    outer loop
      vertex 31.3871 16.0003 2.76538
      vertex 32.1658 14.6517 3.80589
      vertex 34.0687 11.3557 0
    endloop
  endfacet
  facet normal -0.5 0.866025 0
    outer loop
      vertex 7.2 12.4708 0
      vertex 7.2 12.4708 14.4
      vertex 26.8687 23.8265 0
    endloop
  endfacet
  facet normal -0.5 0.866025 0
    outer loop
      vertex 26.8687 23.8265 0
      vertex 7.2 12.4708 14.4
      vertex 26.8687 23.8265 14.4
    endloop
  endfacet
  facet normal 1 0 -0
    outer loop
      vertex 7.2 12.4708 14.4
      vertex 7.2 12.4708 0
      vertex 7.2 16.5 0
    endloop
  endfacet
  facet normal 1 0 0
    outer loop
      vertex 7.2 16.5 14.4
      vertex 7.2 12.4708 14.4
      vertex 7.2 16.5 0
    endloop
  endfacet
  facet normal 0.990686 0.136167 0
    outer loop
      vertex 7.2 16.5 0
      vertex 6.933 18.4425 0
      vertex 6.933 18.4425 14.4
    endloop
  endfacet
  facet normal 0.990686 0.136167 -0
    outer loop
      vertex 7.2 16.5 14.4
      vertex 7.2 16.5 0
      vertex 6.933 18.4425 14.4
    endloop
  endfacet
  facet normal 0.917211 0.398401 0
    outer loop
      vertex 6.933 18.4425 0
      vertex 6.15182 20.241 0
      vertex 6.15182 20.241 14.4
    endloop
  endfacet
  facet normal 0.917211 0.398401 -0
    outer loop
      vertex 6.933 18.4425 14.4
      vertex 6.933 18.4425 0
      vertex 6.15182 20.241 14.4
    endloop
  endfacet
  facet normal 0.775711 0.631088 0
    outer loop
      vertex 6.15182 20.241 0
      vertex 4.91438 21.762 0
      vertex 4.91438 21.762 14.4
    endloop
  endfacet
  facet normal 0.775711 0.631088 -0
    outer loop
      vertex 6.15182 20.241 14.4
      vertex 6.15182 20.241 0
      vertex 4.91438 21.762 14.4
    endloop
  endfacet
  facet normal 0.57668 0.81697 0
    outer loop
      vertex 3.31247 22.8928 0
      vertex 3.31247 22.8928 14.4
      vertex 4.91438 21.762 0
    endloop
  endfacet
  facet normal 0.57668 0.81697 0
    outer loop
      vertex 4.91438 21.762 0
      vertex 3.31247 22.8928 14.4
      vertex 4.91438 21.762 14.4
    endloop
  endfacet
  facet normal 0.334879 0.942261 0
    outer loop
      vertex 1.46488 23.5494 0
      vertex 1.46488 23.5494 14.4
      vertex 3.31247 22.8928 0
    endloop
  endfacet
  facet normal 0.334879 0.942261 0
    outer loop
      vertex 3.31247 22.8928 0
      vertex 1.46488 23.5494 14.4
      vertex 3.31247 22.8928 14.4
    endloop
  endfacet
  facet normal 0.0682426 0.997669 0
    outer loop
      vertex -0.491345 23.6832 0
      vertex -0.491345 23.6832 14.4
      vertex 1.46488 23.5494 0
    endloop
  endfacet
  facet normal 0.0682426 0.997669 0
    outer loop
      vertex 1.46488 23.5494 0
      vertex -0.491345 23.6832 14.4
      vertex 1.46488 23.5494 14.4
    endloop
  endfacet
  facet normal -0.203456 0.979084 0
    outer loop
      vertex -2.41113 23.2843 0
      vertex -2.41113 23.2843 14.4
      vertex -0.491345 23.6832 0
    endloop
  endfacet
  facet normal -0.203456 0.979084 0
    outer loop
      vertex -0.491345 23.6832 0
      vertex -2.41113 23.2843 14.4
      vertex -0.491345 23.6832 14.4
    endloop
  endfacet
  facet normal -0.460065 0.887885 0
    outer loop
      vertex -4.1521 22.3822 0
      vertex -4.1521 22.3822 14.4
      vertex -2.41113 23.2843 0
    endloop
  endfacet
  facet normal -0.460065 0.887885 0
    outer loop
      vertex -2.41113 23.2843 0
      vertex -4.1521 22.3822 14.4
      vertex -2.41113 23.2843 14.4
    endloop
  endfacet
  facet normal -0.682553 0.730836 0
    outer loop
      vertex -5.58512 21.0438 0
      vertex -5.58512 21.0438 14.4
      vertex -4.1521 22.3822 0
    endloop
  endfacet
  facet normal -0.682553 0.730836 0
    outer loop
      vertex -4.1521 22.3822 0
      vertex -5.58512 21.0438 14.4
      vertex -4.1521 22.3822 14.4
    endloop
  endfacet
  facet normal -0.854419 0.519584 0
    outer loop
      vertex -6.60392 19.3685 0
      vertex -6.60392 19.3685 14.4
      vertex -5.58512 21.0438 0
    endloop
  endfacet
  facet normal -0.854419 0.519584 0
    outer loop
      vertex -5.58512 21.0438 0
      vertex -6.60392 19.3685 14.4
      vertex -5.58512 21.0438 14.4
    endloop
  endfacet
  facet normal -0.962917 0.269797 0
    outer loop
      vertex -7.13294 17.4804 0
      vertex -7.13294 17.4804 14.4
      vertex -6.60392 19.3685 0
    endloop
  endfacet
  facet normal -0.962917 0.269797 0
    outer loop
      vertex -6.60392 19.3685 0
      vertex -7.13294 17.4804 14.4
      vertex -6.60392 19.3685 14.4
    endloop
  endfacet
  facet normal 0 -0 1
    outer loop
      vertex -7.13294 17.4804 14.4
      vertex -7.13294 -17.4804 14.4
      vertex -6.60392 -19.3685 14.4
    endloop
  endfacet
  facet normal -0 0 1
    outer loop
      vertex -4.8 -16.5 14.4
      vertex -7.13294 17.4804 14.4
      vertex -5.58512 -21.0438 14.4
    endloop
  endfacet
  facet normal 0 0 1
    outer loop
      vertex -5.58512 -21.0438 14.4
      vertex -7.13294 17.4804 14.4
      vertex -6.60392 -19.3685 14.4
    endloop
  endfacet
  facet normal 0 0 1
    outer loop
      vertex -4.8 -16.5 14.4
      vertex -4.43462 -14.6631 14.4
      vertex -7.13294 17.4804 14.4
    endloop
  endfacet
  facet normal 0 0 1
    outer loop
      vertex 4.43462 -14.6631 14.4
      vertex 4.8 -16.5 14.4
      vertex 6.15182 -20.241 14.4
    endloop
  endfacet
  facet normal -0 0 1
    outer loop
      vertex 7.2 -16.5 14.4
      vertex -7.13294 17.4804 14.4
      vertex 6.933 -18.4425 14.4
    endloop
  endfacet
  facet normal -0 0 1
    outer loop
      vertex 7.2 -12.4708 14.4
      vertex -7.13294 17.4804 14.4
      vertex 7.2 -16.5 14.4
    endloop
  endfacet
  facet normal 0 0 1
    outer loop
      vertex 26.8687 -23.8265 14.4
      vertex -7.13294 17.4804 14.4
      vertex 7.2 -12.4708 14.4
    endloop
  endfacet
  facet normal -0 -0 1
    outer loop
      vertex -3.39411 13.1059 14.4
      vertex -7.13294 17.4804 14.4
      vertex 26.8687 -23.8265 14.4
    endloop
  endfacet
  facet normal -0 0 1
    outer loop
      vertex 34.0687 -11.3557 14.4
      vertex 26.8708 -7.2 14.4
      vertex 26.8687 -23.8265 14.4
    endloop
  endfacet
  facet normal -0 0 1
    outer loop
      vertex 6.933 18.4425 14.4
      vertex 6.15182 20.241 14.4
      vertex 4.43462 18.3369 14.4
    endloop
  endfacet
  facet normal 0 0 1
    outer loop
      vertex 35.1822 7.2 14.4
      vertex 26.8708 7.2 14.4
      vertex 35.1822 -7.2 14.4
    endloop
  endfacet
  facet normal 0 0 1
    outer loop
      vertex -4.43462 14.6631 14.4
      vertex -4.8 16.5 14.4
      vertex -7.13294 17.4804 14.4
    endloop
  endfacet
  facet normal 0 0 1
    outer loop
      vertex -4.43462 -14.6631 14.4
      vertex -3.39411 -13.1059 14.4
      vertex -7.13294 17.4804 14.4
    endloop
  endfacet
  facet normal -0 -0 1
    outer loop
      vertex 26.8708 7.2 14.4
      vertex 7.2 12.4708 14.4
      vertex 35.1822 -7.2 14.4
    endloop
  endfacet
  facet normal 0 -0 1
    outer loop
      vertex 3.39411 13.1059 14.4
      vertex 1.83688 12.0654 14.4
      vertex 35.1822 -7.2 14.4
    endloop
  endfacet
  facet normal 0 0 1
    outer loop
      vertex 3.39411 19.8941 14.4
      vertex 4.43462 18.3369 14.4
      vertex 6.15182 20.241 14.4
    endloop
  endfacet
  facet normal 0 0 1
    outer loop
      vertex 0 21.3 14.4
      vertex 1.83688 20.9346 14.4
      vertex 3.31247 22.8928 14.4
    endloop
  endfacet
  facet normal 0 0 1
    outer loop
      vertex -1.83688 20.9346 14.4
      vertex 0 21.3 14.4
      vertex 3.31247 22.8928 14.4
    endloop
  endfacet
  facet normal 0 -0 1
    outer loop
      vertex -0.491345 23.6832 14.4
      vertex -7.13294 17.4804 14.4
      vertex 1.46488 23.5494 14.4
    endloop
  endfacet
  facet normal 0 -0 1
    outer loop
      vertex -2.41113 23.2843 14.4
      vertex -7.13294 17.4804 14.4
      vertex -0.491345 23.6832 14.4
    endloop
  endfacet
  facet normal 0 -0 1
    outer loop
      vertex -4.1521 22.3822 14.4
      vertex -7.13294 17.4804 14.4
      vertex -2.41113 23.2843 14.4
    endloop
  endfacet
  facet normal 0 -0 1
    outer loop
      vertex -5.58512 21.0438 14.4
      vertex -7.13294 17.4804 14.4
      vertex -4.1521 22.3822 14.4
    endloop
  endfacet
  facet normal 0 -0 1
    outer loop
      vertex -6.60392 19.3685 14.4
      vertex -7.13294 17.4804 14.4
      vertex -5.58512 21.0438 14.4
    endloop
  endfacet
  facet normal 0 0 1
    outer loop
      vertex -2.41113 -23.2843 14.4
      vertex -4.43462 -18.3369 14.4
      vertex -4.1521 -22.3822 14.4
    endloop
  endfacet
  facet normal -0 -0 1
    outer loop
      vertex 0 11.7 14.4
      vertex -1.83688 12.0654 14.4
      vertex 26.8708 -7.2 14.4
    endloop
  endfacet
  facet normal 0 0 1
    outer loop
      vertex -4.1521 -22.3822 14.4
      vertex -4.8 -16.5 14.4
      vertex -5.58512 -21.0438 14.4
    endloop
  endfacet
  facet normal 0 0 1
    outer loop
      vertex -3.39411 -13.1059 14.4
      vertex -1.83688 -12.0654 14.4
      vertex -7.13294 17.4804 14.4
    endloop
  endfacet
  facet normal 0 0 1
    outer loop
      vertex -1.83688 -12.0654 14.4
      vertex 0 -11.7 14.4
      vertex -7.13294 17.4804 14.4
    endloop
  endfacet
  facet normal -0 0 1
    outer loop
      vertex -1.83688 -20.9346 14.4
      vertex -3.39411 -19.8941 14.4
      vertex -2.41113 -23.2843 14.4
    endloop
  endfacet
  facet normal 0 0 1
    outer loop
      vertex 0 -11.7 14.4
      vertex 1.83688 -12.0654 14.4
      vertex -7.13294 17.4804 14.4
    endloop
  endfacet
  facet normal -0 0 1
    outer loop
      vertex 0 -21.3 14.4
      vertex -1.83688 -20.9346 14.4
      vertex -0.491345 -23.6832 14.4
    endloop
  endfacet
  facet normal 0 0 1
    outer loop
      vertex 1.83688 -12.0654 14.4
      vertex 3.39411 -13.1059 14.4
      vertex -7.13294 17.4804 14.4
    endloop
  endfacet
  facet normal 0 0 1
    outer loop
      vertex 1.83688 -20.9346 14.4
      vertex 0 -21.3 14.4
      vertex 1.46488 -23.5494 14.4
    endloop
  endfacet
  facet normal 0 0 1
    outer loop
      vertex 3.39411 -19.8941 14.4
      vertex 1.83688 -20.9346 14.4
      vertex 3.31247 -22.8928 14.4
    endloop
  endfacet
  facet normal 0 -0 1
    outer loop
      vertex 4.43462 -18.3369 14.4
      vertex 3.39411 -19.8941 14.4
      vertex 4.91438 -21.762 14.4
    endloop
  endfacet
  facet normal -0 0 1
    outer loop
      vertex 6.933 -18.4425 14.4
      vertex 4.43462 -14.6631 14.4
      vertex 6.15182 -20.241 14.4
    endloop
  endfacet
  facet normal 0 0 1
    outer loop
      vertex 6.933 -18.4425 14.4
      vertex -7.13294 17.4804 14.4
      vertex 4.43462 -14.6631 14.4
    endloop
  endfacet
  facet normal 0 -0 1
    outer loop
      vertex 4.8 -16.5 14.4
      vertex 4.43462 -18.3369 14.4
      vertex 6.15182 -20.241 14.4
    endloop
  endfacet
  facet normal -0 0 1
    outer loop
      vertex 6.15182 -20.241 14.4
      vertex 4.43462 -18.3369 14.4
      vertex 4.91438 -21.762 14.4
    endloop
  endfacet
  facet normal -0 0 1
    outer loop
      vertex 4.91438 -21.762 14.4
      vertex 3.39411 -19.8941 14.4
      vertex 3.31247 -22.8928 14.4
    endloop
  endfacet
  facet normal -0 0 1
    outer loop
      vertex 3.31247 -22.8928 14.4
      vertex 1.83688 -20.9346 14.4
      vertex 1.46488 -23.5494 14.4
    endloop
  endfacet
  facet normal -0 0 1
    outer loop
      vertex 1.46488 -23.5494 14.4
      vertex 0 -21.3 14.4
      vertex -0.491345 -23.6832 14.4
    endloop
  endfacet
  facet normal 0 0 1
    outer loop
      vertex -0.491345 -23.6832 14.4
      vertex -1.83688 -20.9346 14.4
      vertex -2.41113 -23.2843 14.4
    endloop
  endfacet
  facet normal 0 0 1
    outer loop
      vertex -2.41113 -23.2843 14.4
      vertex -3.39411 -19.8941 14.4
      vertex -4.43462 -18.3369 14.4
    endloop
  endfacet
  facet normal 0 -0 1
    outer loop
      vertex 1.83688 12.0654 14.4
      vertex 0 11.7 14.4
      vertex 26.8708 -7.2 14.4
    endloop
  endfacet
  facet normal 0 0 1
    outer loop
      vertex 4.43462 18.3369 14.4
      vertex 4.8 16.5 14.4
      vertex 7.2 16.5 14.4
    endloop
  endfacet
  facet normal 0 0 1
    outer loop
      vertex 1.83688 20.9346 14.4
      vertex 3.39411 19.8941 14.4
      vertex 4.91438 21.762 14.4
    endloop
  endfacet
  facet normal 0 0 1
    outer loop
      vertex 1.46488 23.5494 14.4
      vertex -7.13294 17.4804 14.4
      vertex -3.39411 19.8941 14.4
    endloop
  endfacet
  facet normal 0 -0 1
    outer loop
      vertex 1.46488 23.5494 14.4
      vertex -1.83688 20.9346 14.4
      vertex 3.31247 22.8928 14.4
    endloop
  endfacet
  facet normal 0 0 1
    outer loop
      vertex 1.46488 23.5494 14.4
      vertex -3.39411 19.8941 14.4
      vertex -1.83688 20.9346 14.4
    endloop
  endfacet
  facet normal 0 -0 1
    outer loop
      vertex 3.31247 22.8928 14.4
      vertex 1.83688 20.9346 14.4
      vertex 4.91438 21.762 14.4
    endloop
  endfacet
  facet normal 0 -0 1
    outer loop
      vertex 4.43462 14.6631 14.4
      vertex 3.39411 13.1059 14.4
      vertex 7.2 12.4708 14.4
    endloop
  endfacet
  facet normal 0 -0 1
    outer loop
      vertex 4.91438 21.762 14.4
      vertex 3.39411 19.8941 14.4
      vertex 6.15182 20.241 14.4
    endloop
  endfacet
  facet normal 0 0 1
    outer loop
      vertex 3.39411 -13.1059 14.4
      vertex 4.43462 -14.6631 14.4
      vertex -7.13294 17.4804 14.4
    endloop
  endfacet
  facet normal -0 -0 1
    outer loop
      vertex -4.43462 -18.3369 14.4
      vertex -4.8 -16.5 14.4
      vertex -4.1521 -22.3822 14.4
    endloop
  endfacet
  facet normal -0 0 1
    outer loop
      vertex -4.43462 18.3369 14.4
      vertex -3.39411 19.8941 14.4
      vertex -7.13294 17.4804 14.4
    endloop
  endfacet
  facet normal 0 0 1
    outer loop
      vertex 7.2 12.4708 14.4
      vertex 4.8 16.5 14.4
      vertex 4.43462 14.6631 14.4
    endloop
  endfacet
  facet normal -0 -0 1
    outer loop
      vertex 7.2 12.4708 14.4
      vertex 3.39411 13.1059 14.4
      vertex 35.1822 -7.2 14.4
    endloop
  endfacet
  facet normal 0 0 1
    outer loop
      vertex 4.43462 18.3369 14.4
      vertex 7.2 16.5 14.4
      vertex 6.933 18.4425 14.4
    endloop
  endfacet
  facet normal -0 -0 1
    outer loop
      vertex -1.83688 12.0654 14.4
      vertex -3.39411 13.1059 14.4
      vertex 26.8687 -23.8265 14.4
    endloop
  endfacet
  facet normal -0 0 1
    outer loop
      vertex 26.8708 -7.2 14.4
      vertex -1.83688 12.0654 14.4
      vertex 26.8687 -23.8265 14.4
    endloop
  endfacet
  facet normal -0 -0 1
    outer loop
      vertex -4.43462 14.6631 14.4
      vertex -7.13294 17.4804 14.4
      vertex -3.39411 13.1059 14.4
    endloop
  endfacet
  facet normal 0 0 1
    outer loop
      vertex 26.8708 -7.2 14.4
      vertex 35.1822 -7.2 14.4
      vertex 1.83688 12.0654 14.4
    endloop
  endfacet
  facet normal 0 0 1
    outer loop
      vertex 7.2 12.4708 14.4
      vertex 7.2 16.5 14.4
      vertex 4.8 16.5 14.4
    endloop
  endfacet
  facet normal 0 0 1
    outer loop
      vertex 26.8687 23.8265 14.4
      vertex 26.8708 7.2 14.4
      vertex 34.0687 11.3557 14.4
    endloop
  endfacet
  facet normal 0 -0 1
    outer loop
      vertex 26.8687 23.8265 14.4
      vertex 7.2 12.4708 14.4
      vertex 26.8708 7.2 14.4
    endloop
  endfacet
  facet normal 0 0 1
    outer loop
      vertex -4.8 16.5 14.4
      vertex -4.43462 18.3369 14.4
      vertex -7.13294 17.4804 14.4
    endloop
  endfacet
  facet normal 0.415735 0.720074 0.55557
    outer loop
      vertex 28.7716 -20.5305 3.80589
      vertex 18.3793 -14.5305 3.80589
      vertex 28.2514 -21.4316 5.36312
    endloop
  endfacet
  facet normal 0.415735 0.720074 0.55557
    outer loop
      vertex 28.2514 -21.4316 5.36312
      vertex 18.3793 -14.5305 3.80589
      vertex 17.8591 -15.4316 5.36312
    endloop
  endfacet
  facet normal 0.490393 0.849385 0.19509
    outer loop
      vertex 28.2514 -21.4316 5.36312
      vertex 17.8591 -15.4316 5.36312
      vertex 28.0687 -21.748 7.2
    endloop
  endfacet
  facet normal 0.490393 0.849385 0.19509
    outer loop
      vertex 28.0687 -21.748 7.2
      vertex 17.8591 -15.4316 5.36312
      vertex 17.6764 -15.748 7.2
    endloop
  endfacet
  facet normal 0.277785 0.481138 0.83147
    outer loop
      vertex 28.7716 -20.5305 3.80589
      vertex 29.5503 -19.1819 2.76538
      vertex 19.158 -13.1819 2.76538
    endloop
  endfacet
  facet normal 0.277785 0.481138 0.83147
    outer loop
      vertex 18.3793 -14.5305 3.80589
      vertex 28.7716 -20.5305 3.80589
      vertex 19.158 -13.1819 2.76538
    endloop
  endfacet
  facet normal 0.0975451 0.168953 0.980785
    outer loop
      vertex 29.5503 -19.1819 2.76538
      vertex 30.4687 -17.5911 2.4
      vertex 20.0764 -11.5911 2.4
    endloop
  endfacet
  facet normal 0.0975451 0.168953 0.980785
    outer loop
      vertex 19.158 -13.1819 2.76538
      vertex 29.5503 -19.1819 2.76538
      vertex 20.0764 -11.5911 2.4
    endloop
  endfacet
  facet normal -0.0975451 -0.168953 0.980785
    outer loop
      vertex 30.4687 -17.5911 2.4
      vertex 31.3871 -16.0003 2.76538
      vertex 20.9948 -10.0003 2.76538
    endloop
  endfacet
  facet normal -0.0975451 -0.168953 0.980785
    outer loop
      vertex 20.0764 -11.5911 2.4
      vertex 30.4687 -17.5911 2.4
      vertex 20.9948 -10.0003 2.76538
    endloop
  endfacet
  facet normal -0.277785 -0.481138 0.83147
    outer loop
      vertex 31.3871 -16.0003 2.76538
      vertex 32.1658 -14.6517 3.80589
      vertex 21.7734 -8.65172 3.80589
    endloop
  endfacet
  facet normal -0.277785 -0.481138 0.83147
    outer loop
      vertex 20.9948 -10.0003 2.76538
      vertex 31.3871 -16.0003 2.76538
      vertex 21.7734 -8.65172 3.80589
    endloop
  endfacet
  facet normal -0.415735 -0.720074 0.55557
    outer loop
      vertex 32.1658 -14.6517 3.80589
      vertex 32.686 -13.7506 5.36312
      vertex 22.2937 -7.75061 5.36312
    endloop
  endfacet
  facet normal -0.415735 -0.720074 0.55557
    outer loop
      vertex 21.7734 -8.65172 3.80589
      vertex 32.1658 -14.6517 3.80589
      vertex 22.2937 -7.75061 5.36312
    endloop
  endfacet
  facet normal -0.490393 -0.849385 0.19509
    outer loop
      vertex 32.686 -13.7506 5.36312
      vertex 32.8687 -13.4342 7.2
      vertex 22.4764 -7.43419 7.2
    endloop
  endfacet
  facet normal -0.490393 -0.849385 0.19509
    outer loop
      vertex 22.2937 -7.75061 5.36312
      vertex 32.686 -13.7506 5.36312
      vertex 22.4764 -7.43419 7.2
    endloop
  endfacet
  facet normal -0.490393 -0.849385 -0.19509
    outer loop
      vertex 22.4764 -7.43419 7.2
      vertex 32.8687 -13.4342 7.2
      vertex 32.686 -13.7506 9.03688
    endloop
  endfacet
  facet normal -0.490393 -0.849385 -0.19509
    outer loop
      vertex 22.2937 -7.75061 9.03688
      vertex 22.4764 -7.43419 7.2
      vertex 32.686 -13.7506 9.03688
    endloop
  endfacet
  facet normal -0.415735 -0.720074 -0.55557
    outer loop
      vertex 22.2937 -7.75061 9.03688
      vertex 32.686 -13.7506 9.03688
      vertex 32.1658 -14.6517 10.5941
    endloop
  endfacet
  facet normal -0.415735 -0.720074 -0.55557
    outer loop
      vertex 21.7734 -8.65172 10.5941
      vertex 22.2937 -7.75061 9.03688
      vertex 32.1658 -14.6517 10.5941
    endloop
  endfacet
  facet normal -0.277785 -0.481138 -0.83147
    outer loop
      vertex 32.1658 -14.6517 10.5941
      vertex 31.3871 -16.0003 11.6346
      vertex 21.7734 -8.65172 10.5941
    endloop
  endfacet
  facet normal -0.277785 -0.481138 -0.83147
    outer loop
      vertex 21.7734 -8.65172 10.5941
      vertex 31.3871 -16.0003 11.6346
      vertex 20.9948 -10.0003 11.6346
    endloop
  endfacet
  facet normal -0.0975451 -0.168953 -0.980785
    outer loop
      vertex 31.3871 -16.0003 11.6346
      vertex 30.4687 -17.5911 12
      vertex 20.9948 -10.0003 11.6346
    endloop
  endfacet
  facet normal -0.0975451 -0.168953 -0.980785
    outer loop
      vertex 20.9948 -10.0003 11.6346
      vertex 30.4687 -17.5911 12
      vertex 20.0764 -11.5911 12
    endloop
  endfacet
  facet normal 0.0975451 0.168953 -0.980785
    outer loop
      vertex 30.4687 -17.5911 12
      vertex 29.5503 -19.1819 11.6346
      vertex 20.0764 -11.5911 12
    endloop
  endfacet
  facet normal 0.0975451 0.168953 -0.980785
    outer loop
      vertex 20.0764 -11.5911 12
      vertex 29.5503 -19.1819 11.6346
      vertex 19.158 -13.1819 11.6346
    endloop
  endfacet
  facet normal 0.277785 0.481138 -0.83147
    outer loop
      vertex 29.5503 -19.1819 11.6346
      vertex 28.7716 -20.5305 10.5941
      vertex 19.158 -13.1819 11.6346
    endloop
  endfacet
  facet normal 0.277785 0.481138 -0.83147
    outer loop
      vertex 19.158 -13.1819 11.6346
      vertex 28.7716 -20.5305 10.5941
      vertex 18.3793 -14.5305 10.5941
    endloop
  endfacet
  facet normal 0.415735 0.720074 -0.55557
    outer loop
      vertex 28.7716 -20.5305 10.5941
      vertex 28.2514 -21.4316 9.03688
      vertex 18.3793 -14.5305 10.5941
    endloop
  endfacet
  facet normal 0.415735 0.720074 -0.55557
    outer loop
      vertex 18.3793 -14.5305 10.5941
      vertex 28.2514 -21.4316 9.03688
      vertex 17.8591 -15.4316 9.03688
    endloop
  endfacet
  facet normal 0.490393 0.849385 -0.19509
    outer loop
      vertex 28.2514 -21.4316 9.03688
      vertex 28.0687 -21.748 7.2
      vertex 17.8591 -15.4316 9.03688
    endloop
  endfacet
  facet normal 0.490393 0.849385 -0.19509
    outer loop
      vertex 17.8591 -15.4316 9.03688
      vertex 28.0687 -21.748 7.2
      vertex 17.6764 -15.748 7.2
    endloop
  endfacet
  facet normal -1.23361e-16 0.83147 0.55557
    outer loop
      vertex 35.1822 -3.39411 3.80589
      vertex 23.1822 -3.39411 3.80589
      vertex 35.1822 -4.43462 5.36312
    endloop
  endfacet
  facet normal -1.23361e-16 0.83147 0.55557
    outer loop
      vertex 35.1822 -4.43462 5.36312
      vertex 23.1822 -3.39411 3.80589
      vertex 23.1822 -4.43462 5.36312
    endloop
  endfacet
  facet normal -4.33187e-17 0.980785 0.19509
    outer loop
      vertex 35.1822 -4.43462 5.36312
      vertex 23.1822 -4.43462 5.36312
      vertex 35.1822 -4.8 7.2
    endloop
  endfacet
  facet normal -4.33187e-17 0.980785 0.19509
    outer loop
      vertex 35.1822 -4.8 7.2
      vertex 23.1822 -4.43462 5.36312
      vertex 23.1822 -4.8 7.2
    endloop
  endfacet
  facet normal -1.89653e-16 0.55557 0.83147
    outer loop
      vertex 35.1822 -3.39411 3.80589
      vertex 35.1822 -1.83688 2.76538
      vertex 23.1822 -1.83688 2.76538
    endloop
  endfacet
  facet normal -1.84623e-16 0.55557 0.83147
    outer loop
      vertex 23.1822 -3.39411 3.80589
      vertex 35.1822 -3.39411 3.80589
      vertex 23.1822 -1.83688 2.76538
    endloop
  endfacet
  facet normal -2.16412e-16 0.19509 0.980785
    outer loop
      vertex 35.1822 -1.83688 2.76538
      vertex 35.1822 0 2.4
      vertex 23.1822 0 2.4
    endloop
  endfacet
  facet normal -2.17778e-16 0.19509 0.980785
    outer loop
      vertex 23.1822 -1.83688 2.76538
      vertex 35.1822 -1.83688 2.76538
      vertex 23.1822 0 2.4
    endloop
  endfacet
  facet normal -2.17778e-16 -0.19509 0.980785
    outer loop
      vertex 23.1822 0 2.4
      vertex 35.1822 0 2.4
      vertex 35.1822 1.83688 2.76538
    endloop
  endfacet
  facet normal -2.17778e-16 -0.19509 0.980785
    outer loop
      vertex 23.1822 1.83688 2.76538
      vertex 23.1822 0 2.4
      vertex 35.1822 1.83688 2.76538
    endloop
  endfacet
  facet normal -1.84623e-16 -0.55557 0.83147
    outer loop
      vertex 23.1822 1.83688 2.76538
      vertex 35.1822 1.83688 2.76538
      vertex 35.1822 3.39411 3.80589
    endloop
  endfacet
  facet normal -1.84623e-16 -0.55557 0.83147
    outer loop
      vertex 23.1822 3.39411 3.80589
      vertex 23.1822 1.83688 2.76538
      vertex 35.1822 3.39411 3.80589
    endloop
  endfacet
  facet normal -1.23361e-16 -0.83147 0.55557
    outer loop
      vertex 23.1822 3.39411 3.80589
      vertex 35.1822 3.39411 3.80589
      vertex 35.1822 4.43462 5.36312
    endloop
  endfacet
  facet normal -1.23361e-16 -0.83147 0.55557
    outer loop
      vertex 23.1822 4.43462 5.36312
      vertex 23.1822 3.39411 3.80589
      vertex 35.1822 4.43462 5.36312
    endloop
  endfacet
  facet normal -4.33187e-17 -0.980785 0.19509
    outer loop
      vertex 23.1822 4.43462 5.36312
      vertex 35.1822 4.43462 5.36312
      vertex 35.1822 4.8 7.2
    endloop
  endfacet
  facet normal -4.33187e-17 -0.980785 0.19509
    outer loop
      vertex 23.1822 4.8 7.2
      vertex 23.1822 4.43462 5.36312
      vertex 35.1822 4.8 7.2
    endloop
  endfacet
  facet normal 4.33187e-17 -0.980785 -0.19509
    outer loop
      vertex 23.1822 4.8 7.2
      vertex 35.1822 4.8 7.2
      vertex 35.1822 4.43462 9.03688
    endloop
  endfacet
  facet normal 5.77583e-17 -0.980785 -0.19509
    outer loop
      vertex 23.1822 4.43462 9.03688
      vertex 23.1822 4.8 7.2
      vertex 35.1822 4.43462 9.03688
    endloop
  endfacet
  facet normal 1.64482e-16 -0.83147 -0.55557
    outer loop
      vertex 23.1822 4.43462 9.03688
      vertex 35.1822 4.43462 9.03688
      vertex 35.1822 3.39411 10.5941
    endloop
  endfacet
  facet normal 1.64482e-16 -0.83147 -0.55557
    outer loop
      vertex 23.1822 3.39411 10.5941
      vertex 23.1822 4.43462 9.03688
      vertex 35.1822 3.39411 10.5941
    endloop
  endfacet
  facet normal 2.46165e-16 -0.55557 -0.83147
    outer loop
      vertex 35.1822 3.39411 10.5941
      vertex 35.1822 1.83688 11.6346
      vertex 23.1822 3.39411 10.5941
    endloop
  endfacet
  facet normal 2.36886e-16 -0.55557 -0.83147
    outer loop
      vertex 23.1822 3.39411 10.5941
      vertex 35.1822 1.83688 11.6346
      vertex 23.1822 1.83688 11.6346
    endloop
  endfacet
  facet normal 2.90371e-16 -0.19509 -0.980785
    outer loop
      vertex 35.1822 1.83688 11.6346
      vertex 35.1822 0 12
      vertex 23.1822 1.83688 11.6346
    endloop
  endfacet
  facet normal 2.88601e-16 -0.19509 -0.980785
    outer loop
      vertex 23.1822 1.83688 11.6346
      vertex 35.1822 0 12
      vertex 23.1822 0 12
    endloop
  endfacet
  facet normal 2.90371e-16 0.19509 -0.980785
    outer loop
      vertex 35.1822 -1.83688 11.6346
      vertex 23.1822 -1.83688 11.6346
      vertex 35.1822 0 12
    endloop
  endfacet
  facet normal 2.90371e-16 0.19509 -0.980785
    outer loop
      vertex 35.1822 0 12
      vertex 23.1822 -1.83688 11.6346
      vertex 23.1822 0 12
    endloop
  endfacet
  facet normal 2.46165e-16 0.55557 -0.83147
    outer loop
      vertex 35.1822 -3.39411 10.5941
      vertex 23.1822 -3.39411 10.5941
      vertex 35.1822 -1.83688 11.6346
    endloop
  endfacet
  facet normal 2.46165e-16 0.55557 -0.83147
    outer loop
      vertex 35.1822 -1.83688 11.6346
      vertex 23.1822 -3.39411 10.5941
      vertex 23.1822 -1.83688 11.6346
    endloop
  endfacet
  facet normal 1.64482e-16 0.83147 -0.55557
    outer loop
      vertex 35.1822 -4.43462 9.03688
      vertex 23.1822 -4.43462 9.03688
      vertex 35.1822 -3.39411 10.5941
    endloop
  endfacet
  facet normal 1.64482e-16 0.83147 -0.55557
    outer loop
      vertex 35.1822 -3.39411 10.5941
      vertex 23.1822 -4.43462 9.03688
      vertex 23.1822 -3.39411 10.5941
    endloop
  endfacet
  facet normal 4.33187e-17 0.980785 -0.19509
    outer loop
      vertex 35.1822 -4.8 7.2
      vertex 23.1822 -4.8 7.2
      vertex 35.1822 -4.43462 9.03688
    endloop
  endfacet
  facet normal 5.77583e-17 0.980785 -0.19509
    outer loop
      vertex 35.1822 -4.43462 9.03688
      vertex 23.1822 -4.8 7.2
      vertex 23.1822 -4.43462 9.03688
    endloop
  endfacet
  facet normal 0.490393 -0.849385 -0.19509
    outer loop
      vertex 28.0687 21.748 7.2
      vertex 28.2514 21.4316 9.03688
      vertex 17.8591 15.4316 9.03688
    endloop
  endfacet
  facet normal 0.490393 -0.849385 -0.19509
    outer loop
      vertex 17.6764 15.748 7.2
      vertex 28.0687 21.748 7.2
      vertex 17.8591 15.4316 9.03688
    endloop
  endfacet
  facet normal 0.490393 -0.849385 0.19509
    outer loop
      vertex 17.8591 15.4316 5.36312
      vertex 28.2514 21.4316 5.36312
      vertex 28.0687 21.748 7.2
    endloop
  endfacet
  facet normal 0.490393 -0.849385 0.19509
    outer loop
      vertex 17.6764 15.748 7.2
      vertex 17.8591 15.4316 5.36312
      vertex 28.0687 21.748 7.2
    endloop
  endfacet
  facet normal 0.415735 -0.720074 -0.55557
    outer loop
      vertex 28.2514 21.4316 9.03688
      vertex 28.7716 20.5305 10.5941
      vertex 18.3793 14.5305 10.5941
    endloop
  endfacet
  facet normal 0.415735 -0.720074 -0.55557
    outer loop
      vertex 17.8591 15.4316 9.03688
      vertex 28.2514 21.4316 9.03688
      vertex 18.3793 14.5305 10.5941
    endloop
  endfacet
  facet normal 0.277785 -0.481138 -0.83147
    outer loop
      vertex 29.5503 19.1819 11.6346
      vertex 19.158 13.1819 11.6346
      vertex 28.7716 20.5305 10.5941
    endloop
  endfacet
  facet normal 0.277785 -0.481138 -0.83147
    outer loop
      vertex 28.7716 20.5305 10.5941
      vertex 19.158 13.1819 11.6346
      vertex 18.3793 14.5305 10.5941
    endloop
  endfacet
  facet normal 0.0975451 -0.168953 -0.980785
    outer loop
      vertex 30.4687 17.5911 12
      vertex 20.0764 11.5911 12
      vertex 29.5503 19.1819 11.6346
    endloop
  endfacet
  facet normal 0.0975451 -0.168953 -0.980785
    outer loop
      vertex 29.5503 19.1819 11.6346
      vertex 20.0764 11.5911 12
      vertex 19.158 13.1819 11.6346
    endloop
  endfacet
  facet normal -0.0975451 0.168953 -0.980785
    outer loop
      vertex 31.3871 16.0003 11.6346
      vertex 20.9948 10.0003 11.6346
      vertex 30.4687 17.5911 12
    endloop
  endfacet
  facet normal -0.0975451 0.168953 -0.980785
    outer loop
      vertex 30.4687 17.5911 12
      vertex 20.9948 10.0003 11.6346
      vertex 20.0764 11.5911 12
    endloop
  endfacet
  facet normal -0.277785 0.481138 -0.83147
    outer loop
      vertex 32.1658 14.6517 10.5941
      vertex 21.7734 8.65172 10.5941
      vertex 31.3871 16.0003 11.6346
    endloop
  endfacet
  facet normal -0.277785 0.481138 -0.83147
    outer loop
      vertex 31.3871 16.0003 11.6346
      vertex 21.7734 8.65172 10.5941
      vertex 20.9948 10.0003 11.6346
    endloop
  endfacet
  facet normal -0.415735 0.720074 -0.55557
    outer loop
      vertex 32.686 13.7506 9.03688
      vertex 22.2937 7.75061 9.03688
      vertex 32.1658 14.6517 10.5941
    endloop
  endfacet
  facet normal -0.415735 0.720074 -0.55557
    outer loop
      vertex 32.1658 14.6517 10.5941
      vertex 22.2937 7.75061 9.03688
      vertex 21.7734 8.65172 10.5941
    endloop
  endfacet
  facet normal -0.490393 0.849385 -0.19509
    outer loop
      vertex 32.8687 13.4342 7.2
      vertex 22.4764 7.43419 7.2
      vertex 32.686 13.7506 9.03688
    endloop
  endfacet
  facet normal -0.490393 0.849385 -0.19509
    outer loop
      vertex 32.686 13.7506 9.03688
      vertex 22.4764 7.43419 7.2
      vertex 22.2937 7.75061 9.03688
    endloop
  endfacet
  facet normal -0.490393 0.849385 0.19509
    outer loop
      vertex 32.8687 13.4342 7.2
      vertex 32.686 13.7506 5.36312
      vertex 22.4764 7.43419 7.2
    endloop
  endfacet
  facet normal -0.490393 0.849385 0.19509
    outer loop
      vertex 22.4764 7.43419 7.2
      vertex 32.686 13.7506 5.36312
      vertex 22.2937 7.75061 5.36312
    endloop
  endfacet
  facet normal -0.415735 0.720074 0.55557
    outer loop
      vertex 32.686 13.7506 5.36312
      vertex 32.1658 14.6517 3.80589
      vertex 22.2937 7.75061 5.36312
    endloop
  endfacet
  facet normal -0.415735 0.720074 0.55557
    outer loop
      vertex 22.2937 7.75061 5.36312
      vertex 32.1658 14.6517 3.80589
      vertex 21.7734 8.65172 3.80589
    endloop
  endfacet
  facet normal -0.277785 0.481138 0.83147
    outer loop
      vertex 21.7734 8.65172 3.80589
      vertex 32.1658 14.6517 3.80589
      vertex 31.3871 16.0003 2.76538
    endloop
  endfacet
  facet normal -0.277785 0.481138 0.83147
    outer loop
      vertex 20.9948 10.0003 2.76538
      vertex 21.7734 8.65172 3.80589
      vertex 31.3871 16.0003 2.76538
    endloop
  endfacet
  facet normal -0.0975451 0.168953 0.980785
    outer loop
      vertex 20.9948 10.0003 2.76538
      vertex 31.3871 16.0003 2.76538
      vertex 30.4687 17.5911 2.4
    endloop
  endfacet
  facet normal -0.0975451 0.168953 0.980785
    outer loop
      vertex 20.0764 11.5911 2.4
      vertex 20.9948 10.0003 2.76538
      vertex 30.4687 17.5911 2.4
    endloop
  endfacet
  facet normal 0.0975451 -0.168953 0.980785
    outer loop
      vertex 20.0764 11.5911 2.4
      vertex 30.4687 17.5911 2.4
      vertex 29.5503 19.1819 2.76538
    endloop
  endfacet
  facet normal 0.0975451 -0.168953 0.980785
    outer loop
      vertex 19.158 13.1819 2.76538
      vertex 20.0764 11.5911 2.4
      vertex 29.5503 19.1819 2.76538
    endloop
  endfacet
  facet normal 0.277785 -0.481138 0.83147
    outer loop
      vertex 19.158 13.1819 2.76538
      vertex 29.5503 19.1819 2.76538
      vertex 28.7716 20.5305 3.80589
    endloop
  endfacet
  facet normal 0.277785 -0.481138 0.83147
    outer loop
      vertex 18.3793 14.5305 3.80589
      vertex 19.158 13.1819 2.76538
      vertex 28.7716 20.5305 3.80589
    endloop
  endfacet
  facet normal 0.415735 -0.720074 0.55557
    outer loop
      vertex 18.3793 14.5305 3.80589
      vertex 28.7716 20.5305 3.80589
      vertex 28.2514 21.4316 5.36312
    endloop
  endfacet
  facet normal 0.415735 -0.720074 0.55557
    outer loop
      vertex 17.8591 15.4316 5.36312
      vertex 18.3793 14.5305 3.80589
      vertex 28.2514 21.4316 5.36312
    endloop
  endfacet
  facet normal 0.83147 0.55557 0
    outer loop
      vertex -4.43462 -18.3369 14.4
      vertex -3.39411 -19.8941 14.4
      vertex -3.39411 -19.8941 2.4
    endloop
  endfacet
  facet normal 0.83147 0.55557 0
    outer loop
      vertex -4.43462 -18.3369 2.4
      vertex -4.43462 -18.3369 14.4
      vertex -3.39411 -19.8941 2.4
    endloop
  endfacet
  facet normal 0.980785 0.19509 0
    outer loop
      vertex -4.8 -16.5 14.4
      vertex -4.43462 -18.3369 14.4
      vertex -4.43462 -18.3369 2.4
    endloop
  endfacet
  facet normal 0.980785 0.19509 0
    outer loop
      vertex -4.8 -16.5 2.4
      vertex -4.8 -16.5 14.4
      vertex -4.43462 -18.3369 2.4
    endloop
  endfacet
  facet normal 0.55557 0.83147 -0
    outer loop
      vertex -1.83688 -20.9346 14.4
      vertex -1.83688 -20.9346 2.4
      vertex -3.39411 -19.8941 14.4
    endloop
  endfacet
  facet normal 0.55557 0.83147 -0
    outer loop
      vertex -3.39411 -19.8941 14.4
      vertex -1.83688 -20.9346 2.4
      vertex -3.39411 -19.8941 2.4
    endloop
  endfacet
  facet normal 0.19509 0.980785 -0
    outer loop
      vertex 0 -21.3 14.4
      vertex 0 -21.3 2.4
      vertex -1.83688 -20.9346 14.4
    endloop
  endfacet
  facet normal 0.19509 0.980785 -0
    outer loop
      vertex -1.83688 -20.9346 14.4
      vertex 0 -21.3 2.4
      vertex -1.83688 -20.9346 2.4
    endloop
  endfacet
  facet normal -0.19509 0.980785 0
    outer loop
      vertex 1.83688 -20.9346 14.4
      vertex 1.83688 -20.9346 2.4
      vertex 0 -21.3 14.4
    endloop
  endfacet
  facet normal -0.19509 0.980785 0
    outer loop
      vertex 0 -21.3 14.4
      vertex 1.83688 -20.9346 2.4
      vertex 0 -21.3 2.4
    endloop
  endfacet
  facet normal -0.55557 0.83147 0
    outer loop
      vertex 3.39411 -19.8941 14.4
      vertex 3.39411 -19.8941 2.4
      vertex 1.83688 -20.9346 14.4
    endloop
  endfacet
  facet normal -0.55557 0.83147 0
    outer loop
      vertex 1.83688 -20.9346 14.4
      vertex 3.39411 -19.8941 2.4
      vertex 1.83688 -20.9346 2.4
    endloop
  endfacet
  facet normal -0.83147 0.55557 0
    outer loop
      vertex 4.43462 -18.3369 14.4
      vertex 4.43462 -18.3369 2.4
      vertex 3.39411 -19.8941 14.4
    endloop
  endfacet
  facet normal -0.83147 0.55557 0
    outer loop
      vertex 3.39411 -19.8941 14.4
      vertex 4.43462 -18.3369 2.4
      vertex 3.39411 -19.8941 2.4
    endloop
  endfacet
  facet normal -0.980785 0.19509 0
    outer loop
      vertex 4.8 -16.5 14.4
      vertex 4.8 -16.5 2.4
      vertex 4.43462 -18.3369 14.4
    endloop
  endfacet
  facet normal -0.980785 0.19509 0
    outer loop
      vertex 4.43462 -18.3369 14.4
      vertex 4.8 -16.5 2.4
      vertex 4.43462 -18.3369 2.4
    endloop
  endfacet
  facet normal -0.980785 -0.19509 0
    outer loop
      vertex 4.8 -16.5 14.4
      vertex 4.43462 -14.6631 14.4
      vertex 4.8 -16.5 2.4
    endloop
  endfacet
  facet normal -0.980785 -0.19509 0
    outer loop
      vertex 4.8 -16.5 2.4
      vertex 4.43462 -14.6631 14.4
      vertex 4.43462 -14.6631 2.4
    endloop
  endfacet
  facet normal -0.83147 -0.55557 0
    outer loop
      vertex 4.43462 -14.6631 14.4
      vertex 3.39411 -13.1059 14.4
      vertex 4.43462 -14.6631 2.4
    endloop
  endfacet
  facet normal -0.83147 -0.55557 0
    outer loop
      vertex 4.43462 -14.6631 2.4
      vertex 3.39411 -13.1059 14.4
      vertex 3.39411 -13.1059 2.4
    endloop
  endfacet
  facet normal -0.55557 -0.83147 -0
    outer loop
      vertex 3.39411 -13.1059 2.4
      vertex 3.39411 -13.1059 14.4
      vertex 1.83688 -12.0654 14.4
    endloop
  endfacet
  facet normal -0.55557 -0.83147 -0
    outer loop
      vertex 1.83688 -12.0654 2.4
      vertex 3.39411 -13.1059 2.4
      vertex 1.83688 -12.0654 14.4
    endloop
  endfacet
  facet normal -0.19509 -0.980785 -0
    outer loop
      vertex 1.83688 -12.0654 2.4
      vertex 1.83688 -12.0654 14.4
      vertex 0 -11.7 14.4
    endloop
  endfacet
  facet normal -0.19509 -0.980785 -0
    outer loop
      vertex 0 -11.7 2.4
      vertex 1.83688 -12.0654 2.4
      vertex 0 -11.7 14.4
    endloop
  endfacet
  facet normal 0.19509 -0.980785 0
    outer loop
      vertex 0 -11.7 2.4
      vertex 0 -11.7 14.4
      vertex -1.83688 -12.0654 14.4
    endloop
  endfacet
  facet normal 0.19509 -0.980785 0
    outer loop
      vertex -1.83688 -12.0654 2.4
      vertex 0 -11.7 2.4
      vertex -1.83688 -12.0654 14.4
    endloop
  endfacet
  facet normal 0.55557 -0.83147 0
    outer loop
      vertex -1.83688 -12.0654 2.4
      vertex -1.83688 -12.0654 14.4
      vertex -3.39411 -13.1059 14.4
    endloop
  endfacet
  facet normal 0.55557 -0.83147 0
    outer loop
      vertex -3.39411 -13.1059 2.4
      vertex -1.83688 -12.0654 2.4
      vertex -3.39411 -13.1059 14.4
    endloop
  endfacet
  facet normal 0.83147 -0.55557 0
    outer loop
      vertex -3.39411 -13.1059 2.4
      vertex -3.39411 -13.1059 14.4
      vertex -4.43462 -14.6631 14.4
    endloop
  endfacet
  facet normal 0.83147 -0.55557 0
    outer loop
      vertex -4.43462 -14.6631 2.4
      vertex -3.39411 -13.1059 2.4
      vertex -4.43462 -14.6631 14.4
    endloop
  endfacet
  facet normal 0.980785 -0.19509 0
    outer loop
      vertex -4.43462 -14.6631 2.4
      vertex -4.43462 -14.6631 14.4
      vertex -4.8 -16.5 14.4
    endloop
  endfacet
  facet normal 0.980785 -0.19509 0
    outer loop
      vertex -4.8 -16.5 2.4
      vertex -4.43462 -14.6631 2.4
      vertex -4.8 -16.5 14.4
    endloop
  endfacet
  facet normal 0.83147 0.55557 0
    outer loop
      vertex -4.43462 14.6631 14.4
      vertex -3.39411 13.1059 14.4
      vertex -3.39411 13.1059 2.4
    endloop
  endfacet
  facet normal 0.83147 0.55557 0
    outer loop
      vertex -4.43462 14.6631 2.4
      vertex -4.43462 14.6631 14.4
      vertex -3.39411 13.1059 2.4
    endloop
  endfacet
  facet normal 0.980785 0.19509 0
    outer loop
      vertex -4.8 16.5 14.4
      vertex -4.43462 14.6631 14.4
      vertex -4.43462 14.6631 2.4
    endloop
  endfacet
  facet normal 0.980785 0.19509 0
    outer loop
      vertex -4.8 16.5 2.4
      vertex -4.8 16.5 14.4
      vertex -4.43462 14.6631 2.4
    endloop
  endfacet
  facet normal 0.55557 0.83147 -0
    outer loop
      vertex -1.83688 12.0654 14.4
      vertex -1.83688 12.0654 2.4
      vertex -3.39411 13.1059 14.4
    endloop
  endfacet
  facet normal 0.55557 0.83147 -0
    outer loop
      vertex -3.39411 13.1059 14.4
      vertex -1.83688 12.0654 2.4
      vertex -3.39411 13.1059 2.4
    endloop
  endfacet
  facet normal 0.19509 0.980785 -0
    outer loop
      vertex 0 11.7 14.4
      vertex 0 11.7 2.4
      vertex -1.83688 12.0654 14.4
    endloop
  endfacet
  facet normal 0.19509 0.980785 -0
    outer loop
      vertex -1.83688 12.0654 14.4
      vertex 0 11.7 2.4
      vertex -1.83688 12.0654 2.4
    endloop
  endfacet
  facet normal -0.19509 0.980785 0
    outer loop
      vertex 1.83688 12.0654 14.4
      vertex 1.83688 12.0654 2.4
      vertex 0 11.7 14.4
    endloop
  endfacet
  facet normal -0.19509 0.980785 0
    outer loop
      vertex 0 11.7 14.4
      vertex 1.83688 12.0654 2.4
      vertex 0 11.7 2.4
    endloop
  endfacet
  facet normal -0.55557 0.83147 0
    outer loop
      vertex 3.39411 13.1059 14.4
      vertex 3.39411 13.1059 2.4
      vertex 1.83688 12.0654 14.4
    endloop
  endfacet
  facet normal -0.55557 0.83147 0
    outer loop
      vertex 1.83688 12.0654 14.4
      vertex 3.39411 13.1059 2.4
      vertex 1.83688 12.0654 2.4
    endloop
  endfacet
  facet normal -0.83147 0.55557 0
    outer loop
      vertex 4.43462 14.6631 14.4
      vertex 4.43462 14.6631 2.4
      vertex 3.39411 13.1059 14.4
    endloop
  endfacet
  facet normal -0.83147 0.55557 0
    outer loop
      vertex 3.39411 13.1059 14.4
      vertex 4.43462 14.6631 2.4
      vertex 3.39411 13.1059 2.4
    endloop
  endfacet
  facet normal -0.980785 0.19509 0
    outer loop
      vertex 4.8 16.5 14.4
      vertex 4.8 16.5 2.4
      vertex 4.43462 14.6631 14.4
    endloop
  endfacet
  facet normal -0.980785 0.19509 0
    outer loop
      vertex 4.43462 14.6631 14.4
      vertex 4.8 16.5 2.4
      vertex 4.43462 14.6631 2.4
    endloop
  endfacet
  facet normal -0.980785 -0.19509 0
    outer loop
      vertex 4.8 16.5 14.4
      vertex 4.43462 18.3369 14.4
      vertex 4.8 16.5 2.4
    endloop
  endfacet
  facet normal -0.980785 -0.19509 0
    outer loop
      vertex 4.8 16.5 2.4
      vertex 4.43462 18.3369 14.4
      vertex 4.43462 18.3369 2.4
    endloop
  endfacet
  facet normal -0.83147 -0.55557 0
    outer loop
      vertex 4.43462 18.3369 14.4
      vertex 3.39411 19.8941 14.4
      vertex 4.43462 18.3369 2.4
    endloop
  endfacet
  facet normal -0.83147 -0.55557 0
    outer loop
      vertex 4.43462 18.3369 2.4
      vertex 3.39411 19.8941 14.4
      vertex 3.39411 19.8941 2.4
    endloop
  endfacet
  facet normal -0.55557 -0.83147 -0
    outer loop
      vertex 3.39411 19.8941 2.4
      vertex 3.39411 19.8941 14.4
      vertex 1.83688 20.9346 14.4
    endloop
  endfacet
  facet normal -0.55557 -0.83147 -0
    outer loop
      vertex 1.83688 20.9346 2.4
      vertex 3.39411 19.8941 2.4
      vertex 1.83688 20.9346 14.4
    endloop
  endfacet
  facet normal -0.19509 -0.980785 -0
    outer loop
      vertex 1.83688 20.9346 2.4
      vertex 1.83688 20.9346 14.4
      vertex 0 21.3 14.4
    endloop
  endfacet
  facet normal -0.19509 -0.980785 -0
    outer loop
      vertex 0 21.3 2.4
      vertex 1.83688 20.9346 2.4
      vertex 0 21.3 14.4
    endloop
  endfacet
  facet normal 0.19509 -0.980785 0
    outer loop
      vertex 0 21.3 2.4
      vertex 0 21.3 14.4
      vertex -1.83688 20.9346 14.4
    endloop
  endfacet
  facet normal 0.19509 -0.980785 0
    outer loop
      vertex -1.83688 20.9346 2.4
      vertex 0 21.3 2.4
      vertex -1.83688 20.9346 14.4
    endloop
  endfacet
  facet normal 0.55557 -0.83147 0
    outer loop
      vertex -1.83688 20.9346 2.4
      vertex -1.83688 20.9346 14.4
      vertex -3.39411 19.8941 14.4
    endloop
  endfacet
  facet normal 0.55557 -0.83147 0
    outer loop
      vertex -3.39411 19.8941 2.4
      vertex -1.83688 20.9346 2.4
      vertex -3.39411 19.8941 14.4
    endloop
  endfacet
  facet normal 0.83147 -0.55557 0
    outer loop
      vertex -3.39411 19.8941 2.4
      vertex -3.39411 19.8941 14.4
      vertex -4.43462 18.3369 14.4
    endloop
  endfacet
  facet normal 0.83147 -0.55557 0
    outer loop
      vertex -4.43462 18.3369 2.4
      vertex -3.39411 19.8941 2.4
      vertex -4.43462 18.3369 14.4
    endloop
  endfacet
  facet normal 0.980785 -0.19509 0
    outer loop
      vertex -4.43462 18.3369 2.4
      vertex -4.43462 18.3369 14.4
      vertex -4.8 16.5 14.4
    endloop
  endfacet
  facet normal 0.980785 -0.19509 0
    outer loop
      vertex -4.8 16.5 2.4
      vertex -4.43462 18.3369 2.4
      vertex -4.8 16.5 14.4
    endloop
  endfacet
  facet normal 0.866025 -0.5 -1.07725e-15
    outer loop
      vertex 17.8591 -15.4316 5.36312
      vertex 18.3793 -14.5305 3.80589
      vertex 19.158 -13.1819 2.76538
    endloop
  endfacet
  facet normal 0.866025 -0.5 5.0437e-16
    outer loop
      vertex 20.9948 -10.0003 2.76538
      vertex 17.8591 -15.4316 5.36312
      vertex 20.0764 -11.5911 2.4
    endloop
  endfacet
  facet normal 0.866025 -0.5 9.16318e-16
    outer loop
      vertex 20.0764 -11.5911 2.4
      vertex 17.8591 -15.4316 5.36312
      vertex 19.158 -13.1819 2.76538
    endloop
  endfacet
  facet normal 0.866025 -0.5 1.01526e-15
    outer loop
      vertex 21.7734 -8.65172 3.80589
      vertex 17.8591 -15.4316 5.36312
      vertex 20.9948 -10.0003 2.76538
    endloop
  endfacet
  facet normal 0.866025 -0.5 -4.70368e-17
    outer loop
      vertex 22.2937 -7.75061 5.36312
      vertex 17.8591 -15.4316 5.36312
      vertex 21.7734 -8.65172 3.80589
    endloop
  endfacet
  facet normal 0.866025 -0.5 2.08291e-16
    outer loop
      vertex 22.4764 -7.43419 7.2
      vertex 17.8591 -15.4316 5.36312
      vertex 22.2937 -7.75061 5.36312
    endloop
  endfacet
  facet normal 0.866025 -0.5 4.091e-17
    outer loop
      vertex 22.2937 -7.75061 9.03688
      vertex 17.8591 -15.4316 5.36312
      vertex 22.4764 -7.43419 7.2
    endloop
  endfacet
  facet normal 0.866025 -0.5 -1.66587e-16
    outer loop
      vertex 21.7734 -8.65172 10.5941
      vertex 17.8591 -15.4316 5.36312
      vertex 22.2937 -7.75061 9.03688
    endloop
  endfacet
  facet normal 0.866025 -0.5 8.07268e-16
    outer loop
      vertex 20.9948 -10.0003 11.6346
      vertex 17.8591 -15.4316 5.36312
      vertex 21.7734 -8.65172 10.5941
    endloop
  endfacet
  facet normal 0.866025 -0.5 1.65628e-16
    outer loop
      vertex 20.0764 -11.5911 12
      vertex 17.8591 -15.4316 5.36312
      vertex 20.9948 -10.0003 11.6346
    endloop
  endfacet
  facet normal 0.866025 -0.5 -7.30684e-16
    outer loop
      vertex 19.158 -13.1819 11.6346
      vertex 17.8591 -15.4316 5.36312
      vertex 20.0764 -11.5911 12
    endloop
  endfacet
  facet normal 0.866025 -0.5 1.10263e-16
    outer loop
      vertex 18.3793 -14.5305 10.5941
      vertex 17.8591 -15.4316 5.36312
      vertex 19.158 -13.1819 11.6346
    endloop
  endfacet
  facet normal 0.866025 -0.5 0
    outer loop
      vertex 17.8591 -15.4316 9.03688
      vertex 17.8591 -15.4316 5.36312
      vertex 18.3793 -14.5305 10.5941
    endloop
  endfacet
  facet normal 0.866025 -0.5 0
    outer loop
      vertex 17.6764 -15.748 7.2
      vertex 17.8591 -15.4316 5.36312
      vertex 17.8591 -15.4316 9.03688
    endloop
  endfacet
  facet normal 1 0 0
    outer loop
      vertex 23.1822 -1.83688 11.6346
      vertex 23.1822 -3.39411 10.5941
      vertex 23.1822 -4.43462 9.03688
    endloop
  endfacet
  facet normal 1 9.2393e-16 1.83781e-16
    outer loop
      vertex 23.1822 -4.43462 5.36312
      vertex 23.1822 -1.83688 11.6346
      vertex 23.1822 -4.8 7.2
    endloop
  endfacet
  facet normal 1 -2.41435e-15 2.41435e-15
    outer loop
      vertex 23.1822 -4.8 7.2
      vertex 23.1822 -1.83688 11.6346
      vertex 23.1822 -4.43462 9.03688
    endloop
  endfacet
  facet normal 1 5.23364e-16 3.49701e-16
    outer loop
      vertex 23.1822 -3.39411 3.80589
      vertex 23.1822 -1.83688 11.6346
      vertex 23.1822 -4.43462 5.36312
    endloop
  endfacet
  facet normal 1 2.67649e-16 4.00566e-16
    outer loop
      vertex 23.1822 -1.83688 2.76538
      vertex 23.1822 -1.83688 11.6346
      vertex 23.1822 -3.39411 3.80589
    endloop
  endfacet
  facet normal 1 7.96774e-17 4.00566e-16
    outer loop
      vertex 23.1822 0 2.4
      vertex 23.1822 -1.83688 11.6346
      vertex 23.1822 -1.83688 2.76538
    endloop
  endfacet
  facet normal 1 -7.36123e-17 3.70074e-16
    outer loop
      vertex 23.1822 1.83688 2.76538
      vertex 23.1822 -1.83688 11.6346
      vertex 23.1822 0 2.4
    endloop
  endfacet
  facet normal 1 -2.0963e-16 3.13734e-16
    outer loop
      vertex 23.1822 3.39411 3.80589
      vertex 23.1822 -1.83688 11.6346
      vertex 23.1822 1.83688 2.76538
    endloop
  endfacet
  facet normal 1 -3.39583e-16 2.26902e-16
    outer loop
      vertex 23.1822 4.43462 5.36312
      vertex 23.1822 -1.83688 11.6346
      vertex 23.1822 3.39411 3.80589
    endloop
  endfacet
  facet normal 1 -4.72499e-16 9.39859e-17
    outer loop
      vertex 23.1822 4.8 7.2
      vertex 23.1822 -1.83688 11.6346
      vertex 23.1822 4.43462 5.36312
    endloop
  endfacet
  facet normal 1 8.73065e-16 2.10777e-15
    outer loop
      vertex 23.1822 4.43462 9.03688
      vertex 23.1822 -1.83688 11.6346
      vertex 23.1822 4.8 7.2
    endloop
  endfacet
  facet normal 1 -0 -0
    outer loop
      vertex 23.1822 3.39411 10.5941
      vertex 23.1822 -1.83688 11.6346
      vertex 23.1822 4.43462 9.03688
    endloop
  endfacet
  facet normal 1 0 -0
    outer loop
      vertex 23.1822 1.83688 11.6346
      vertex 23.1822 -1.83688 11.6346
      vertex 23.1822 3.39411 10.5941
    endloop
  endfacet
  facet normal 1 0 -0
    outer loop
      vertex 23.1822 0 12
      vertex 23.1822 -1.83688 11.6346
      vertex 23.1822 1.83688 11.6346
    endloop
  endfacet
  facet normal 0.866025 0.5 4.0655e-16
    outer loop
      vertex 17.8591 15.4316 9.03688
      vertex 18.3793 14.5305 10.5941
      vertex 19.158 13.1819 11.6346
    endloop
  endfacet
  facet normal 0.866025 0.5 3.10455e-16
    outer loop
      vertex 20.9948 10.0003 11.6346
      vertex 17.8591 15.4316 9.03688
      vertex 20.0764 11.5911 12
    endloop
  endfacet
  facet normal 0.866025 0.5 -1.97126e-15
    outer loop
      vertex 20.0764 11.5911 12
      vertex 17.8591 15.4316 9.03688
      vertex 19.158 13.1819 11.6346
    endloop
  endfacet
  facet normal 0.866025 0.5 1.21758e-15
    outer loop
      vertex 21.7734 8.65172 10.5941
      vertex 17.8591 15.4316 9.03688
      vertex 20.9948 10.0003 11.6346
    endloop
  endfacet
  facet normal 0.866025 0.5 -2.26761e-16
    outer loop
      vertex 22.2937 7.75061 9.03688
      vertex 17.8591 15.4316 9.03688
      vertex 21.7734 8.65172 10.5941
    endloop
  endfacet
  facet normal 0.866025 0.5 4.33488e-17
    outer loop
      vertex 22.4764 7.43419 7.2
      vertex 17.8591 15.4316 9.03688
      vertex 22.2937 7.75061 9.03688
    endloop
  endfacet
  facet normal 0.866025 0.5 1.75338e-16
    outer loop
      vertex 22.2937 7.75061 5.36312
      vertex 17.8591 15.4316 9.03688
      vertex 22.4764 7.43419 7.2
    endloop
  endfacet
  facet normal 0.866025 0.5 -4.22693e-17
    outer loop
      vertex 21.7734 8.65172 3.80589
      vertex 17.8591 15.4316 9.03688
      vertex 22.2937 7.75061 5.36312
    endloop
  endfacet
  facet normal 0.866025 0.5 6.41744e-16
    outer loop
      vertex 20.9948 10.0003 2.76538
      vertex 17.8591 15.4316 9.03688
      vertex 21.7734 8.65172 3.80589
    endloop
  endfacet
  facet normal 0.866025 0.5 2.16285e-16
    outer loop
      vertex 20.0764 11.5911 2.4
      vertex 17.8591 15.4316 9.03688
      vertex 20.9948 10.0003 2.76538
    endloop
  endfacet
  facet normal 0.866025 0.5 3.17835e-16
    outer loop
      vertex 19.158 13.1819 2.76538
      vertex 17.8591 15.4316 9.03688
      vertex 20.0764 11.5911 2.4
    endloop
  endfacet
  facet normal 0.866025 0.5 -2.38594e-16
    outer loop
      vertex 18.3793 14.5305 3.80589
      vertex 17.8591 15.4316 9.03688
      vertex 19.158 13.1819 2.76538
    endloop
  endfacet
  facet normal 0.866025 0.5 0
    outer loop
      vertex 17.8591 15.4316 5.36312
      vertex 17.8591 15.4316 9.03688
      vertex 18.3793 14.5305 3.80589
    endloop
  endfacet
  facet normal 0.866025 0.5 0
    outer loop
      vertex 17.6764 15.748 7.2
      vertex 17.8591 15.4316 9.03688
      vertex 17.8591 15.4316 5.36312
    endloop
  endfacet
  facet normal 0 0 1
    outer loop
      vertex -4.43462 -18.3369 2.4
      vertex -3.39411 -19.8941 2.4
      vertex -1.83688 -20.9346 2.4
    endloop
  endfacet
  facet normal -0 0 1
    outer loop
      vertex 1.83688 -20.9346 2.4
      vertex -4.43462 -18.3369 2.4
      vertex 0 -21.3 2.4
    endloop
  endfacet
  facet normal 0 0 1
    outer loop
      vertex 0 -21.3 2.4
      vertex -4.43462 -18.3369 2.4
      vertex -1.83688 -20.9346 2.4
    endloop
  endfacet
  facet normal -0 0 1
    outer loop
      vertex 3.39411 -19.8941 2.4
      vertex -4.43462 -18.3369 2.4
      vertex 1.83688 -20.9346 2.4
    endloop
  endfacet
  facet normal 0 0 1
    outer loop
      vertex 4.43462 -18.3369 2.4
      vertex -4.43462 -18.3369 2.4
      vertex 3.39411 -19.8941 2.4
    endloop
  endfacet
  facet normal 0 0 1
    outer loop
      vertex 4.8 -16.5 2.4
      vertex -4.43462 -18.3369 2.4
      vertex 4.43462 -18.3369 2.4
    endloop
  endfacet
  facet normal 0 -0 1
    outer loop
      vertex 4.43462 -14.6631 2.4
      vertex -4.43462 -18.3369 2.4
      vertex 4.8 -16.5 2.4
    endloop
  endfacet
  facet normal 0 -0 1
    outer loop
      vertex 3.39411 -13.1059 2.4
      vertex -4.43462 -18.3369 2.4
      vertex 4.43462 -14.6631 2.4
    endloop
  endfacet
  facet normal 0 -0 1
    outer loop
      vertex 1.83688 -12.0654 2.4
      vertex -4.43462 -18.3369 2.4
      vertex 3.39411 -13.1059 2.4
    endloop
  endfacet
  facet normal 0 -0 1
    outer loop
      vertex 0 -11.7 2.4
      vertex -4.43462 -18.3369 2.4
      vertex 1.83688 -12.0654 2.4
    endloop
  endfacet
  facet normal 0 -0 1
    outer loop
      vertex -1.83688 -12.0654 2.4
      vertex -4.43462 -18.3369 2.4
      vertex 0 -11.7 2.4
    endloop
  endfacet
  facet normal 0 -0 1
    outer loop
      vertex -3.39411 -13.1059 2.4
      vertex -4.43462 -18.3369 2.4
      vertex -1.83688 -12.0654 2.4
    endloop
  endfacet
  facet normal 0 -0 1
    outer loop
      vertex -4.43462 -14.6631 2.4
      vertex -4.43462 -18.3369 2.4
      vertex -3.39411 -13.1059 2.4
    endloop
  endfacet
  facet normal 0 0 1
    outer loop
      vertex -4.8 -16.5 2.4
      vertex -4.43462 -18.3369 2.4
      vertex -4.43462 -14.6631 2.4
    endloop
  endfacet
  facet normal 0 0 1
    outer loop
      vertex -4.43462 14.6631 2.4
      vertex -3.39411 13.1059 2.4
      vertex -1.83688 12.0654 2.4
    endloop
  endfacet
  facet normal -0 0 1
    outer loop
      vertex 1.83688 12.0654 2.4
      vertex -4.43462 14.6631 2.4
      vertex 0 11.7 2.4
    endloop
  endfacet
  facet normal 0 0 1
    outer loop
      vertex 0 11.7 2.4
      vertex -4.43462 14.6631 2.4
      vertex -1.83688 12.0654 2.4
    endloop
  endfacet
  facet normal -0 0 1
    outer loop
      vertex 3.39411 13.1059 2.4
      vertex -4.43462 14.6631 2.4
      vertex 1.83688 12.0654 2.4
    endloop
  endfacet
  facet normal 0 0 1
    outer loop
      vertex 4.43462 14.6631 2.4
      vertex -4.43462 14.6631 2.4
      vertex 3.39411 13.1059 2.4
    endloop
  endfacet
  facet normal 0 0 1
    outer loop
      vertex 4.8 16.5 2.4
      vertex -4.43462 14.6631 2.4
      vertex 4.43462 14.6631 2.4
    endloop
  endfacet
  facet normal 0 -0 1
    outer loop
      vertex 4.43462 18.3369 2.4
      vertex -4.43462 14.6631 2.4
      vertex 4.8 16.5 2.4
    endloop
  endfacet
  facet normal 0 -0 1
    outer loop
      vertex 3.39411 19.8941 2.4
      vertex -4.43462 14.6631 2.4
      vertex 4.43462 18.3369 2.4
    endloop
  endfacet
  facet normal 0 -0 1
    outer loop
      vertex 1.83688 20.9346 2.4
      vertex -4.43462 14.6631 2.4
      vertex 3.39411 19.8941 2.4
    endloop
  endfacet
  facet normal 0 -0 1
    outer loop
      vertex 0 21.3 2.4
      vertex -4.43462 14.6631 2.4
      vertex 1.83688 20.9346 2.4
    endloop
  endfacet
  facet normal 0 -0 1
    outer loop
      vertex -1.83688 20.9346 2.4
      vertex -4.43462 14.6631 2.4
      vertex 0 21.3 2.4
    endloop
  endfacet
  facet normal 0 -0 1
    outer loop
      vertex -3.39411 19.8941 2.4
      vertex -4.43462 14.6631 2.4
      vertex -1.83688 20.9346 2.4
    endloop
  endfacet
  facet normal 0 -0 1
    outer loop
      vertex -4.43462 18.3369 2.4
      vertex -4.43462 14.6631 2.4
      vertex -3.39411 19.8941 2.4
    endloop
  endfacet
  facet normal 0 0 1
    outer loop
      vertex -4.8 16.5 2.4
      vertex -4.43462 14.6631 2.4
      vertex -4.43462 18.3369 2.4
    endloop
  endfacet
endsolid OpenSCAD_Model
