solid Default
  facet normal -1.000000e+00 -0.000000e+00 -0.000000e+00
    outer loop
      vertex -2.150000e+01 -1.250000e+01 0.000000e+00
      vertex -2.150000e+01 -1.250000e+01 5.000000e+00
      vertex -2.150000e+01 1.250000e+01 0.000000e+00
    endloop
  endfacet
  facet normal -1.000000e+00 0.000000e+00 0.000000e+00
    outer loop
      vertex -2.150000e+01 1.250000e+01 0.000000e+00
      vertex -2.150000e+01 -1.250000e+01 5.000000e+00
      vertex -2.150000e+01 1.250000e+01 5.000000e+00
    endloop
  endfacet
  facet normal 0.000000e+00 -1.000000e+00 0.000000e+00
    outer loop
      vertex -2.150000e+01 -1.250000e+01 5.000000e+00
      vertex -2.150000e+01 -1.250000e+01 0.000000e+00
      vertex -4.191999e+00 -1.250000e+01 0.000000e+00
    endloop
  endfacet
  facet normal 0.000000e+00 -1.000000e+00 0.000000e+00
    outer loop
      vertex -1.836901e+00 -1.250000e+01 2.234620e+00
      vertex -2.150000e+01 -1.250000e+01 5.000000e+00
      vertex -3.394100e+00 -1.250000e+01 1.194110e+00
    endloop
  endfacet
  facet normal 0.000000e+00 -1.000000e+00 0.000000e+00
    outer loop
      vertex -3.394100e+00 -1.250000e+01 1.194110e+00
      vertex -2.150000e+01 -1.250000e+01 5.000000e+00
      vertex -4.191999e+00 -1.250000e+01 0.000000e+00
    endloop
  endfacet
  facet normal 0.000000e+00 -1.000000e+00 0.000000e+00
    outer loop
      vertex 0.000000e+00 -1.250000e+01 2.600000e+00
      vertex -2.150000e+01 -1.250000e+01 5.000000e+00
      vertex -1.836901e+00 -1.250000e+01 2.234620e+00
    endloop
  endfacet
  facet normal 0.000000e+00 -1.000000e+00 0.000000e+00
    outer loop
      vertex 1.500000e+00 -1.250000e+01 5.000000e+00
      vertex -2.150000e+01 -1.250000e+01 5.000000e+00
      vertex 0.000000e+00 -1.250000e+01 2.600000e+00
    endloop
  endfacet
  facet normal 0.000000e+00 -1.000000e+00 0.000000e+00
    outer loop
      vertex 2.150000e+01 -1.250000e+01 0.000000e+00
      vertex 0.000000e+00 -1.250000e+01 2.600000e+00
      vertex 1.836901e+00 -1.250000e+01 2.234620e+00
    endloop
  endfacet
  facet normal 0.000000e+00 -1.000000e+00 0.000000e+00
    outer loop
      vertex 2.150000e+01 -1.250000e+01 0.000000e+00
      vertex 1.836901e+00 -1.250000e+01 2.234620e+00
      vertex 3.394100e+00 -1.250000e+01 1.194110e+00
    endloop
  endfacet
  facet normal 0.000000e+00 -1.000000e+00 0.000000e+00
    outer loop
      vertex 2.150000e+01 -1.250000e+01 0.000000e+00
      vertex 3.394100e+00 -1.250000e+01 1.194110e+00
      vertex 4.191999e+00 -1.250000e+01 0.000000e+00
    endloop
  endfacet
  facet normal 0.000000e+00 -1.000000e+00 0.000000e+00
    outer loop
      vertex 2.150000e+01 -1.250000e+01 1.450000e+01
      vertex 0.000000e+00 -1.250000e+01 2.600000e+00
      vertex 2.150000e+01 -1.250000e+01 0.000000e+00
    endloop
  endfacet
  facet normal 0.000000e+00 -1.000000e+00 0.000000e+00
    outer loop
      vertex 2.150000e+01 -1.250000e+01 1.450000e+01
      vertex 1.500000e+00 -1.250000e+01 5.000000e+00
      vertex 0.000000e+00 -1.250000e+01 2.600000e+00
    endloop
  endfacet
  facet normal 0.000000e+00 -1.000000e+00 0.000000e+00
    outer loop
      vertex 1.500000e+00 -1.250000e+01 1.450000e+01
      vertex 1.500000e+00 -1.250000e+01 5.000000e+00
      vertex 2.150000e+01 -1.250000e+01 1.450000e+01
    endloop
  endfacet
  facet normal -0.000000e+00 -0.000000e+00 -1.000000e+00
    outer loop
      vertex -2.150000e+01 -1.250000e+01 0.000000e+00
      vertex -2.150000e+01 1.250000e+01 0.000000e+00
      vertex -4.191999e+00 -1.250000e+01 0.000000e+00
    endloop
  endfacet
  facet normal 0.000000e+00 0.000000e+00 -1.000000e+00
    outer loop
      vertex -6.800000e+00 5.750000e+00 0.000000e+00
      vertex -2.150000e+01 1.250000e+01 0.000000e+00
      vertex -4.191999e+00 1.250000e+01 0.000000e+00
    endloop
  endfacet
  facet normal 0.000000e+00 0.000000e+00 -1.000000e+00
    outer loop
      vertex -6.800000e+00 1.750000e+00 0.000000e+00
      vertex -2.150000e+01 1.250000e+01 0.000000e+00
      vertex -6.800000e+00 5.750000e+00 0.000000e+00
    endloop
  endfacet
  facet normal 0.000000e+00 0.000000e+00 -1.000000e+00
    outer loop
      vertex -4.799999e+00 5.750000e+00 0.000000e+00
      vertex -6.800000e+00 5.750000e+00 0.000000e+00
      vertex -4.191999e+00 1.250000e+01 0.000000e+00
    endloop
  endfacet
  facet normal 0.000000e+00 0.000000e+00 -1.000000e+00
    outer loop
      vertex -4.191999e+00 -1.250000e+01 0.000000e+00
      vertex -2.150000e+01 1.250000e+01 0.000000e+00
      vertex -6.800000e+00 1.750000e+00 0.000000e+00
    endloop
  endfacet
  facet normal 0.000000e+00 0.000000e+00 -1.000000e+00
    outer loop
      vertex -4.191999e+00 -1.250000e+01 0.000000e+00
      vertex -4.799999e+00 1.750000e+00 0.000000e+00
      vertex -4.191999e+00 1.250000e+01 0.000000e+00
    endloop
  endfacet
  facet normal 0.000000e+00 0.000000e+00 -1.000000e+00
    outer loop
      vertex -4.799999e+00 1.750000e+00 0.000000e+00
      vertex -4.799999e+00 5.750000e+00 0.000000e+00
      vertex -4.191999e+00 1.250000e+01 0.000000e+00
    endloop
  endfacet
  facet normal 0.000000e+00 0.000000e+00 -1.000000e+00
    outer loop
      vertex -4.799999e+00 1.750000e+00 0.000000e+00
      vertex -4.191999e+00 -1.250000e+01 0.000000e+00
      vertex -6.800000e+00 1.750000e+00 0.000000e+00
    endloop
  endfacet
  facet normal 0.000000e+00 1.000000e+00 0.000000e+00
    outer loop
      vertex -2.150000e+01 1.250000e+01 0.000000e+00
      vertex -2.150000e+01 1.250000e+01 5.000000e+00
      vertex -4.191999e+00 1.250000e+01 0.000000e+00
    endloop
  endfacet
  facet normal 0.000000e+00 1.000000e+00 0.000000e+00
    outer loop
      vertex 0.000000e+00 1.250000e+01 2.600000e+00
      vertex -2.150000e+01 1.250000e+01 5.000000e+00
      vertex 2.150000e+01 1.250000e+01 5.000000e+00
    endloop
  endfacet
  facet normal 0.000000e+00 1.000000e+00 0.000000e+00
    outer loop
      vertex 4.191999e+00 1.250000e+01 0.000000e+00
      vertex 2.150000e+01 1.250000e+01 5.000000e+00
      vertex 2.150000e+01 1.250000e+01 0.000000e+00
    endloop
  endfacet
  facet normal 0.000000e+00 1.000000e+00 0.000000e+00
    outer loop
      vertex 3.394100e+00 1.250000e+01 1.194110e+00
      vertex 2.150000e+01 1.250000e+01 5.000000e+00
      vertex 4.191999e+00 1.250000e+01 0.000000e+00
    endloop
  endfacet
  facet normal 0.000000e+00 1.000000e+00 0.000000e+00
    outer loop
      vertex -1.836901e+00 1.250000e+01 2.234620e+00
      vertex -2.150000e+01 1.250000e+01 5.000000e+00
      vertex 0.000000e+00 1.250000e+01 2.600000e+00
    endloop
  endfacet
  facet normal 0.000000e+00 1.000000e+00 0.000000e+00
    outer loop
      vertex 1.836901e+00 1.250000e+01 2.234620e+00
      vertex 0.000000e+00 1.250000e+01 2.600000e+00
      vertex 2.150000e+01 1.250000e+01 5.000000e+00
    endloop
  endfacet
  facet normal 0.000000e+00 1.000000e+00 0.000000e+00
    outer loop
      vertex -3.394100e+00 1.250000e+01 1.194110e+00
      vertex -2.150000e+01 1.250000e+01 5.000000e+00
      vertex -1.836901e+00 1.250000e+01 2.234620e+00
    endloop
  endfacet
  facet normal 0.000000e+00 1.000000e+00 0.000000e+00
    outer loop
      vertex -4.191999e+00 1.250000e+01 0.000000e+00
      vertex -2.150000e+01 1.250000e+01 5.000000e+00
      vertex -3.394100e+00 1.250000e+01 1.194110e+00
    endloop
  endfacet
  facet normal 0.000000e+00 1.000000e+00 0.000000e+00
    outer loop
      vertex 1.836901e+00 1.250000e+01 2.234620e+00
      vertex 2.150000e+01 1.250000e+01 5.000000e+00
      vertex 3.394100e+00 1.250000e+01 1.194110e+00
    endloop
  endfacet
  facet normal 0.000000e+00 0.000000e+00 1.000000e+00
    outer loop
      vertex -2.150000e+01 1.250000e+01 5.000000e+00
      vertex -2.150000e+01 -1.250000e+01 5.000000e+00
      vertex 1.500000e+00 -1.250000e+01 5.000000e+00
    endloop
  endfacet
  facet normal 0.000000e+00 0.000000e+00 1.000000e+00
    outer loop
      vertex -6.800000e+00 1.750000e+00 5.000000e+00
      vertex -6.800000e+00 5.750000e+00 5.000000e+00
      vertex -2.150000e+01 1.250000e+01 5.000000e+00
    endloop
  endfacet
  facet normal 0.000000e+00 0.000000e+00 1.000000e+00
    outer loop
      vertex -6.800000e+00 1.750000e+00 5.000000e+00
      vertex -2.150000e+01 1.250000e+01 5.000000e+00
      vertex 1.500000e+00 -1.250000e+01 5.000000e+00
    endloop
  endfacet
  facet normal 0.000000e+00 0.000000e+00 1.000000e+00
    outer loop
      vertex 4.799999e+00 1.750000e+00 5.000000e+00
      vertex 4.799999e+00 5.750000e+00 5.000000e+00
      vertex -4.799999e+00 5.750000e+00 5.000000e+00
    endloop
  endfacet
  facet normal 0.000000e+00 0.000000e+00 1.000000e+00
    outer loop
      vertex 1.500000e+00 -4.000000e+00 5.000000e+00
      vertex -6.800000e+00 1.750000e+00 5.000000e+00
      vertex 1.500000e+00 -1.250000e+01 5.000000e+00
    endloop
  endfacet
  facet normal 0.000000e+00 0.000000e+00 1.000000e+00
    outer loop
      vertex -4.799999e+00 5.750000e+00 5.000000e+00
      vertex -2.150000e+01 1.250000e+01 5.000000e+00
      vertex -6.800000e+00 5.750000e+00 5.000000e+00
    endloop
  endfacet
  facet normal 0.000000e+00 0.000000e+00 1.000000e+00
    outer loop
      vertex -4.799999e+00 5.750000e+00 5.000000e+00
      vertex 4.799999e+00 5.750000e+00 5.000000e+00
      vertex -2.150000e+01 1.250000e+01 5.000000e+00
    endloop
  endfacet
  facet normal 0.000000e+00 0.000000e+00 1.000000e+00
    outer loop
      vertex 6.799999e+00 5.750000e+00 5.000000e+00
      vertex 6.799999e+00 1.750000e+00 5.000000e+00
      vertex 2.150000e+01 -4.000000e+00 5.000000e+00
    endloop
  endfacet
  facet normal 0.000000e+00 0.000000e+00 1.000000e+00
    outer loop
      vertex 2.150000e+01 -4.000000e+00 5.000000e+00
      vertex 4.799999e+00 1.750000e+00 5.000000e+00
      vertex 1.500000e+00 -4.000000e+00 5.000000e+00
    endloop
  endfacet
  facet normal 0.000000e+00 0.000000e+00 1.000000e+00
    outer loop
      vertex 6.799999e+00 1.750000e+00 5.000000e+00
      vertex 4.799999e+00 1.750000e+00 5.000000e+00
      vertex 2.150000e+01 -4.000000e+00 5.000000e+00
    endloop
  endfacet
  facet normal 0.000000e+00 0.000000e+00 1.000000e+00
    outer loop
      vertex 2.150000e+01 1.250000e+01 5.000000e+00
      vertex -2.150000e+01 1.250000e+01 5.000000e+00
      vertex 4.799999e+00 5.750000e+00 5.000000e+00
    endloop
  endfacet
  facet normal 0.000000e+00 0.000000e+00 1.000000e+00
    outer loop
      vertex 2.150000e+01 1.250000e+01 5.000000e+00
      vertex 6.799999e+00 5.750000e+00 5.000000e+00
      vertex 2.150000e+01 -4.000000e+00 5.000000e+00
    endloop
  endfacet
  facet normal 0.000000e+00 0.000000e+00 1.000000e+00
    outer loop
      vertex 2.150000e+01 1.250000e+01 5.000000e+00
      vertex 4.799999e+00 5.750000e+00 5.000000e+00
      vertex 6.799999e+00 5.750000e+00 5.000000e+00
    endloop
  endfacet
  facet normal 0.000000e+00 0.000000e+00 1.000000e+00
    outer loop
      vertex -4.799999e+00 1.750000e+00 5.000000e+00
      vertex -6.800000e+00 1.750000e+00 5.000000e+00
      vertex 1.500000e+00 -4.000000e+00 5.000000e+00
    endloop
  endfacet
  facet normal 0.000000e+00 0.000000e+00 1.000000e+00
    outer loop
      vertex -4.799999e+00 5.750000e+00 5.000000e+00
      vertex 1.500000e+00 -4.000000e+00 5.000000e+00
      vertex 4.799999e+00 1.750000e+00 5.000000e+00
    endloop
  endfacet
  facet normal 0.000000e+00 0.000000e+00 1.000000e+00
    outer loop
      vertex -4.799999e+00 5.750000e+00 5.000000e+00
      vertex -4.799999e+00 1.750000e+00 5.000000e+00
      vertex 1.500000e+00 -4.000000e+00 5.000000e+00
    endloop
  endfacet
  facet normal -1.000000e+00 0.000000e+00 0.000000e+00
    outer loop
      vertex 1.500000e+00 -4.000000e+00 8.000000e+00
      vertex 1.500000e+00 -4.000000e+00 5.000000e+00
      vertex 1.500000e+00 -7.500000e+00 8.000000e+00
    endloop
  endfacet
  facet normal -1.000000e+00 0.000000e+00 0.000000e+00
    outer loop
      vertex 1.500000e+00 -4.000000e+00 1.200000e+01
      vertex 1.500000e+00 -1.250000e+01 1.450000e+01
      vertex 1.500000e+00 -4.000000e+00 1.450000e+01
    endloop
  endfacet
  facet normal -1.000000e+00 -0.000000e+00 -0.000000e+00
    outer loop
      vertex 1.500000e+00 -7.500000e+00 1.200000e+01
      vertex 1.500000e+00 -1.250000e+01 1.450000e+01
      vertex 1.500000e+00 -4.000000e+00 1.200000e+01
    endloop
  endfacet
  facet normal -1.000000e+00 0.000000e+00 0.000000e+00
    outer loop
      vertex 1.500000e+00 -1.250000e+01 5.000000e+00
      vertex 1.500000e+00 -1.250000e+01 1.450000e+01
      vertex 1.500000e+00 -7.500000e+00 8.000000e+00
    endloop
  endfacet
  facet normal -1.000000e+00 0.000000e+00 0.000000e+00
    outer loop
      vertex 1.500000e+00 -1.250000e+01 5.000000e+00
      vertex 1.500000e+00 -7.500000e+00 8.000000e+00
      vertex 1.500000e+00 -4.000000e+00 5.000000e+00
    endloop
  endfacet
  facet normal -1.000000e+00 0.000000e+00 0.000000e+00
    outer loop
      vertex 1.500000e+00 -7.500000e+00 8.000000e+00
      vertex 1.500000e+00 -1.250000e+01 1.450000e+01
      vertex 1.500000e+00 -7.500000e+00 1.200000e+01
    endloop
  endfacet
  facet normal 0.000000e+00 0.000000e+00 1.000000e+00
    outer loop
      vertex 1.500000e+00 -4.000000e+00 1.450000e+01
      vertex 1.500000e+00 -1.250000e+01 1.450000e+01
      vertex 2.150000e+01 -1.250000e+01 1.450000e+01
    endloop
  endfacet
  facet normal 0.000000e+00 0.000000e+00 1.000000e+00
    outer loop
      vertex 2.150000e+01 -4.000000e+00 1.450000e+01
      vertex 1.500000e+00 -4.000000e+00 1.450000e+01
      vertex 2.150000e+01 -1.250000e+01 1.450000e+01
    endloop
  endfacet
  facet normal 1.000000e+00 0.000000e+00 0.000000e+00
    outer loop
      vertex 2.150000e+01 -4.000000e+00 5.000000e+00
      vertex 2.150000e+01 -1.250000e+01 0.000000e+00
      vertex 2.150000e+01 1.250000e+01 0.000000e+00
    endloop
  endfacet
  facet normal 1.000000e+00 0.000000e+00 0.000000e+00
    outer loop
      vertex 2.150000e+01 -4.000000e+00 5.000000e+00
      vertex 2.150000e+01 -4.000000e+00 1.450000e+01
      vertex 2.150000e+01 -1.250000e+01 1.450000e+01
    endloop
  endfacet
  facet normal 1.000000e+00 0.000000e+00 0.000000e+00
    outer loop
      vertex 2.150000e+01 -1.250000e+01 1.450000e+01
      vertex 2.150000e+01 -1.250000e+01 0.000000e+00
      vertex 2.150000e+01 -4.000000e+00 5.000000e+00
    endloop
  endfacet
  facet normal 1.000000e+00 0.000000e+00 0.000000e+00
    outer loop
      vertex 2.150000e+01 1.250000e+01 5.000000e+00
      vertex 2.150000e+01 -4.000000e+00 5.000000e+00
      vertex 2.150000e+01 1.250000e+01 0.000000e+00
    endloop
  endfacet
  facet normal -0.000000e+00 -0.000000e+00 -1.000000e+00
    outer loop
      vertex 6.799999e+00 5.750000e+00 0.000000e+00
      vertex 4.191999e+00 1.250000e+01 0.000000e+00
      vertex 2.150000e+01 -1.250000e+01 0.000000e+00
    endloop
  endfacet
  facet normal 0.000000e+00 0.000000e+00 -1.000000e+00
    outer loop
      vertex 2.150000e+01 -1.250000e+01 0.000000e+00
      vertex 4.191999e+00 1.250000e+01 0.000000e+00
      vertex 2.150000e+01 1.250000e+01 0.000000e+00
    endloop
  endfacet
  facet normal 0.000000e+00 0.000000e+00 -1.000000e+00
    outer loop
      vertex 4.191999e+00 -1.250000e+01 0.000000e+00
      vertex 4.191999e+00 1.250000e+01 0.000000e+00
      vertex 4.799999e+00 5.750000e+00 0.000000e+00
    endloop
  endfacet
  facet normal 0.000000e+00 0.000000e+00 -1.000000e+00
    outer loop
      vertex 4.191999e+00 -1.250000e+01 0.000000e+00
      vertex 4.799999e+00 5.750000e+00 0.000000e+00
      vertex 4.799999e+00 1.750000e+00 0.000000e+00
    endloop
  endfacet
  facet normal 0.000000e+00 0.000000e+00 -1.000000e+00
    outer loop
      vertex 4.191999e+00 -1.250000e+01 0.000000e+00
      vertex 4.799999e+00 1.750000e+00 0.000000e+00
      vertex 2.150000e+01 -1.250000e+01 0.000000e+00
    endloop
  endfacet
  facet normal 0.000000e+00 0.000000e+00 -1.000000e+00
    outer loop
      vertex 4.799999e+00 1.750000e+00 0.000000e+00
      vertex 6.799999e+00 1.750000e+00 0.000000e+00
      vertex 2.150000e+01 -1.250000e+01 0.000000e+00
    endloop
  endfacet
  facet normal -0.000000e+00 -0.000000e+00 -1.000000e+00
    outer loop
      vertex 4.799999e+00 5.750000e+00 0.000000e+00
      vertex 4.191999e+00 1.250000e+01 0.000000e+00
      vertex 6.799999e+00 5.750000e+00 0.000000e+00
    endloop
  endfacet
  facet normal 0.000000e+00 0.000000e+00 -1.000000e+00
    outer loop
      vertex 6.799999e+00 5.750000e+00 0.000000e+00
      vertex 2.150000e+01 -1.250000e+01 0.000000e+00
      vertex 6.799999e+00 1.750000e+00 0.000000e+00
    endloop
  endfacet
  facet normal -8.314699e-01 1.181590e-16 -5.555699e-01
    outer loop
      vertex 4.191999e+00 1.250000e+01 0.000000e+00
      vertex 4.191999e+00 -1.250000e+01 0.000000e+00
      vertex 3.394100e+00 1.250000e+01 1.194110e+00
    endloop
  endfacet
  facet normal -8.314699e-01 1.233610e-16 -5.555699e-01
    outer loop
      vertex 3.394100e+00 1.250000e+01 1.194110e+00
      vertex 4.191999e+00 -1.250000e+01 0.000000e+00
      vertex 3.394100e+00 -1.250000e+01 1.194110e+00
    endloop
  endfacet
  facet normal -5.555699e-01 1.846230e-16 -8.314699e-01
    outer loop
      vertex 3.394100e+00 1.250000e+01 1.194110e+00
      vertex 3.394100e+00 -1.250000e+01 1.194110e+00
      vertex 1.836901e+00 1.250000e+01 2.234620e+00
    endloop
  endfacet
  facet normal -5.555699e-01 1.772380e-16 -8.314699e-01
    outer loop
      vertex 1.836901e+00 1.250000e+01 2.234620e+00
      vertex 3.394100e+00 -1.250000e+01 1.194110e+00
      vertex 1.836901e+00 -1.250000e+01 2.234620e+00
    endloop
  endfacet
  facet normal -1.950901e-01 2.090671e-16 -9.807854e-01
    outer loop
      vertex 1.836901e+00 1.250000e+01 2.234620e+00
      vertex 1.836901e+00 -1.250000e+01 2.234620e+00
      vertex 0.000000e+00 1.250000e+01 2.600000e+00
    endloop
  endfacet
  facet normal -1.950901e-01 2.090671e-16 -9.807854e-01
    outer loop
      vertex 0.000000e+00 1.250000e+01 2.600000e+00
      vertex 1.836901e+00 -1.250000e+01 2.234620e+00
      vertex 0.000000e+00 -1.250000e+01 2.600000e+00
    endloop
  endfacet
  facet normal 1.950901e-01 2.090671e-16 -9.807854e-01
    outer loop
      vertex 0.000000e+00 1.250000e+01 2.600000e+00
      vertex 0.000000e+00 -1.250000e+01 2.600000e+00
      vertex -1.836901e+00 1.250000e+01 2.234620e+00
    endloop
  endfacet
  facet normal 1.950901e-01 2.090671e-16 -9.807854e-01
    outer loop
      vertex -1.836901e+00 1.250000e+01 2.234620e+00
      vertex 0.000000e+00 -1.250000e+01 2.600000e+00
      vertex -1.836901e+00 -1.250000e+01 2.234620e+00
    endloop
  endfacet
  facet normal 5.555699e-01 1.772380e-16 -8.314699e-01
    outer loop
      vertex -1.836901e+00 1.250000e+01 2.234620e+00
      vertex -1.836901e+00 -1.250000e+01 2.234620e+00
      vertex -3.394100e+00 1.250000e+01 1.194110e+00
    endloop
  endfacet
  facet normal 5.555699e-01 1.846230e-16 -8.314699e-01
    outer loop
      vertex -3.394100e+00 1.250000e+01 1.194110e+00
      vertex -1.836901e+00 -1.250000e+01 2.234620e+00
      vertex -3.394100e+00 -1.250000e+01 1.194110e+00
    endloop
  endfacet
  facet normal 8.314699e-01 1.233610e-16 -5.555699e-01
    outer loop
      vertex -3.394100e+00 1.250000e+01 1.194110e+00
      vertex -3.394100e+00 -1.250000e+01 1.194110e+00
      vertex -4.191999e+00 -1.250000e+01 0.000000e+00
    endloop
  endfacet
  facet normal 8.314699e-01 1.181590e-16 -5.555699e-01
    outer loop
      vertex -4.191999e+00 1.250000e+01 0.000000e+00
      vertex -3.394100e+00 1.250000e+01 1.194110e+00
      vertex -4.191999e+00 -1.250000e+01 0.000000e+00
    endloop
  endfacet
  facet normal 1.000000e+00 0.000000e+00 0.000000e+00
    outer loop
      vertex -6.800000e+00 5.750000e+00 0.000000e+00
      vertex -6.800000e+00 5.750000e+00 5.000000e+00
      vertex -6.800000e+00 1.750000e+00 5.000000e+00
    endloop
  endfacet
  facet normal 1.000000e+00 0.000000e+00 0.000000e+00
    outer loop
      vertex -6.800000e+00 1.750000e+00 0.000000e+00
      vertex -6.800000e+00 5.750000e+00 0.000000e+00
      vertex -6.800000e+00 1.750000e+00 5.000000e+00
    endloop
  endfacet
  facet normal 0.000000e+00 -1.000000e+00 0.000000e+00
    outer loop
      vertex -4.799999e+00 5.750000e+00 0.000000e+00
      vertex -4.799999e+00 5.750000e+00 5.000000e+00
      vertex -6.800000e+00 5.750000e+00 5.000000e+00
    endloop
  endfacet
  facet normal -0.000000e+00 -1.000000e+00 -0.000000e+00
    outer loop
      vertex -6.800000e+00 5.750000e+00 0.000000e+00
      vertex -4.799999e+00 5.750000e+00 0.000000e+00
      vertex -6.800000e+00 5.750000e+00 5.000000e+00
    endloop
  endfacet
  facet normal -1.000000e+00 0.000000e+00 0.000000e+00
    outer loop
      vertex -4.799999e+00 5.750000e+00 5.000000e+00
      vertex -4.799999e+00 5.750000e+00 0.000000e+00
      vertex -4.799999e+00 1.750000e+00 5.000000e+00
    endloop
  endfacet
  facet normal -1.000000e+00 0.000000e+00 0.000000e+00
    outer loop
      vertex -4.799999e+00 1.750000e+00 5.000000e+00
      vertex -4.799999e+00 5.750000e+00 0.000000e+00
      vertex -4.799999e+00 1.750000e+00 0.000000e+00
    endloop
  endfacet
  facet normal 0.000000e+00 1.000000e+00 0.000000e+00
    outer loop
      vertex -4.799999e+00 1.750000e+00 5.000000e+00
      vertex -4.799999e+00 1.750000e+00 0.000000e+00
      vertex -6.800000e+00 1.750000e+00 5.000000e+00
    endloop
  endfacet
  facet normal 0.000000e+00 1.000000e+00 0.000000e+00
    outer loop
      vertex -6.800000e+00 1.750000e+00 5.000000e+00
      vertex -4.799999e+00 1.750000e+00 0.000000e+00
      vertex -6.800000e+00 1.750000e+00 0.000000e+00
    endloop
  endfacet
  facet normal 0.000000e+00 1.000000e+00 0.000000e+00
    outer loop
      vertex 1.500000e+00 -4.000000e+00 5.000000e+00
      vertex 1.500000e+00 -4.000000e+00 8.000000e+00
      vertex 2.150000e+01 -4.000000e+00 5.000000e+00
    endloop
  endfacet
  facet normal 0.000000e+00 1.000000e+00 0.000000e+00
    outer loop
      vertex 2.150000e+01 -4.000000e+00 5.000000e+00
      vertex 1.500000e+00 -4.000000e+00 8.000000e+00
      vertex 1.650000e+01 -4.000000e+00 8.000000e+00
    endloop
  endfacet
  facet normal 0.000000e+00 1.000000e+00 0.000000e+00
    outer loop
      vertex 2.150000e+01 -4.000000e+00 5.000000e+00
      vertex 1.650000e+01 -4.000000e+00 8.000000e+00
      vertex 1.650000e+01 -4.000000e+00 1.200000e+01
    endloop
  endfacet
  facet normal 0.000000e+00 1.000000e+00 0.000000e+00
    outer loop
      vertex 1.650000e+01 -4.000000e+00 1.200000e+01
      vertex 1.500000e+00 -4.000000e+00 1.200000e+01
      vertex 1.500000e+00 -4.000000e+00 1.450000e+01
    endloop
  endfacet
  facet normal 0.000000e+00 1.000000e+00 0.000000e+00
    outer loop
      vertex 1.650000e+01 -4.000000e+00 1.200000e+01
      vertex 1.500000e+00 -4.000000e+00 1.450000e+01
      vertex 2.150000e+01 -4.000000e+00 1.450000e+01
    endloop
  endfacet
  facet normal 0.000000e+00 1.000000e+00 0.000000e+00
    outer loop
      vertex 1.650000e+01 -4.000000e+00 1.200000e+01
      vertex 2.150000e+01 -4.000000e+00 1.450000e+01
      vertex 2.150000e+01 -4.000000e+00 5.000000e+00
    endloop
  endfacet
  facet normal 1.000000e+00 0.000000e+00 0.000000e+00
    outer loop
      vertex 4.799999e+00 5.750000e+00 0.000000e+00
      vertex 4.799999e+00 5.750000e+00 5.000000e+00
      vertex 4.799999e+00 1.750000e+00 5.000000e+00
    endloop
  endfacet
  facet normal 1.000000e+00 0.000000e+00 0.000000e+00
    outer loop
      vertex 4.799999e+00 1.750000e+00 0.000000e+00
      vertex 4.799999e+00 5.750000e+00 0.000000e+00
      vertex 4.799999e+00 1.750000e+00 5.000000e+00
    endloop
  endfacet
  facet normal 0.000000e+00 1.000000e+00 0.000000e+00
    outer loop
      vertex 6.799999e+00 1.750000e+00 5.000000e+00
      vertex 6.799999e+00 1.750000e+00 0.000000e+00
      vertex 4.799999e+00 1.750000e+00 5.000000e+00
    endloop
  endfacet
  facet normal 0.000000e+00 1.000000e+00 0.000000e+00
    outer loop
      vertex 4.799999e+00 1.750000e+00 5.000000e+00
      vertex 6.799999e+00 1.750000e+00 0.000000e+00
      vertex 4.799999e+00 1.750000e+00 0.000000e+00
    endloop
  endfacet
  facet normal -1.000000e+00 0.000000e+00 0.000000e+00
    outer loop
      vertex 6.799999e+00 5.750000e+00 5.000000e+00
      vertex 6.799999e+00 5.750000e+00 0.000000e+00
      vertex 6.799999e+00 1.750000e+00 5.000000e+00
    endloop
  endfacet
  facet normal -1.000000e+00 0.000000e+00 0.000000e+00
    outer loop
      vertex 6.799999e+00 1.750000e+00 5.000000e+00
      vertex 6.799999e+00 5.750000e+00 0.000000e+00
      vertex 6.799999e+00 1.750000e+00 0.000000e+00
    endloop
  endfacet
  facet normal 0.000000e+00 -1.000000e+00 0.000000e+00
    outer loop
      vertex 6.799999e+00 5.750000e+00 0.000000e+00
      vertex 6.799999e+00 5.750000e+00 5.000000e+00
      vertex 4.799999e+00 5.750000e+00 5.000000e+00
    endloop
  endfacet
  facet normal -0.000000e+00 -1.000000e+00 -0.000000e+00
    outer loop
      vertex 4.799999e+00 5.750000e+00 0.000000e+00
      vertex 6.799999e+00 5.750000e+00 0.000000e+00
      vertex 4.799999e+00 5.750000e+00 5.000000e+00
    endloop
  endfacet
  facet normal 0.000000e+00 0.000000e+00 1.000000e+00
    outer loop
      vertex 1.650000e+01 -7.500000e+00 8.000000e+00
      vertex 1.650000e+01 -4.000000e+00 8.000000e+00
      vertex 1.500000e+00 -4.000000e+00 8.000000e+00
    endloop
  endfacet
  facet normal 0.000000e+00 0.000000e+00 1.000000e+00
    outer loop
      vertex 1.500000e+00 -7.500000e+00 8.000000e+00
      vertex 1.650000e+01 -7.500000e+00 8.000000e+00
      vertex 1.500000e+00 -4.000000e+00 8.000000e+00
    endloop
  endfacet
  facet normal 0.000000e+00 1.000000e+00 0.000000e+00
    outer loop
      vertex 1.650000e+01 -7.500000e+00 1.200000e+01
      vertex 1.650000e+01 -7.500000e+00 8.000000e+00
      vertex 1.500000e+00 -7.500000e+00 1.200000e+01
    endloop
  endfacet
  facet normal 0.000000e+00 1.000000e+00 0.000000e+00
    outer loop
      vertex 1.500000e+00 -7.500000e+00 1.200000e+01
      vertex 1.650000e+01 -7.500000e+00 8.000000e+00
      vertex 1.500000e+00 -7.500000e+00 8.000000e+00
    endloop
  endfacet
  facet normal 0.000000e+00 0.000000e+00 -1.000000e+00
    outer loop
      vertex 1.650000e+01 -4.000000e+00 1.200000e+01
      vertex 1.650000e+01 -7.500000e+00 1.200000e+01
      vertex 1.500000e+00 -4.000000e+00 1.200000e+01
    endloop
  endfacet
  facet normal 0.000000e+00 0.000000e+00 -1.000000e+00
    outer loop
      vertex 1.500000e+00 -4.000000e+00 1.200000e+01
      vertex 1.650000e+01 -7.500000e+00 1.200000e+01
      vertex 1.500000e+00 -7.500000e+00 1.200000e+01
    endloop
  endfacet
  facet normal -1.000000e+00 0.000000e+00 0.000000e+00
    outer loop
      vertex 1.650000e+01 -4.000000e+00 1.200000e+01
      vertex 1.650000e+01 -4.000000e+00 8.000000e+00
      vertex 1.650000e+01 -7.500000e+00 1.200000e+01
    endloop
  endfacet
  facet normal -1.000000e+00 0.000000e+00 0.000000e+00
    outer loop
      vertex 1.650000e+01 -7.500000e+00 1.200000e+01
      vertex 1.650000e+01 -4.000000e+00 8.000000e+00
      vertex 1.650000e+01 -7.500000e+00 8.000000e+00
    endloop
  endfacet
endsolid Default
