solid Default
  facet normal -0.000000e+00 -0.000000e+00 -1.000000e+00
    outer loop
      vertex -2.381647e+01 -1.748040e+01 0.000000e+00
      vertex -2.381647e+01 -1.551960e+01 0.000000e+00
      vertex -2.328745e+01 -1.936850e+01 0.000000e+00
    endloop
  endfacet
  facet normal 0.000000e+00 0.000000e+00 -1.000000e+00
    outer loop
      vertex -2.328745e+01 -1.936850e+01 0.000000e+00
      vertex -2.381647e+01 -1.551960e+01 0.000000e+00
      vertex -2.328745e+01 -1.363150e+01 0.000000e+00
    endloop
  endfacet
  facet normal 0.000000e+00 0.000000e+00 -1.000000e+00
    outer loop
      vertex -2.328745e+01 -1.936850e+01 0.000000e+00
      vertex -2.328745e+01 -1.363150e+01 0.000000e+00
      vertex -2.226865e+01 -1.195620e+01 0.000000e+00
    endloop
  endfacet
  facet normal 0.000000e+00 0.000000e+00 -1.000000e+00
    outer loop
      vertex -2.328745e+01 -1.936850e+01 0.000000e+00
      vertex -2.226865e+01 -1.195620e+01 0.000000e+00
      vertex -2.083563e+01 -1.061780e+01 0.000000e+00
    endloop
  endfacet
  facet normal 0.000000e+00 0.000000e+00 -1.000000e+00
    outer loop
      vertex -2.134912e+01 -1.456740e+01 0.000000e+00
      vertex -2.083563e+01 -1.061780e+01 0.000000e+00
      vertex -1.909466e+01 -9.715720e+00 0.000000e+00
    endloop
  endfacet
  facet normal 0.000000e+00 0.000000e+00 -1.000000e+00
    outer loop
      vertex -2.025442e+01 -1.292910e+01 0.000000e+00
      vertex -1.909466e+01 -9.715720e+00 0.000000e+00
      vertex -1.717488e+01 -9.316780e+00 0.000000e+00
    endloop
  endfacet
  facet normal 0.000000e+00 0.000000e+00 -1.000000e+00
    outer loop
      vertex -1.861608e+01 -1.183440e+01 0.000000e+00
      vertex -1.717488e+01 -9.316780e+00 0.000000e+00
      vertex -1.668353e+01 -9.350390e+00 0.000000e+00
    endloop
  endfacet
  facet normal 0.000000e+00 0.000000e+00 -1.000000e+00
    outer loop
      vertex -1.668353e+01 -9.350390e+00 0.000000e+00
      vertex -1.668353e+01 -9.300000e+00 0.000000e+00
      vertex 1.088907e+01 -9.300000e+00 0.000000e+00
    endloop
  endfacet
  facet normal -0.000000e+00 -0.000000e+00 -1.000000e+00
    outer loop
      vertex -1.668353e+01 9.300000e+00 0.000000e+00
      vertex -1.668353e+01 9.350390e+00 0.000000e+00
      vertex 1.088907e+01 9.300000e+00 0.000000e+00
    endloop
  endfacet
  facet normal -0.000000e+00 -0.000000e+00 -1.000000e+00
    outer loop
      vertex -1.668353e+01 9.350390e+00 0.000000e+00
      vertex -1.909466e+01 9.715720e+00 0.000000e+00
      vertex 1.088907e+01 9.300000e+00 0.000000e+00
    endloop
  endfacet
  facet normal 0.000000e+00 0.000000e+00 -1.000000e+00
    outer loop
      vertex -1.717488e+01 9.316780e+00 0.000000e+00
      vertex -1.909466e+01 9.715720e+00 0.000000e+00
      vertex -1.668353e+01 9.350390e+00 0.000000e+00
    endloop
  endfacet
  facet normal 0.000000e+00 0.000000e+00 -1.000000e+00
    outer loop
      vertex 1.088907e+01 9.300000e+00 0.000000e+00
      vertex -1.909466e+01 9.715720e+00 0.000000e+00
      vertex -2.083563e+01 1.061780e+01 0.000000e+00
    endloop
  endfacet
  facet normal 0.000000e+00 0.000000e+00 -1.000000e+00
    outer loop
      vertex -1.668353e+01 1.145000e+01 0.000000e+00
      vertex -2.083563e+01 1.061780e+01 0.000000e+00
      vertex -2.226865e+01 1.195620e+01 0.000000e+00
    endloop
  endfacet
  facet normal 0.000000e+00 0.000000e+00 -1.000000e+00
    outer loop
      vertex -2.025442e+01 1.292910e+01 0.000000e+00
      vertex -2.226865e+01 1.195620e+01 0.000000e+00
      vertex -2.328745e+01 1.363150e+01 0.000000e+00
    endloop
  endfacet
  facet normal 0.000000e+00 0.000000e+00 -1.000000e+00
    outer loop
      vertex -2.134912e+01 1.456740e+01 0.000000e+00
      vertex -2.328745e+01 1.363150e+01 0.000000e+00
      vertex -2.381647e+01 1.551960e+01 0.000000e+00
    endloop
  endfacet
  facet normal 0.000000e+00 0.000000e+00 -1.000000e+00
    outer loop
      vertex -2.173353e+01 1.650000e+01 0.000000e+00
      vertex -2.381647e+01 1.551960e+01 0.000000e+00
      vertex -2.381647e+01 1.748040e+01 0.000000e+00
    endloop
  endfacet
  facet normal 0.000000e+00 0.000000e+00 -1.000000e+00
    outer loop
      vertex -2.134912e+01 1.843260e+01 0.000000e+00
      vertex -2.381647e+01 1.748040e+01 0.000000e+00
      vertex -2.328745e+01 1.936850e+01 0.000000e+00
    endloop
  endfacet
  facet normal 0.000000e+00 0.000000e+00 -1.000000e+00
    outer loop
      vertex -2.025442e+01 2.007090e+01 0.000000e+00
      vertex -2.328745e+01 1.936850e+01 0.000000e+00
      vertex -2.226865e+01 2.104380e+01 0.000000e+00
    endloop
  endfacet
  facet normal 0.000000e+00 0.000000e+00 -1.000000e+00
    outer loop
      vertex -1.861608e+01 2.116560e+01 0.000000e+00
      vertex -2.226865e+01 2.104380e+01 0.000000e+00
      vertex -2.083563e+01 2.238220e+01 0.000000e+00
    endloop
  endfacet
  facet normal 0.000000e+00 0.000000e+00 -1.000000e+00
    outer loop
      vertex -1.668353e+01 2.155000e+01 0.000000e+00
      vertex -2.083563e+01 2.238220e+01 0.000000e+00
      vertex -1.909466e+01 2.328430e+01 0.000000e+00
    endloop
  endfacet
  facet normal 0.000000e+00 0.000000e+00 -1.000000e+00
    outer loop
      vertex 1.088907e+01 9.300000e+00 0.000000e+00
      vertex -1.909466e+01 2.328430e+01 0.000000e+00
      vertex -1.717488e+01 2.368320e+01 0.000000e+00
    endloop
  endfacet
  facet normal 0.000000e+00 0.000000e+00 -1.000000e+00
    outer loop
      vertex 1.088907e+01 9.300000e+00 0.000000e+00
      vertex -1.717488e+01 2.368320e+01 0.000000e+00
      vertex -1.668353e+01 2.364960e+01 0.000000e+00
    endloop
  endfacet
  facet normal 0.000000e+00 0.000000e+00 -1.000000e+00
    outer loop
      vertex 1.088907e+01 9.300000e+00 0.000000e+00
      vertex -1.668353e+01 2.364960e+01 0.000000e+00
      vertex -1.668353e+01 2.370000e+01 0.000000e+00
    endloop
  endfacet
  facet normal 0.000000e+00 0.000000e+00 -1.000000e+00
    outer loop
      vertex 1.088907e+01 9.300000e+00 0.000000e+00
      vertex -1.668353e+01 2.370000e+01 0.000000e+00
      vertex 1.240087e+01 2.370000e+01 0.000000e+00
    endloop
  endfacet
  facet normal 0.000000e+00 0.000000e+00 -1.000000e+00
    outer loop
      vertex 1.088907e+01 9.300000e+00 0.000000e+00
      vertex 1.240087e+01 2.370000e+01 0.000000e+00
      vertex 1.088907e+01 -9.300000e+00 0.000000e+00
    endloop
  endfacet
  facet normal 0.000000e+00 0.000000e+00 -1.000000e+00
    outer loop
      vertex 1.088907e+01 -9.300000e+00 0.000000e+00
      vertex 1.240087e+01 2.370000e+01 0.000000e+00
      vertex 1.255167e+01 2.392110e+01 0.000000e+00
    endloop
  endfacet
  facet normal 0.000000e+00 0.000000e+00 -1.000000e+00
    outer loop
      vertex 1.088907e+01 -9.300000e+00 0.000000e+00
      vertex 1.255167e+01 2.392110e+01 0.000000e+00
      vertex 1.406647e+01 2.512920e+01 0.000000e+00
    endloop
  endfacet
  facet normal 0.000000e+00 0.000000e+00 -1.000000e+00
    outer loop
      vertex 1.406647e+01 2.512920e+01 0.000000e+00
      vertex 1.587007e+01 2.583700e+01 0.000000e+00
      vertex 1.088907e+01 -9.300000e+00 0.000000e+00
    endloop
  endfacet
  facet normal 0.000000e+00 0.000000e+00 -1.000000e+00
    outer loop
      vertex 1.088907e+01 -9.300000e+00 0.000000e+00
      vertex 1.587007e+01 2.583700e+01 0.000000e+00
      vertex 1.780217e+01 2.598180e+01 0.000000e+00
    endloop
  endfacet
  facet normal 0.000000e+00 0.000000e+00 -1.000000e+00
    outer loop
      vertex 1.731647e+01 1.950000e+01 0.000000e+00
      vertex 1.780217e+01 2.598180e+01 0.000000e+00
      vertex 1.969117e+01 2.555070e+01 0.000000e+00
    endloop
  endfacet
  facet normal 0.000000e+00 0.000000e+00 -1.000000e+00
    outer loop
      vertex 2.231647e+01 1.950000e+01 0.000000e+00
      vertex 2.268707e+01 2.316160e+01 0.000000e+00
      vertex 2.352767e+01 2.141590e+01 0.000000e+00
    endloop
  endfacet
  facet normal 0.000000e+00 0.000000e+00 -1.000000e+00
    outer loop
      vertex 2.231647e+01 1.750000e+01 0.000000e+00
      vertex 2.352767e+01 2.141590e+01 0.000000e+00
      vertex 2.381647e+01 1.950000e+01 0.000000e+00
    endloop
  endfacet
  facet normal 0.000000e+00 0.000000e+00 -1.000000e+00
    outer loop
      vertex -1.668353e+01 -2.370000e+01 0.000000e+00
      vertex -1.668353e+01 -2.364960e+01 0.000000e+00
      vertex -1.475098e+01 -2.116560e+01 0.000000e+00
    endloop
  endfacet
  facet normal 0.000000e+00 0.000000e+00 -1.000000e+00
    outer loop
      vertex 1.731647e+01 1.950000e+01 0.000000e+00
      vertex 2.136917e+01 2.458190e+01 0.000000e+00
      vertex 2.268707e+01 2.316160e+01 0.000000e+00
    endloop
  endfacet
  facet normal 0.000000e+00 0.000000e+00 -1.000000e+00
    outer loop
      vertex 2.231647e+01 1.950000e+01 0.000000e+00
      vertex 2.352767e+01 2.141590e+01 0.000000e+00
      vertex 2.231647e+01 1.750000e+01 0.000000e+00
    endloop
  endfacet
  facet normal 0.000000e+00 0.000000e+00 -1.000000e+00
    outer loop
      vertex 1.731647e+01 1.950000e+01 0.000000e+00
      vertex 1.969117e+01 2.555070e+01 0.000000e+00
      vertex 2.136917e+01 2.458190e+01 0.000000e+00
    endloop
  endfacet
  facet normal 0.000000e+00 0.000000e+00 -1.000000e+00
    outer loop
      vertex 1.088907e+01 -9.300000e+00 0.000000e+00
      vertex 1.780217e+01 2.598180e+01 0.000000e+00
      vertex 1.731647e+01 1.950000e+01 0.000000e+00
    endloop
  endfacet
  facet normal 0.000000e+00 0.000000e+00 -1.000000e+00
    outer loop
      vertex 1.731647e+01 -1.950000e+01 0.000000e+00
      vertex 1.088907e+01 -9.300000e+00 0.000000e+00
      vertex 1.731647e+01 1.950000e+01 0.000000e+00
    endloop
  endfacet
  facet normal 0.000000e+00 0.000000e+00 -1.000000e+00
    outer loop
      vertex 2.381647e+01 -1.750000e+01 0.000000e+00
      vertex 2.231647e+01 -1.950000e+01 0.000000e+00
      vertex 2.231647e+01 -1.750000e+01 0.000000e+00
    endloop
  endfacet
  facet normal 0.000000e+00 0.000000e+00 -1.000000e+00
    outer loop
      vertex -1.311264e+01 -2.007090e+01 0.000000e+00
      vertex 2.268707e+01 -2.316160e+01 0.000000e+00
      vertex 2.136917e+01 -2.458190e+01 0.000000e+00
    endloop
  endfacet
  facet normal 0.000000e+00 0.000000e+00 -1.000000e+00
    outer loop
      vertex 1.406647e+01 -2.512920e+01 0.000000e+00
      vertex 1.780217e+01 -2.598180e+01 0.000000e+00
      vertex 1.587007e+01 -2.583700e+01 0.000000e+00
    endloop
  endfacet
  facet normal 0.000000e+00 0.000000e+00 -1.000000e+00
    outer loop
      vertex 2.231647e+01 -1.950000e+01 0.000000e+00
      vertex 2.381647e+01 -1.750000e+01 0.000000e+00
      vertex 2.381647e+01 -1.950000e+01 0.000000e+00
    endloop
  endfacet
  facet normal 0.000000e+00 0.000000e+00 -1.000000e+00
    outer loop
      vertex 2.231647e+01 -1.950000e+01 0.000000e+00
      vertex 2.381647e+01 -1.950000e+01 0.000000e+00
      vertex 2.352767e+01 -2.141590e+01 0.000000e+00
    endloop
  endfacet
  facet normal 0.000000e+00 0.000000e+00 -1.000000e+00
    outer loop
      vertex 2.231647e+01 -1.950000e+01 0.000000e+00
      vertex 2.352767e+01 -2.141590e+01 0.000000e+00
      vertex 1.731647e+01 -1.950000e+01 0.000000e+00
    endloop
  endfacet
  facet normal 0.000000e+00 0.000000e+00 -1.000000e+00
    outer loop
      vertex -1.311264e+01 -2.007090e+01 0.000000e+00
      vertex 2.352767e+01 -2.141590e+01 0.000000e+00
      vertex 2.268707e+01 -2.316160e+01 0.000000e+00
    endloop
  endfacet
  facet normal 0.000000e+00 0.000000e+00 -1.000000e+00
    outer loop
      vertex 1.255167e+01 -2.392110e+01 0.000000e+00
      vertex 2.136917e+01 -2.458190e+01 0.000000e+00
      vertex 1.969117e+01 -2.555070e+01 0.000000e+00
    endloop
  endfacet
  facet normal 0.000000e+00 0.000000e+00 -1.000000e+00
    outer loop
      vertex 1.406647e+01 -2.512920e+01 0.000000e+00
      vertex 1.969117e+01 -2.555070e+01 0.000000e+00
      vertex 1.780217e+01 -2.598180e+01 0.000000e+00
    endloop
  endfacet
  facet normal 0.000000e+00 0.000000e+00 -1.000000e+00
    outer loop
      vertex -1.311264e+01 -2.007090e+01 0.000000e+00
      vertex 2.136917e+01 -2.458190e+01 0.000000e+00
      vertex 1.240087e+01 -2.370000e+01 0.000000e+00
    endloop
  endfacet
  facet normal 0.000000e+00 0.000000e+00 -1.000000e+00
    outer loop
      vertex -1.668353e+01 -2.364960e+01 0.000000e+00
      vertex -1.668353e+01 -2.155000e+01 0.000000e+00
      vertex -1.475098e+01 -2.116560e+01 0.000000e+00
    endloop
  endfacet
  facet normal 0.000000e+00 0.000000e+00 -1.000000e+00
    outer loop
      vertex 1.255167e+01 -2.392110e+01 0.000000e+00
      vertex 1.969117e+01 -2.555070e+01 0.000000e+00
      vertex 1.406647e+01 -2.512920e+01 0.000000e+00
    endloop
  endfacet
  facet normal 0.000000e+00 0.000000e+00 -1.000000e+00
    outer loop
      vertex 1.240087e+01 -2.370000e+01 0.000000e+00
      vertex 2.136917e+01 -2.458190e+01 0.000000e+00
      vertex 1.255167e+01 -2.392110e+01 0.000000e+00
    endloop
  endfacet
  facet normal 0.000000e+00 0.000000e+00 -1.000000e+00
    outer loop
      vertex -1.311264e+01 -2.007090e+01 0.000000e+00
      vertex 1.240087e+01 -2.370000e+01 0.000000e+00
      vertex -1.475098e+01 -2.116560e+01 0.000000e+00
    endloop
  endfacet
  facet normal 0.000000e+00 0.000000e+00 -1.000000e+00
    outer loop
      vertex -1.717488e+01 -2.368320e+01 0.000000e+00
      vertex -2.328745e+01 -1.936850e+01 0.000000e+00
      vertex -1.668353e+01 -2.364960e+01 0.000000e+00
    endloop
  endfacet
  facet normal 0.000000e+00 0.000000e+00 -1.000000e+00
    outer loop
      vertex -2.173353e+01 1.650000e+01 0.000000e+00
      vertex -2.381647e+01 1.748040e+01 0.000000e+00
      vertex -2.134912e+01 1.843260e+01 0.000000e+00
    endloop
  endfacet
  facet normal 0.000000e+00 0.000000e+00 -1.000000e+00
    outer loop
      vertex -2.173353e+01 -1.650000e+01 0.000000e+00
      vertex -2.328745e+01 -1.936850e+01 0.000000e+00
      vertex -2.134912e+01 -1.456740e+01 0.000000e+00
    endloop
  endfacet
  facet normal 0.000000e+00 0.000000e+00 -1.000000e+00
    outer loop
      vertex -2.328745e+01 -1.936850e+01 0.000000e+00
      vertex -1.717488e+01 -2.368320e+01 0.000000e+00
      vertex -1.909466e+01 -2.328430e+01 0.000000e+00
    endloop
  endfacet
  facet normal 0.000000e+00 0.000000e+00 -1.000000e+00
    outer loop
      vertex -2.328745e+01 -1.936850e+01 0.000000e+00
      vertex -1.909466e+01 -2.328430e+01 0.000000e+00
      vertex -2.083563e+01 -2.238220e+01 0.000000e+00
    endloop
  endfacet
  facet normal 0.000000e+00 0.000000e+00 -1.000000e+00
    outer loop
      vertex -2.328745e+01 -1.936850e+01 0.000000e+00
      vertex -2.083563e+01 -2.238220e+01 0.000000e+00
      vertex -2.226865e+01 -2.104380e+01 0.000000e+00
    endloop
  endfacet
  facet normal 0.000000e+00 0.000000e+00 -1.000000e+00
    outer loop
      vertex -2.134912e+01 -1.843260e+01 0.000000e+00
      vertex -2.328745e+01 -1.936850e+01 0.000000e+00
      vertex -2.173353e+01 -1.650000e+01 0.000000e+00
    endloop
  endfacet
  facet normal 0.000000e+00 0.000000e+00 -1.000000e+00
    outer loop
      vertex -1.201794e+01 -1.456740e+01 0.000000e+00
      vertex 1.088907e+01 -9.300000e+00 0.000000e+00
      vertex -1.163353e+01 -1.650000e+01 0.000000e+00
    endloop
  endfacet
  facet normal -0.000000e+00 -0.000000e+00 -1.000000e+00
    outer loop
      vertex -1.475098e+01 -1.183440e+01 0.000000e+00
      vertex -1.668353e+01 -9.350390e+00 0.000000e+00
      vertex -1.311264e+01 -1.292910e+01 0.000000e+00
    endloop
  endfacet
  facet normal 0.000000e+00 0.000000e+00 -1.000000e+00
    outer loop
      vertex -2.025442e+01 -2.007090e+01 0.000000e+00
      vertex -2.328745e+01 -1.936850e+01 0.000000e+00
      vertex -2.134912e+01 -1.843260e+01 0.000000e+00
    endloop
  endfacet
  facet normal 0.000000e+00 0.000000e+00 -1.000000e+00
    outer loop
      vertex -2.328745e+01 -1.936850e+01 0.000000e+00
      vertex -2.025442e+01 -2.007090e+01 0.000000e+00
      vertex -1.668353e+01 -2.364960e+01 0.000000e+00
    endloop
  endfacet
  facet normal 0.000000e+00 0.000000e+00 -1.000000e+00
    outer loop
      vertex -2.025442e+01 -2.007090e+01 0.000000e+00
      vertex -1.861608e+01 -2.116560e+01 0.000000e+00
      vertex -1.668353e+01 -2.364960e+01 0.000000e+00
    endloop
  endfacet
  facet normal 0.000000e+00 0.000000e+00 -1.000000e+00
    outer loop
      vertex -2.025442e+01 -1.292910e+01 0.000000e+00
      vertex -1.717488e+01 -9.316780e+00 0.000000e+00
      vertex -1.861608e+01 -1.183440e+01 0.000000e+00
    endloop
  endfacet
  facet normal 0.000000e+00 0.000000e+00 -1.000000e+00
    outer loop
      vertex -1.861608e+01 -2.116560e+01 0.000000e+00
      vertex -1.668353e+01 -2.155000e+01 0.000000e+00
      vertex -1.668353e+01 -2.364960e+01 0.000000e+00
    endloop
  endfacet
  facet normal 0.000000e+00 0.000000e+00 -1.000000e+00
    outer loop
      vertex 1.088907e+01 -9.300000e+00 0.000000e+00
      vertex 1.731647e+01 -1.950000e+01 0.000000e+00
      vertex -1.201794e+01 -1.843260e+01 0.000000e+00
    endloop
  endfacet
  facet normal 0.000000e+00 0.000000e+00 -1.000000e+00
    outer loop
      vertex 1.088907e+01 -9.300000e+00 0.000000e+00
      vertex -1.201794e+01 -1.843260e+01 0.000000e+00
      vertex -1.163353e+01 -1.650000e+01 0.000000e+00
    endloop
  endfacet
  facet normal 0.000000e+00 0.000000e+00 -1.000000e+00
    outer loop
      vertex -1.311264e+01 -1.292910e+01 0.000000e+00
      vertex 1.088907e+01 -9.300000e+00 0.000000e+00
      vertex -1.201794e+01 -1.456740e+01 0.000000e+00
    endloop
  endfacet
  facet normal 0.000000e+00 0.000000e+00 -1.000000e+00
    outer loop
      vertex -1.668353e+01 -9.350390e+00 0.000000e+00
      vertex 1.088907e+01 -9.300000e+00 0.000000e+00
      vertex -1.311264e+01 -1.292910e+01 0.000000e+00
    endloop
  endfacet
  facet normal 0.000000e+00 0.000000e+00 -1.000000e+00
    outer loop
      vertex -1.861608e+01 -1.183440e+01 0.000000e+00
      vertex -1.668353e+01 -9.350390e+00 0.000000e+00
      vertex -1.668353e+01 -1.145000e+01 0.000000e+00
    endloop
  endfacet
  facet normal 0.000000e+00 0.000000e+00 -1.000000e+00
    outer loop
      vertex -1.668353e+01 -9.350390e+00 0.000000e+00
      vertex -1.475098e+01 -1.183440e+01 0.000000e+00
      vertex -1.668353e+01 -1.145000e+01 0.000000e+00
    endloop
  endfacet
  facet normal 0.000000e+00 0.000000e+00 -1.000000e+00
    outer loop
      vertex -2.134912e+01 -1.456740e+01 0.000000e+00
      vertex -1.909466e+01 -9.715720e+00 0.000000e+00
      vertex -2.025442e+01 -1.292910e+01 0.000000e+00
    endloop
  endfacet
  facet normal 0.000000e+00 0.000000e+00 -1.000000e+00
    outer loop
      vertex -2.328745e+01 -1.936850e+01 0.000000e+00
      vertex -2.083563e+01 -1.061780e+01 0.000000e+00
      vertex -2.134912e+01 -1.456740e+01 0.000000e+00
    endloop
  endfacet
  facet normal 0.000000e+00 0.000000e+00 -1.000000e+00
    outer loop
      vertex -1.201794e+01 1.456740e+01 0.000000e+00
      vertex 1.088907e+01 9.300000e+00 0.000000e+00
      vertex -1.311264e+01 1.292910e+01 0.000000e+00
    endloop
  endfacet
  facet normal 0.000000e+00 0.000000e+00 -1.000000e+00
    outer loop
      vertex -2.134912e+01 1.456740e+01 0.000000e+00
      vertex -2.381647e+01 1.551960e+01 0.000000e+00
      vertex -2.173353e+01 1.650000e+01 0.000000e+00
    endloop
  endfacet
  facet normal 0.000000e+00 0.000000e+00 -1.000000e+00
    outer loop
      vertex -2.025442e+01 1.292910e+01 0.000000e+00
      vertex -2.328745e+01 1.363150e+01 0.000000e+00
      vertex -2.134912e+01 1.456740e+01 0.000000e+00
    endloop
  endfacet
  facet normal 0.000000e+00 0.000000e+00 -1.000000e+00
    outer loop
      vertex -1.861608e+01 1.183440e+01 0.000000e+00
      vertex -2.226865e+01 1.195620e+01 0.000000e+00
      vertex -2.025442e+01 1.292910e+01 0.000000e+00
    endloop
  endfacet
  facet normal 0.000000e+00 0.000000e+00 -1.000000e+00
    outer loop
      vertex -1.668353e+01 1.145000e+01 0.000000e+00
      vertex -2.226865e+01 1.195620e+01 0.000000e+00
      vertex -1.861608e+01 1.183440e+01 0.000000e+00
    endloop
  endfacet
  facet normal 0.000000e+00 0.000000e+00 -1.000000e+00
    outer loop
      vertex 1.088907e+01 9.300000e+00 0.000000e+00
      vertex -2.083563e+01 1.061780e+01 0.000000e+00
      vertex -1.668353e+01 1.145000e+01 0.000000e+00
    endloop
  endfacet
  facet normal 0.000000e+00 0.000000e+00 -1.000000e+00
    outer loop
      vertex -1.475098e+01 1.183440e+01 0.000000e+00
      vertex 1.088907e+01 9.300000e+00 0.000000e+00
      vertex -1.668353e+01 1.145000e+01 0.000000e+00
    endloop
  endfacet
  facet normal 0.000000e+00 0.000000e+00 -1.000000e+00
    outer loop
      vertex -1.311264e+01 1.292910e+01 0.000000e+00
      vertex 1.088907e+01 9.300000e+00 0.000000e+00
      vertex -1.475098e+01 1.183440e+01 0.000000e+00
    endloop
  endfacet
  facet normal 0.000000e+00 0.000000e+00 -1.000000e+00
    outer loop
      vertex -1.163353e+01 1.650000e+01 0.000000e+00
      vertex 1.088907e+01 9.300000e+00 0.000000e+00
      vertex -1.201794e+01 1.456740e+01 0.000000e+00
    endloop
  endfacet
  facet normal 0.000000e+00 0.000000e+00 -1.000000e+00
    outer loop
      vertex -1.201794e+01 1.843260e+01 0.000000e+00
      vertex 1.088907e+01 9.300000e+00 0.000000e+00
      vertex -1.163353e+01 1.650000e+01 0.000000e+00
    endloop
  endfacet
  facet normal 0.000000e+00 0.000000e+00 -1.000000e+00
    outer loop
      vertex -1.311264e+01 2.007090e+01 0.000000e+00
      vertex 1.088907e+01 9.300000e+00 0.000000e+00
      vertex -1.201794e+01 1.843260e+01 0.000000e+00
    endloop
  endfacet
  facet normal -0.000000e+00 -0.000000e+00 -1.000000e+00
    outer loop
      vertex -1.668353e+01 2.155000e+01 0.000000e+00
      vertex -1.909466e+01 2.328430e+01 0.000000e+00
      vertex -1.475098e+01 2.116560e+01 0.000000e+00
    endloop
  endfacet
  facet normal 0.000000e+00 0.000000e+00 -1.000000e+00
    outer loop
      vertex 1.088907e+01 9.300000e+00 0.000000e+00
      vertex -1.311264e+01 2.007090e+01 0.000000e+00
      vertex -1.475098e+01 2.116560e+01 0.000000e+00
    endloop
  endfacet
  facet normal 0.000000e+00 0.000000e+00 -1.000000e+00
    outer loop
      vertex 1.088907e+01 9.300000e+00 0.000000e+00
      vertex -1.475098e+01 2.116560e+01 0.000000e+00
      vertex -1.909466e+01 2.328430e+01 0.000000e+00
    endloop
  endfacet
  facet normal 0.000000e+00 0.000000e+00 -1.000000e+00
    outer loop
      vertex -1.861608e+01 2.116560e+01 0.000000e+00
      vertex -2.083563e+01 2.238220e+01 0.000000e+00
      vertex -1.668353e+01 2.155000e+01 0.000000e+00
    endloop
  endfacet
  facet normal 0.000000e+00 0.000000e+00 -1.000000e+00
    outer loop
      vertex -2.025442e+01 2.007090e+01 0.000000e+00
      vertex -2.226865e+01 2.104380e+01 0.000000e+00
      vertex -1.861608e+01 2.116560e+01 0.000000e+00
    endloop
  endfacet
  facet normal 0.000000e+00 0.000000e+00 -1.000000e+00
    outer loop
      vertex -2.134912e+01 1.843260e+01 0.000000e+00
      vertex -2.328745e+01 1.936850e+01 0.000000e+00
      vertex -2.025442e+01 2.007090e+01 0.000000e+00
    endloop
  endfacet
  facet normal 0.000000e+00 0.000000e+00 -1.000000e+00
    outer loop
      vertex 2.231647e+01 1.750000e+01 0.000000e+00
      vertex 2.381647e+01 1.950000e+01 0.000000e+00
      vertex 2.381647e+01 1.750000e+01 0.000000e+00
    endloop
  endfacet
  facet normal 0.000000e+00 0.000000e+00 -1.000000e+00
    outer loop
      vertex 1.731647e+01 1.950000e+01 0.000000e+00
      vertex 2.268707e+01 2.316160e+01 0.000000e+00
      vertex 2.231647e+01 1.950000e+01 0.000000e+00
    endloop
  endfacet
  facet normal 0.000000e+00 0.000000e+00 -1.000000e+00
    outer loop
      vertex -1.201794e+01 -1.843260e+01 0.000000e+00
      vertex 1.731647e+01 -1.950000e+01 0.000000e+00
      vertex 2.352767e+01 -2.141590e+01 0.000000e+00
    endloop
  endfacet
  facet normal 0.000000e+00 0.000000e+00 -1.000000e+00
    outer loop
      vertex -1.201794e+01 -1.843260e+01 0.000000e+00
      vertex 2.352767e+01 -2.141590e+01 0.000000e+00
      vertex -1.311264e+01 -2.007090e+01 0.000000e+00
    endloop
  endfacet
  facet normal 0.000000e+00 0.000000e+00 -1.000000e+00
    outer loop
      vertex -1.668353e+01 -2.370000e+01 0.000000e+00
      vertex -1.475098e+01 -2.116560e+01 0.000000e+00
      vertex 1.240087e+01 -2.370000e+01 0.000000e+00
    endloop
  endfacet
  facet normal -1.000000e+00 -0.000000e+00 -0.000000e+00
    outer loop
      vertex -2.381647e+01 -1.748040e+01 0.000000e+00
      vertex -2.381647e+01 -1.748040e+01 4.000000e+00
      vertex -2.381647e+01 -1.551960e+01 0.000000e+00
    endloop
  endfacet
  facet normal -1.000000e+00 0.000000e+00 0.000000e+00
    outer loop
      vertex -2.381647e+01 -1.551960e+01 0.000000e+00
      vertex -2.381647e+01 -1.748040e+01 4.000000e+00
      vertex -2.381647e+01 -1.551960e+01 4.000000e+00
    endloop
  endfacet
  facet normal -9.629172e-01 -2.697971e-01 -0.000000e+00
    outer loop
      vertex -2.381647e+01 -1.748040e+01 0.000000e+00
      vertex -2.328745e+01 -1.936850e+01 0.000000e+00
      vertex -2.381647e+01 -1.748040e+01 4.000000e+00
    endloop
  endfacet
  facet normal -9.629172e-01 -2.697971e-01 0.000000e+00
    outer loop
      vertex -2.381647e+01 -1.748040e+01 4.000000e+00
      vertex -2.328745e+01 -1.936850e+01 0.000000e+00
      vertex -2.328745e+01 -1.936850e+01 4.000000e+00
    endloop
  endfacet
  facet normal -8.544193e-01 -5.195842e-01 -0.000000e+00
    outer loop
      vertex -2.328745e+01 -1.936850e+01 0.000000e+00
      vertex -2.226865e+01 -2.104380e+01 0.000000e+00
      vertex -2.328745e+01 -1.936850e+01 4.000000e+00
    endloop
  endfacet
  facet normal -8.544193e-01 -5.195842e-01 0.000000e+00
    outer loop
      vertex -2.328745e+01 -1.936850e+01 4.000000e+00
      vertex -2.226865e+01 -2.104380e+01 0.000000e+00
      vertex -2.226865e+01 -2.104380e+01 4.000000e+00
    endloop
  endfacet
  facet normal -6.825531e-01 -7.308360e-01 0.000000e+00
    outer loop
      vertex -2.226865e+01 -2.104380e+01 4.000000e+00
      vertex -2.226865e+01 -2.104380e+01 0.000000e+00
      vertex -2.083563e+01 -2.238220e+01 0.000000e+00
    endloop
  endfacet
  facet normal -6.825531e-01 -7.308360e-01 0.000000e+00
    outer loop
      vertex -2.083563e+01 -2.238220e+01 4.000000e+00
      vertex -2.226865e+01 -2.104380e+01 4.000000e+00
      vertex -2.083563e+01 -2.238220e+01 0.000000e+00
    endloop
  endfacet
  facet normal -4.600651e-01 -8.878852e-01 0.000000e+00
    outer loop
      vertex -2.083563e+01 -2.238220e+01 4.000000e+00
      vertex -2.083563e+01 -2.238220e+01 0.000000e+00
      vertex -1.909466e+01 -2.328430e+01 0.000000e+00
    endloop
  endfacet
  facet normal -4.600651e-01 -8.878852e-01 0.000000e+00
    outer loop
      vertex -1.909466e+01 -2.328430e+01 4.000000e+00
      vertex -2.083563e+01 -2.238220e+01 4.000000e+00
      vertex -1.909466e+01 -2.328430e+01 0.000000e+00
    endloop
  endfacet
  facet normal -2.034560e-01 -9.790841e-01 0.000000e+00
    outer loop
      vertex -1.909466e+01 -2.328430e+01 4.000000e+00
      vertex -1.909466e+01 -2.328430e+01 0.000000e+00
      vertex -1.717488e+01 -2.368320e+01 0.000000e+00
    endloop
  endfacet
  facet normal -2.034560e-01 -9.790841e-01 0.000000e+00
    outer loop
      vertex -1.717488e+01 -2.368320e+01 4.000000e+00
      vertex -1.909466e+01 -2.328430e+01 4.000000e+00
      vertex -1.717488e+01 -2.368320e+01 0.000000e+00
    endloop
  endfacet
  facet normal 6.824259e-02 -9.976687e-01 0.000000e+00
    outer loop
      vertex -1.717488e+01 -2.368320e+01 4.000000e+00
      vertex -1.717488e+01 -2.368320e+01 0.000000e+00
      vertex -1.668353e+01 -2.364960e+01 0.000000e+00
    endloop
  endfacet
  facet normal 6.824259e-02 -9.976687e-01 0.000000e+00
    outer loop
      vertex -1.668353e+01 -2.364960e+01 4.000000e+00
      vertex -1.717488e+01 -2.368320e+01 4.000000e+00
      vertex -1.668353e+01 -2.364960e+01 0.000000e+00
    endloop
  endfacet
  facet normal -1.000000e+00 -0.000000e+00 -0.000000e+00
    outer loop
      vertex -1.668353e+01 -2.370000e+01 0.000000e+00
      vertex -1.668353e+01 -2.370000e+01 4.000000e+00
      vertex -1.668353e+01 -2.364960e+01 0.000000e+00
    endloop
  endfacet
  facet normal -1.000000e+00 0.000000e+00 0.000000e+00
    outer loop
      vertex -1.668353e+01 -2.364960e+01 0.000000e+00
      vertex -1.668353e+01 -2.370000e+01 4.000000e+00
      vertex -1.668353e+01 -2.364960e+01 4.000000e+00
    endloop
  endfacet
  facet normal 0.000000e+00 -1.000000e+00 0.000000e+00
    outer loop
      vertex -1.668353e+01 -2.370000e+01 4.000000e+00
      vertex -1.668353e+01 -2.370000e+01 0.000000e+00
      vertex 1.240087e+01 -2.370000e+01 0.000000e+00
    endloop
  endfacet
  facet normal 0.000000e+00 -1.000000e+00 0.000000e+00
    outer loop
      vertex 1.240087e+01 -2.370000e+01 4.000000e+00
      vertex -1.668353e+01 -2.370000e+01 4.000000e+00
      vertex 1.240087e+01 -2.370000e+01 0.000000e+00
    endloop
  endfacet
  facet normal -8.262389e-01 -5.633199e-01 -0.000000e+00
    outer loop
      vertex 1.240087e+01 -2.370000e+01 0.000000e+00
      vertex 1.255167e+01 -2.392110e+01 0.000000e+00
      vertex 1.240087e+01 -2.370000e+01 4.000000e+00
    endloop
  endfacet
  facet normal -8.262389e-01 -5.633199e-01 0.000000e+00
    outer loop
      vertex 1.240087e+01 -2.370000e+01 4.000000e+00
      vertex 1.255167e+01 -2.392110e+01 0.000000e+00
      vertex 1.255167e+01 -2.392110e+01 4.000000e+00
    endloop
  endfacet
  facet normal -6.234897e-01 -7.818316e-01 0.000000e+00
    outer loop
      vertex 1.255167e+01 -2.392110e+01 4.000000e+00
      vertex 1.255167e+01 -2.392110e+01 0.000000e+00
      vertex 1.406647e+01 -2.512920e+01 0.000000e+00
    endloop
  endfacet
  facet normal -6.234897e-01 -7.818316e-01 0.000000e+00
    outer loop
      vertex 1.406647e+01 -2.512920e+01 4.000000e+00
      vertex 1.255167e+01 -2.392110e+01 4.000000e+00
      vertex 1.406647e+01 -2.512920e+01 0.000000e+00
    endloop
  endfacet
  facet normal -3.653409e-01 -9.308738e-01 0.000000e+00
    outer loop
      vertex 1.406647e+01 -2.512920e+01 4.000000e+00
      vertex 1.406647e+01 -2.512920e+01 0.000000e+00
      vertex 1.587007e+01 -2.583700e+01 0.000000e+00
    endloop
  endfacet
  facet normal -3.653409e-01 -9.308738e-01 0.000000e+00
    outer loop
      vertex 1.587007e+01 -2.583700e+01 4.000000e+00
      vertex 1.406647e+01 -2.512920e+01 4.000000e+00
      vertex 1.587007e+01 -2.583700e+01 0.000000e+00
    endloop
  endfacet
  facet normal -7.473049e-02 -9.972038e-01 0.000000e+00
    outer loop
      vertex 1.587007e+01 -2.583700e+01 4.000000e+00
      vertex 1.587007e+01 -2.583700e+01 0.000000e+00
      vertex 1.780217e+01 -2.598180e+01 0.000000e+00
    endloop
  endfacet
  facet normal -7.473049e-02 -9.972038e-01 0.000000e+00
    outer loop
      vertex 1.780217e+01 -2.598180e+01 4.000000e+00
      vertex 1.587007e+01 -2.583700e+01 4.000000e+00
      vertex 1.780217e+01 -2.598180e+01 0.000000e+00
    endloop
  endfacet
  facet normal 2.225210e-01 -9.749279e-01 0.000000e+00
    outer loop
      vertex 1.780217e+01 -2.598180e+01 4.000000e+00
      vertex 1.780217e+01 -2.598180e+01 0.000000e+00
      vertex 1.969117e+01 -2.555070e+01 0.000000e+00
    endloop
  endfacet
  facet normal 2.225210e-01 -9.749279e-01 0.000000e+00
    outer loop
      vertex 1.969117e+01 -2.555070e+01 4.000000e+00
      vertex 1.780217e+01 -2.598180e+01 4.000000e+00
      vertex 1.969117e+01 -2.555070e+01 0.000000e+00
    endloop
  endfacet
  facet normal 4.999998e-01 -8.660256e-01 0.000000e+00
    outer loop
      vertex 1.969117e+01 -2.555070e+01 4.000000e+00
      vertex 1.969117e+01 -2.555070e+01 0.000000e+00
      vertex 2.136917e+01 -2.458190e+01 0.000000e+00
    endloop
  endfacet
  facet normal 4.999998e-01 -8.660256e-01 0.000000e+00
    outer loop
      vertex 2.136917e+01 -2.458190e+01 4.000000e+00
      vertex 1.969117e+01 -2.555070e+01 4.000000e+00
      vertex 2.136917e+01 -2.458190e+01 0.000000e+00
    endloop
  endfacet
  facet normal 7.330523e-01 -6.801723e-01 0.000000e+00
    outer loop
      vertex 2.136917e+01 -2.458190e+01 4.000000e+00
      vertex 2.136917e+01 -2.458190e+01 0.000000e+00
      vertex 2.268707e+01 -2.316160e+01 0.000000e+00
    endloop
  endfacet
  facet normal 7.330523e-01 -6.801723e-01 0.000000e+00
    outer loop
      vertex 2.268707e+01 -2.316160e+01 4.000000e+00
      vertex 2.136917e+01 -2.458190e+01 4.000000e+00
      vertex 2.268707e+01 -2.316160e+01 0.000000e+00
    endloop
  endfacet
  facet normal 9.009688e-01 -4.338839e-01 0.000000e+00
    outer loop
      vertex 2.268707e+01 -2.316160e+01 4.000000e+00
      vertex 2.268707e+01 -2.316160e+01 0.000000e+00
      vertex 2.352767e+01 -2.141590e+01 0.000000e+00
    endloop
  endfacet
  facet normal 9.009688e-01 -4.338839e-01 0.000000e+00
    outer loop
      vertex 2.352767e+01 -2.141590e+01 4.000000e+00
      vertex 2.268707e+01 -2.316160e+01 4.000000e+00
      vertex 2.352767e+01 -2.141590e+01 0.000000e+00
    endloop
  endfacet
  facet normal 9.888309e-01 -1.490420e-01 0.000000e+00
    outer loop
      vertex 2.352767e+01 -2.141590e+01 4.000000e+00
      vertex 2.352767e+01 -2.141590e+01 0.000000e+00
      vertex 2.381647e+01 -1.950000e+01 0.000000e+00
    endloop
  endfacet
  facet normal 9.888309e-01 -1.490420e-01 0.000000e+00
    outer loop
      vertex 2.381647e+01 -1.950000e+01 4.000000e+00
      vertex 2.352767e+01 -2.141590e+01 4.000000e+00
      vertex 2.381647e+01 -1.950000e+01 0.000000e+00
    endloop
  endfacet
  facet normal 1.000000e+00 0.000000e+00 0.000000e+00
    outer loop
      vertex 2.381647e+01 -1.950000e+01 4.000000e+00
      vertex 2.381647e+01 -1.950000e+01 0.000000e+00
      vertex 2.381647e+01 -1.750000e+01 0.000000e+00
    endloop
  endfacet
  facet normal 1.000000e+00 0.000000e+00 0.000000e+00
    outer loop
      vertex 2.381647e+01 -1.750000e+01 4.000000e+00
      vertex 2.381647e+01 -1.950000e+01 4.000000e+00
      vertex 2.381647e+01 -1.750000e+01 0.000000e+00
    endloop
  endfacet
  facet normal 0.000000e+00 1.000000e+00 0.000000e+00
    outer loop
      vertex 2.381647e+01 -1.750000e+01 4.000000e+00
      vertex 2.381647e+01 -1.750000e+01 0.000000e+00
      vertex 2.231647e+01 -1.750000e+01 4.000000e+00
    endloop
  endfacet
  facet normal 0.000000e+00 1.000000e+00 0.000000e+00
    outer loop
      vertex 2.231647e+01 -1.750000e+01 4.000000e+00
      vertex 2.381647e+01 -1.750000e+01 0.000000e+00
      vertex 2.231647e+01 -1.750000e+01 0.000000e+00
    endloop
  endfacet
  facet normal -1.000000e+00 0.000000e+00 0.000000e+00
    outer loop
      vertex 2.231647e+01 -1.750000e+01 4.000000e+00
      vertex 2.231647e+01 -1.750000e+01 0.000000e+00
      vertex 2.231647e+01 -1.950000e+01 4.000000e+00
    endloop
  endfacet
  facet normal -1.000000e+00 0.000000e+00 0.000000e+00
    outer loop
      vertex 2.231647e+01 -1.950000e+01 4.000000e+00
      vertex 2.231647e+01 -1.750000e+01 0.000000e+00
      vertex 2.231647e+01 -1.950000e+01 0.000000e+00
    endloop
  endfacet
  facet normal 0.000000e+00 1.000000e+00 0.000000e+00
    outer loop
      vertex 2.231647e+01 -1.950000e+01 4.000000e+00
      vertex 2.231647e+01 -1.950000e+01 0.000000e+00
      vertex 1.731647e+01 -1.950000e+01 4.000000e+00
    endloop
  endfacet
  facet normal 0.000000e+00 1.000000e+00 0.000000e+00
    outer loop
      vertex 1.731647e+01 -1.950000e+01 4.000000e+00
      vertex 2.231647e+01 -1.950000e+01 0.000000e+00
      vertex 1.731647e+01 -1.950000e+01 0.000000e+00
    endloop
  endfacet
  facet normal 1.000000e+00 0.000000e+00 0.000000e+00
    outer loop
      vertex 1.731647e+01 1.950000e+01 0.000000e+00
      vertex 1.731647e+01 1.950000e+01 4.000000e+00
      vertex 1.731647e+01 -1.950000e+01 4.000000e+00
    endloop
  endfacet
  facet normal 1.000000e+00 0.000000e+00 0.000000e+00
    outer loop
      vertex 1.731647e+01 -1.950000e+01 0.000000e+00
      vertex 1.731647e+01 1.950000e+01 0.000000e+00
      vertex 1.731647e+01 -1.950000e+01 4.000000e+00
    endloop
  endfacet
  facet normal 0.000000e+00 -1.000000e+00 0.000000e+00
    outer loop
      vertex 2.231647e+01 1.950000e+01 0.000000e+00
      vertex 2.231647e+01 1.950000e+01 4.000000e+00
      vertex 1.731647e+01 1.950000e+01 4.000000e+00
    endloop
  endfacet
  facet normal -0.000000e+00 -1.000000e+00 -0.000000e+00
    outer loop
      vertex 1.731647e+01 1.950000e+01 0.000000e+00
      vertex 2.231647e+01 1.950000e+01 0.000000e+00
      vertex 1.731647e+01 1.950000e+01 4.000000e+00
    endloop
  endfacet
  facet normal -1.000000e+00 0.000000e+00 0.000000e+00
    outer loop
      vertex 2.231647e+01 1.950000e+01 4.000000e+00
      vertex 2.231647e+01 1.950000e+01 0.000000e+00
      vertex 2.231647e+01 1.750000e+01 4.000000e+00
    endloop
  endfacet
  facet normal -1.000000e+00 0.000000e+00 0.000000e+00
    outer loop
      vertex 2.231647e+01 1.750000e+01 4.000000e+00
      vertex 2.231647e+01 1.950000e+01 0.000000e+00
      vertex 2.231647e+01 1.750000e+01 0.000000e+00
    endloop
  endfacet
  facet normal 0.000000e+00 -1.000000e+00 0.000000e+00
    outer loop
      vertex 2.381647e+01 1.750000e+01 0.000000e+00
      vertex 2.381647e+01 1.750000e+01 4.000000e+00
      vertex 2.231647e+01 1.750000e+01 4.000000e+00
    endloop
  endfacet
  facet normal -0.000000e+00 -1.000000e+00 -0.000000e+00
    outer loop
      vertex 2.231647e+01 1.750000e+01 0.000000e+00
      vertex 2.381647e+01 1.750000e+01 0.000000e+00
      vertex 2.231647e+01 1.750000e+01 4.000000e+00
    endloop
  endfacet
  facet normal 1.000000e+00 0.000000e+00 0.000000e+00
    outer loop
      vertex 2.381647e+01 1.750000e+01 4.000000e+00
      vertex 2.381647e+01 1.750000e+01 0.000000e+00
      vertex 2.381647e+01 1.950000e+01 0.000000e+00
    endloop
  endfacet
  facet normal 1.000000e+00 0.000000e+00 0.000000e+00
    outer loop
      vertex 2.381647e+01 1.950000e+01 4.000000e+00
      vertex 2.381647e+01 1.750000e+01 4.000000e+00
      vertex 2.381647e+01 1.950000e+01 0.000000e+00
    endloop
  endfacet
  facet normal 9.888309e-01 1.490420e-01 0.000000e+00
    outer loop
      vertex 2.381647e+01 1.950000e+01 0.000000e+00
      vertex 2.352767e+01 2.141590e+01 0.000000e+00
      vertex 2.352767e+01 2.141590e+01 4.000000e+00
    endloop
  endfacet
  facet normal 9.888309e-01 1.490420e-01 0.000000e+00
    outer loop
      vertex 2.381647e+01 1.950000e+01 4.000000e+00
      vertex 2.381647e+01 1.950000e+01 0.000000e+00
      vertex 2.352767e+01 2.141590e+01 4.000000e+00
    endloop
  endfacet
  facet normal 9.009688e-01 4.338839e-01 0.000000e+00
    outer loop
      vertex 2.352767e+01 2.141590e+01 0.000000e+00
      vertex 2.268707e+01 2.316160e+01 0.000000e+00
      vertex 2.268707e+01 2.316160e+01 4.000000e+00
    endloop
  endfacet
  facet normal 9.009688e-01 4.338839e-01 0.000000e+00
    outer loop
      vertex 2.352767e+01 2.141590e+01 4.000000e+00
      vertex 2.352767e+01 2.141590e+01 0.000000e+00
      vertex 2.268707e+01 2.316160e+01 4.000000e+00
    endloop
  endfacet
  facet normal 7.330523e-01 6.801723e-01 0.000000e+00
    outer loop
      vertex 2.268707e+01 2.316160e+01 0.000000e+00
      vertex 2.136917e+01 2.458190e+01 0.000000e+00
      vertex 2.136917e+01 2.458190e+01 4.000000e+00
    endloop
  endfacet
  facet normal 7.330523e-01 6.801723e-01 0.000000e+00
    outer loop
      vertex 2.268707e+01 2.316160e+01 4.000000e+00
      vertex 2.268707e+01 2.316160e+01 0.000000e+00
      vertex 2.136917e+01 2.458190e+01 4.000000e+00
    endloop
  endfacet
  facet normal 4.999998e-01 8.660256e-01 0.000000e+00
    outer loop
      vertex 1.969117e+01 2.555070e+01 0.000000e+00
      vertex 1.969117e+01 2.555070e+01 4.000000e+00
      vertex 2.136917e+01 2.458190e+01 0.000000e+00
    endloop
  endfacet
  facet normal 4.999998e-01 8.660256e-01 0.000000e+00
    outer loop
      vertex 2.136917e+01 2.458190e+01 0.000000e+00
      vertex 1.969117e+01 2.555070e+01 4.000000e+00
      vertex 2.136917e+01 2.458190e+01 4.000000e+00
    endloop
  endfacet
  facet normal 2.225210e-01 9.749279e-01 0.000000e+00
    outer loop
      vertex 1.780217e+01 2.598180e+01 0.000000e+00
      vertex 1.780217e+01 2.598180e+01 4.000000e+00
      vertex 1.969117e+01 2.555070e+01 0.000000e+00
    endloop
  endfacet
  facet normal 2.225210e-01 9.749279e-01 0.000000e+00
    outer loop
      vertex 1.969117e+01 2.555070e+01 0.000000e+00
      vertex 1.780217e+01 2.598180e+01 4.000000e+00
      vertex 1.969117e+01 2.555070e+01 4.000000e+00
    endloop
  endfacet
  facet normal -7.473049e-02 9.972038e-01 0.000000e+00
    outer loop
      vertex 1.587007e+01 2.583700e+01 0.000000e+00
      vertex 1.587007e+01 2.583700e+01 4.000000e+00
      vertex 1.780217e+01 2.598180e+01 0.000000e+00
    endloop
  endfacet
  facet normal -7.473049e-02 9.972038e-01 0.000000e+00
    outer loop
      vertex 1.780217e+01 2.598180e+01 0.000000e+00
      vertex 1.587007e+01 2.583700e+01 4.000000e+00
      vertex 1.780217e+01 2.598180e+01 4.000000e+00
    endloop
  endfacet
  facet normal -3.653409e-01 9.308738e-01 0.000000e+00
    outer loop
      vertex 1.406647e+01 2.512920e+01 0.000000e+00
      vertex 1.406647e+01 2.512920e+01 4.000000e+00
      vertex 1.587007e+01 2.583700e+01 0.000000e+00
    endloop
  endfacet
  facet normal -3.653409e-01 9.308738e-01 0.000000e+00
    outer loop
      vertex 1.587007e+01 2.583700e+01 0.000000e+00
      vertex 1.406647e+01 2.512920e+01 4.000000e+00
      vertex 1.587007e+01 2.583700e+01 4.000000e+00
    endloop
  endfacet
  facet normal -6.234897e-01 7.818316e-01 0.000000e+00
    outer loop
      vertex 1.255167e+01 2.392110e+01 0.000000e+00
      vertex 1.255167e+01 2.392110e+01 4.000000e+00
      vertex 1.406647e+01 2.512920e+01 0.000000e+00
    endloop
  endfacet
  facet normal -6.234897e-01 7.818316e-01 0.000000e+00
    outer loop
      vertex 1.406647e+01 2.512920e+01 0.000000e+00
      vertex 1.255167e+01 2.392110e+01 4.000000e+00
      vertex 1.406647e+01 2.512920e+01 4.000000e+00
    endloop
  endfacet
  facet normal -8.262389e-01 5.633199e-01 0.000000e+00
    outer loop
      vertex 1.240087e+01 2.370000e+01 0.000000e+00
      vertex 1.240087e+01 2.370000e+01 4.000000e+00
      vertex 1.255167e+01 2.392110e+01 0.000000e+00
    endloop
  endfacet
  facet normal -8.262389e-01 5.633199e-01 0.000000e+00
    outer loop
      vertex 1.255167e+01 2.392110e+01 0.000000e+00
      vertex 1.240087e+01 2.370000e+01 4.000000e+00
      vertex 1.255167e+01 2.392110e+01 4.000000e+00
    endloop
  endfacet
  facet normal 0.000000e+00 1.000000e+00 0.000000e+00
    outer loop
      vertex -1.668353e+01 2.370000e+01 0.000000e+00
      vertex -1.668353e+01 2.370000e+01 4.000000e+00
      vertex 1.240087e+01 2.370000e+01 0.000000e+00
    endloop
  endfacet
  facet normal 0.000000e+00 1.000000e+00 0.000000e+00
    outer loop
      vertex 1.240087e+01 2.370000e+01 0.000000e+00
      vertex -1.668353e+01 2.370000e+01 4.000000e+00
      vertex 1.240087e+01 2.370000e+01 4.000000e+00
    endloop
  endfacet
  facet normal -1.000000e+00 -0.000000e+00 -0.000000e+00
    outer loop
      vertex -1.668353e+01 2.364960e+01 0.000000e+00
      vertex -1.668353e+01 2.364960e+01 4.000000e+00
      vertex -1.668353e+01 2.370000e+01 0.000000e+00
    endloop
  endfacet
  facet normal -1.000000e+00 0.000000e+00 0.000000e+00
    outer loop
      vertex -1.668353e+01 2.370000e+01 0.000000e+00
      vertex -1.668353e+01 2.364960e+01 4.000000e+00
      vertex -1.668353e+01 2.370000e+01 4.000000e+00
    endloop
  endfacet
  facet normal 6.824259e-02 9.976687e-01 0.000000e+00
    outer loop
      vertex -1.717488e+01 2.368320e+01 0.000000e+00
      vertex -1.717488e+01 2.368320e+01 4.000000e+00
      vertex -1.668353e+01 2.364960e+01 0.000000e+00
    endloop
  endfacet
  facet normal 6.824259e-02 9.976687e-01 0.000000e+00
    outer loop
      vertex -1.668353e+01 2.364960e+01 0.000000e+00
      vertex -1.717488e+01 2.368320e+01 4.000000e+00
      vertex -1.668353e+01 2.364960e+01 4.000000e+00
    endloop
  endfacet
  facet normal -2.034560e-01 9.790841e-01 0.000000e+00
    outer loop
      vertex -1.909466e+01 2.328430e+01 0.000000e+00
      vertex -1.909466e+01 2.328430e+01 4.000000e+00
      vertex -1.717488e+01 2.368320e+01 0.000000e+00
    endloop
  endfacet
  facet normal -2.034560e-01 9.790841e-01 0.000000e+00
    outer loop
      vertex -1.717488e+01 2.368320e+01 0.000000e+00
      vertex -1.909466e+01 2.328430e+01 4.000000e+00
      vertex -1.717488e+01 2.368320e+01 4.000000e+00
    endloop
  endfacet
  facet normal -4.600651e-01 8.878852e-01 0.000000e+00
    outer loop
      vertex -2.083563e+01 2.238220e+01 0.000000e+00
      vertex -2.083563e+01 2.238220e+01 4.000000e+00
      vertex -1.909466e+01 2.328430e+01 0.000000e+00
    endloop
  endfacet
  facet normal -4.600651e-01 8.878852e-01 0.000000e+00
    outer loop
      vertex -1.909466e+01 2.328430e+01 0.000000e+00
      vertex -2.083563e+01 2.238220e+01 4.000000e+00
      vertex -1.909466e+01 2.328430e+01 4.000000e+00
    endloop
  endfacet
  facet normal -6.825531e-01 7.308360e-01 0.000000e+00
    outer loop
      vertex -2.226865e+01 2.104380e+01 0.000000e+00
      vertex -2.226865e+01 2.104380e+01 4.000000e+00
      vertex -2.083563e+01 2.238220e+01 0.000000e+00
    endloop
  endfacet
  facet normal -6.825531e-01 7.308360e-01 0.000000e+00
    outer loop
      vertex -2.083563e+01 2.238220e+01 0.000000e+00
      vertex -2.226865e+01 2.104380e+01 4.000000e+00
      vertex -2.083563e+01 2.238220e+01 4.000000e+00
    endloop
  endfacet
  facet normal -8.544193e-01 5.195842e-01 0.000000e+00
    outer loop
      vertex -2.328745e+01 1.936850e+01 0.000000e+00
      vertex -2.328745e+01 1.936850e+01 4.000000e+00
      vertex -2.226865e+01 2.104380e+01 0.000000e+00
    endloop
  endfacet
  facet normal -8.544193e-01 5.195842e-01 0.000000e+00
    outer loop
      vertex -2.226865e+01 2.104380e+01 0.000000e+00
      vertex -2.328745e+01 1.936850e+01 4.000000e+00
      vertex -2.226865e+01 2.104380e+01 4.000000e+00
    endloop
  endfacet
  facet normal -9.629172e-01 2.697971e-01 0.000000e+00
    outer loop
      vertex -2.381647e+01 1.748040e+01 0.000000e+00
      vertex -2.381647e+01 1.748040e+01 4.000000e+00
      vertex -2.328745e+01 1.936850e+01 0.000000e+00
    endloop
  endfacet
  facet normal -9.629172e-01 2.697971e-01 0.000000e+00
    outer loop
      vertex -2.328745e+01 1.936850e+01 0.000000e+00
      vertex -2.381647e+01 1.748040e+01 4.000000e+00
      vertex -2.328745e+01 1.936850e+01 4.000000e+00
    endloop
  endfacet
  facet normal -1.000000e+00 -0.000000e+00 -0.000000e+00
    outer loop
      vertex -2.381647e+01 1.551960e+01 0.000000e+00
      vertex -2.381647e+01 1.551960e+01 4.000000e+00
      vertex -2.381647e+01 1.748040e+01 0.000000e+00
    endloop
  endfacet
  facet normal -1.000000e+00 0.000000e+00 0.000000e+00
    outer loop
      vertex -2.381647e+01 1.748040e+01 0.000000e+00
      vertex -2.381647e+01 1.551960e+01 4.000000e+00
      vertex -2.381647e+01 1.748040e+01 4.000000e+00
    endloop
  endfacet
  facet normal -9.629172e-01 -2.697971e-01 -0.000000e+00
    outer loop
      vertex -2.381647e+01 1.551960e+01 0.000000e+00
      vertex -2.328745e+01 1.363150e+01 0.000000e+00
      vertex -2.381647e+01 1.551960e+01 4.000000e+00
    endloop
  endfacet
  facet normal -9.629172e-01 -2.697971e-01 0.000000e+00
    outer loop
      vertex -2.381647e+01 1.551960e+01 4.000000e+00
      vertex -2.328745e+01 1.363150e+01 0.000000e+00
      vertex -2.328745e+01 1.363150e+01 4.000000e+00
    endloop
  endfacet
  facet normal -8.544193e-01 -5.195842e-01 -0.000000e+00
    outer loop
      vertex -2.328745e+01 1.363150e+01 0.000000e+00
      vertex -2.226865e+01 1.195620e+01 0.000000e+00
      vertex -2.328745e+01 1.363150e+01 4.000000e+00
    endloop
  endfacet
  facet normal -8.544193e-01 -5.195842e-01 0.000000e+00
    outer loop
      vertex -2.328745e+01 1.363150e+01 4.000000e+00
      vertex -2.226865e+01 1.195620e+01 0.000000e+00
      vertex -2.226865e+01 1.195620e+01 4.000000e+00
    endloop
  endfacet
  facet normal -6.825531e-01 -7.308360e-01 0.000000e+00
    outer loop
      vertex -2.226865e+01 1.195620e+01 4.000000e+00
      vertex -2.226865e+01 1.195620e+01 0.000000e+00
      vertex -2.083563e+01 1.061780e+01 0.000000e+00
    endloop
  endfacet
  facet normal -6.825531e-01 -7.308360e-01 0.000000e+00
    outer loop
      vertex -2.083563e+01 1.061780e+01 4.000000e+00
      vertex -2.226865e+01 1.195620e+01 4.000000e+00
      vertex -2.083563e+01 1.061780e+01 0.000000e+00
    endloop
  endfacet
  facet normal -4.600651e-01 -8.878852e-01 0.000000e+00
    outer loop
      vertex -2.083563e+01 1.061780e+01 4.000000e+00
      vertex -2.083563e+01 1.061780e+01 0.000000e+00
      vertex -1.909466e+01 9.715720e+00 0.000000e+00
    endloop
  endfacet
  facet normal -4.600651e-01 -8.878852e-01 0.000000e+00
    outer loop
      vertex -1.909466e+01 9.715720e+00 4.000000e+00
      vertex -2.083563e+01 1.061780e+01 4.000000e+00
      vertex -1.909466e+01 9.715720e+00 0.000000e+00
    endloop
  endfacet
  facet normal -2.034560e-01 -9.790841e-01 0.000000e+00
    outer loop
      vertex -1.909466e+01 9.715720e+00 4.000000e+00
      vertex -1.909466e+01 9.715720e+00 0.000000e+00
      vertex -1.717488e+01 9.316780e+00 0.000000e+00
    endloop
  endfacet
  facet normal -2.034560e-01 -9.790841e-01 0.000000e+00
    outer loop
      vertex -1.717488e+01 9.316780e+00 4.000000e+00
      vertex -1.909466e+01 9.715720e+00 4.000000e+00
      vertex -1.717488e+01 9.316780e+00 0.000000e+00
    endloop
  endfacet
  facet normal 6.824259e-02 -9.976687e-01 0.000000e+00
    outer loop
      vertex -1.717488e+01 9.316780e+00 4.000000e+00
      vertex -1.717488e+01 9.316780e+00 0.000000e+00
      vertex -1.668353e+01 9.350390e+00 0.000000e+00
    endloop
  endfacet
  facet normal 6.824259e-02 -9.976687e-01 0.000000e+00
    outer loop
      vertex -1.668353e+01 9.350390e+00 4.000000e+00
      vertex -1.717488e+01 9.316780e+00 4.000000e+00
      vertex -1.668353e+01 9.350390e+00 0.000000e+00
    endloop
  endfacet
  facet normal -1.000000e+00 -0.000000e+00 -0.000000e+00
    outer loop
      vertex -1.668353e+01 9.300000e+00 0.000000e+00
      vertex -1.668353e+01 9.300000e+00 4.000000e+00
      vertex -1.668353e+01 9.350390e+00 0.000000e+00
    endloop
  endfacet
  facet normal -1.000000e+00 0.000000e+00 0.000000e+00
    outer loop
      vertex -1.668353e+01 9.350390e+00 0.000000e+00
      vertex -1.668353e+01 9.300000e+00 4.000000e+00
      vertex -1.668353e+01 9.350390e+00 4.000000e+00
    endloop
  endfacet
  facet normal 0.000000e+00 -1.000000e+00 0.000000e+00
    outer loop
      vertex -1.668353e+01 9.300000e+00 4.000000e+00
      vertex -1.668353e+01 9.300000e+00 0.000000e+00
      vertex 1.088907e+01 9.300000e+00 0.000000e+00
    endloop
  endfacet
  facet normal 0.000000e+00 -1.000000e+00 0.000000e+00
    outer loop
      vertex 1.088907e+01 9.300000e+00 4.000000e+00
      vertex -1.668353e+01 9.300000e+00 4.000000e+00
      vertex 1.088907e+01 9.300000e+00 0.000000e+00
    endloop
  endfacet
  facet normal -1.000000e+00 -0.000000e+00 -0.000000e+00
    outer loop
      vertex 1.088907e+01 -9.300000e+00 0.000000e+00
      vertex 1.088907e+01 -9.300000e+00 4.000000e+00
      vertex 1.088907e+01 9.300000e+00 0.000000e+00
    endloop
  endfacet
  facet normal -1.000000e+00 0.000000e+00 0.000000e+00
    outer loop
      vertex 1.088907e+01 9.300000e+00 0.000000e+00
      vertex 1.088907e+01 -9.300000e+00 4.000000e+00
      vertex 1.088907e+01 9.300000e+00 4.000000e+00
    endloop
  endfacet
  facet normal 0.000000e+00 1.000000e+00 0.000000e+00
    outer loop
      vertex -1.668353e+01 -9.300000e+00 0.000000e+00
      vertex -1.668353e+01 -9.300000e+00 4.000000e+00
      vertex 1.088907e+01 -9.300000e+00 0.000000e+00
    endloop
  endfacet
  facet normal 0.000000e+00 1.000000e+00 0.000000e+00
    outer loop
      vertex 1.088907e+01 -9.300000e+00 0.000000e+00
      vertex -1.668353e+01 -9.300000e+00 4.000000e+00
      vertex 1.088907e+01 -9.300000e+00 4.000000e+00
    endloop
  endfacet
  facet normal -1.000000e+00 -0.000000e+00 -0.000000e+00
    outer loop
      vertex -1.668353e+01 -9.350390e+00 0.000000e+00
      vertex -1.668353e+01 -9.350390e+00 4.000000e+00
      vertex -1.668353e+01 -9.300000e+00 0.000000e+00
    endloop
  endfacet
  facet normal -1.000000e+00 0.000000e+00 0.000000e+00
    outer loop
      vertex -1.668353e+01 -9.300000e+00 0.000000e+00
      vertex -1.668353e+01 -9.350390e+00 4.000000e+00
      vertex -1.668353e+01 -9.300000e+00 4.000000e+00
    endloop
  endfacet
  facet normal 6.824259e-02 9.976687e-01 0.000000e+00
    outer loop
      vertex -1.717488e+01 -9.316780e+00 0.000000e+00
      vertex -1.717488e+01 -9.316780e+00 4.000000e+00
      vertex -1.668353e+01 -9.350390e+00 0.000000e+00
    endloop
  endfacet
  facet normal 6.824259e-02 9.976687e-01 0.000000e+00
    outer loop
      vertex -1.668353e+01 -9.350390e+00 0.000000e+00
      vertex -1.717488e+01 -9.316780e+00 4.000000e+00
      vertex -1.668353e+01 -9.350390e+00 4.000000e+00
    endloop
  endfacet
  facet normal -2.034560e-01 9.790841e-01 0.000000e+00
    outer loop
      vertex -1.909466e+01 -9.715720e+00 0.000000e+00
      vertex -1.909466e+01 -9.715720e+00 4.000000e+00
      vertex -1.717488e+01 -9.316780e+00 0.000000e+00
    endloop
  endfacet
  facet normal -2.034560e-01 9.790841e-01 0.000000e+00
    outer loop
      vertex -1.717488e+01 -9.316780e+00 0.000000e+00
      vertex -1.909466e+01 -9.715720e+00 4.000000e+00
      vertex -1.717488e+01 -9.316780e+00 4.000000e+00
    endloop
  endfacet
  facet normal -4.600651e-01 8.878852e-01 0.000000e+00
    outer loop
      vertex -2.083563e+01 -1.061780e+01 0.000000e+00
      vertex -2.083563e+01 -1.061780e+01 4.000000e+00
      vertex -1.909466e+01 -9.715720e+00 0.000000e+00
    endloop
  endfacet
  facet normal -4.600651e-01 8.878852e-01 0.000000e+00
    outer loop
      vertex -1.909466e+01 -9.715720e+00 0.000000e+00
      vertex -2.083563e+01 -1.061780e+01 4.000000e+00
      vertex -1.909466e+01 -9.715720e+00 4.000000e+00
    endloop
  endfacet
  facet normal -6.825531e-01 7.308360e-01 0.000000e+00
    outer loop
      vertex -2.226865e+01 -1.195620e+01 0.000000e+00
      vertex -2.226865e+01 -1.195620e+01 4.000000e+00
      vertex -2.083563e+01 -1.061780e+01 0.000000e+00
    endloop
  endfacet
  facet normal -6.825531e-01 7.308360e-01 0.000000e+00
    outer loop
      vertex -2.083563e+01 -1.061780e+01 0.000000e+00
      vertex -2.226865e+01 -1.195620e+01 4.000000e+00
      vertex -2.083563e+01 -1.061780e+01 4.000000e+00
    endloop
  endfacet
  facet normal -8.544193e-01 5.195842e-01 0.000000e+00
    outer loop
      vertex -2.328745e+01 -1.363150e+01 0.000000e+00
      vertex -2.328745e+01 -1.363150e+01 4.000000e+00
      vertex -2.226865e+01 -1.195620e+01 0.000000e+00
    endloop
  endfacet
  facet normal -8.544193e-01 5.195842e-01 0.000000e+00
    outer loop
      vertex -2.226865e+01 -1.195620e+01 0.000000e+00
      vertex -2.328745e+01 -1.363150e+01 4.000000e+00
      vertex -2.226865e+01 -1.195620e+01 4.000000e+00
    endloop
  endfacet
  facet normal -9.629172e-01 2.697971e-01 0.000000e+00
    outer loop
      vertex -2.381647e+01 -1.551960e+01 0.000000e+00
      vertex -2.381647e+01 -1.551960e+01 4.000000e+00
      vertex -2.328745e+01 -1.363150e+01 0.000000e+00
    endloop
  endfacet
  facet normal -9.629172e-01 2.697971e-01 0.000000e+00
    outer loop
      vertex -2.328745e+01 -1.363150e+01 0.000000e+00
      vertex -2.381647e+01 -1.551960e+01 4.000000e+00
      vertex -2.328745e+01 -1.363150e+01 4.000000e+00
    endloop
  endfacet
  facet normal 9.807854e-01 -1.950901e-01 0.000000e+00
    outer loop
      vertex -2.134912e+01 -1.456740e+01 0.000000e+00
      vertex -2.134912e+01 -1.456740e+01 4.000000e+00
      vertex -2.173353e+01 -1.650000e+01 4.000000e+00
    endloop
  endfacet
  facet normal 9.807854e-01 -1.950901e-01 0.000000e+00
    outer loop
      vertex -2.173353e+01 -1.650000e+01 0.000000e+00
      vertex -2.134912e+01 -1.456740e+01 0.000000e+00
      vertex -2.173353e+01 -1.650000e+01 4.000000e+00
    endloop
  endfacet
  facet normal 9.807854e-01 1.950901e-01 0.000000e+00
    outer loop
      vertex -2.173353e+01 -1.650000e+01 4.000000e+00
      vertex -2.134912e+01 -1.843260e+01 4.000000e+00
      vertex -2.134912e+01 -1.843260e+01 0.000000e+00
    endloop
  endfacet
  facet normal 9.807854e-01 1.950901e-01 0.000000e+00
    outer loop
      vertex -2.173353e+01 -1.650000e+01 0.000000e+00
      vertex -2.173353e+01 -1.650000e+01 4.000000e+00
      vertex -2.134912e+01 -1.843260e+01 0.000000e+00
    endloop
  endfacet
  facet normal 8.314696e-01 -5.555704e-01 0.000000e+00
    outer loop
      vertex -2.025442e+01 -1.292910e+01 0.000000e+00
      vertex -2.025442e+01 -1.292910e+01 4.000000e+00
      vertex -2.134912e+01 -1.456740e+01 4.000000e+00
    endloop
  endfacet
  facet normal 8.314696e-01 -5.555704e-01 0.000000e+00
    outer loop
      vertex -2.134912e+01 -1.456740e+01 0.000000e+00
      vertex -2.025442e+01 -1.292910e+01 0.000000e+00
      vertex -2.134912e+01 -1.456740e+01 4.000000e+00
    endloop
  endfacet
  facet normal 5.555704e-01 -8.314696e-01 0.000000e+00
    outer loop
      vertex -1.861608e+01 -1.183440e+01 0.000000e+00
      vertex -1.861608e+01 -1.183440e+01 4.000000e+00
      vertex -2.025442e+01 -1.292910e+01 4.000000e+00
    endloop
  endfacet
  facet normal 5.555704e-01 -8.314696e-01 0.000000e+00
    outer loop
      vertex -2.025442e+01 -1.292910e+01 0.000000e+00
      vertex -1.861608e+01 -1.183440e+01 0.000000e+00
      vertex -2.025442e+01 -1.292910e+01 4.000000e+00
    endloop
  endfacet
  facet normal 1.950901e-01 -9.807854e-01 0.000000e+00
    outer loop
      vertex -1.668353e+01 -1.145000e+01 0.000000e+00
      vertex -1.668353e+01 -1.145000e+01 4.000000e+00
      vertex -1.861608e+01 -1.183440e+01 4.000000e+00
    endloop
  endfacet
  facet normal 1.950901e-01 -9.807854e-01 0.000000e+00
    outer loop
      vertex -1.861608e+01 -1.183440e+01 0.000000e+00
      vertex -1.668353e+01 -1.145000e+01 0.000000e+00
      vertex -1.861608e+01 -1.183440e+01 4.000000e+00
    endloop
  endfacet
  facet normal -1.950901e-01 -9.807854e-01 -0.000000e+00
    outer loop
      vertex -1.475098e+01 -1.183440e+01 0.000000e+00
      vertex -1.475098e+01 -1.183440e+01 4.000000e+00
      vertex -1.668353e+01 -1.145000e+01 4.000000e+00
    endloop
  endfacet
  facet normal -1.950901e-01 -9.807854e-01 -0.000000e+00
    outer loop
      vertex -1.668353e+01 -1.145000e+01 0.000000e+00
      vertex -1.475098e+01 -1.183440e+01 0.000000e+00
      vertex -1.668353e+01 -1.145000e+01 4.000000e+00
    endloop
  endfacet
  facet normal -5.555704e-01 -8.314696e-01 -0.000000e+00
    outer loop
      vertex -1.311264e+01 -1.292910e+01 0.000000e+00
      vertex -1.311264e+01 -1.292910e+01 4.000000e+00
      vertex -1.475098e+01 -1.183440e+01 4.000000e+00
    endloop
  endfacet
  facet normal -5.555704e-01 -8.314696e-01 -0.000000e+00
    outer loop
      vertex -1.475098e+01 -1.183440e+01 0.000000e+00
      vertex -1.311264e+01 -1.292910e+01 0.000000e+00
      vertex -1.475098e+01 -1.183440e+01 4.000000e+00
    endloop
  endfacet
  facet normal -8.314696e-01 -5.555704e-01 0.000000e+00
    outer loop
      vertex -1.201794e+01 -1.456740e+01 4.000000e+00
      vertex -1.311264e+01 -1.292910e+01 4.000000e+00
      vertex -1.201794e+01 -1.456740e+01 0.000000e+00
    endloop
  endfacet
  facet normal -8.314696e-01 -5.555704e-01 0.000000e+00
    outer loop
      vertex -1.201794e+01 -1.456740e+01 0.000000e+00
      vertex -1.311264e+01 -1.292910e+01 4.000000e+00
      vertex -1.311264e+01 -1.292910e+01 0.000000e+00
    endloop
  endfacet
  facet normal -9.807854e-01 -1.950901e-01 0.000000e+00
    outer loop
      vertex -1.163353e+01 -1.650000e+01 4.000000e+00
      vertex -1.201794e+01 -1.456740e+01 4.000000e+00
      vertex -1.163353e+01 -1.650000e+01 0.000000e+00
    endloop
  endfacet
  facet normal -9.807854e-01 -1.950901e-01 0.000000e+00
    outer loop
      vertex -1.163353e+01 -1.650000e+01 0.000000e+00
      vertex -1.201794e+01 -1.456740e+01 4.000000e+00
      vertex -1.201794e+01 -1.456740e+01 0.000000e+00
    endloop
  endfacet
  facet normal -9.807854e-01 1.950901e-01 0.000000e+00
    outer loop
      vertex -1.163353e+01 -1.650000e+01 4.000000e+00
      vertex -1.163353e+01 -1.650000e+01 0.000000e+00
      vertex -1.201794e+01 -1.843260e+01 4.000000e+00
    endloop
  endfacet
  facet normal -9.807854e-01 1.950901e-01 0.000000e+00
    outer loop
      vertex -1.201794e+01 -1.843260e+01 4.000000e+00
      vertex -1.163353e+01 -1.650000e+01 0.000000e+00
      vertex -1.201794e+01 -1.843260e+01 0.000000e+00
    endloop
  endfacet
  facet normal -8.314696e-01 5.555704e-01 0.000000e+00
    outer loop
      vertex -1.201794e+01 -1.843260e+01 4.000000e+00
      vertex -1.201794e+01 -1.843260e+01 0.000000e+00
      vertex -1.311264e+01 -2.007090e+01 4.000000e+00
    endloop
  endfacet
  facet normal -8.314696e-01 5.555704e-01 0.000000e+00
    outer loop
      vertex -1.311264e+01 -2.007090e+01 4.000000e+00
      vertex -1.201794e+01 -1.843260e+01 0.000000e+00
      vertex -1.311264e+01 -2.007090e+01 0.000000e+00
    endloop
  endfacet
  facet normal -5.555704e-01 8.314696e-01 0.000000e+00
    outer loop
      vertex -1.311264e+01 -2.007090e+01 4.000000e+00
      vertex -1.311264e+01 -2.007090e+01 0.000000e+00
      vertex -1.475098e+01 -2.116560e+01 4.000000e+00
    endloop
  endfacet
  facet normal -5.555704e-01 8.314696e-01 0.000000e+00
    outer loop
      vertex -1.475098e+01 -2.116560e+01 4.000000e+00
      vertex -1.311264e+01 -2.007090e+01 0.000000e+00
      vertex -1.475098e+01 -2.116560e+01 0.000000e+00
    endloop
  endfacet
  facet normal -1.950901e-01 9.807854e-01 0.000000e+00
    outer loop
      vertex -1.475098e+01 -2.116560e+01 4.000000e+00
      vertex -1.475098e+01 -2.116560e+01 0.000000e+00
      vertex -1.668353e+01 -2.155000e+01 4.000000e+00
    endloop
  endfacet
  facet normal -1.950901e-01 9.807854e-01 0.000000e+00
    outer loop
      vertex -1.668353e+01 -2.155000e+01 4.000000e+00
      vertex -1.475098e+01 -2.116560e+01 0.000000e+00
      vertex -1.668353e+01 -2.155000e+01 0.000000e+00
    endloop
  endfacet
  facet normal 1.950901e-01 9.807854e-01 0.000000e+00
    outer loop
      vertex -1.668353e+01 -2.155000e+01 4.000000e+00
      vertex -1.668353e+01 -2.155000e+01 0.000000e+00
      vertex -1.861608e+01 -2.116560e+01 4.000000e+00
    endloop
  endfacet
  facet normal 1.950901e-01 9.807854e-01 0.000000e+00
    outer loop
      vertex -1.861608e+01 -2.116560e+01 4.000000e+00
      vertex -1.668353e+01 -2.155000e+01 0.000000e+00
      vertex -1.861608e+01 -2.116560e+01 0.000000e+00
    endloop
  endfacet
  facet normal 5.555704e-01 8.314696e-01 0.000000e+00
    outer loop
      vertex -1.861608e+01 -2.116560e+01 4.000000e+00
      vertex -1.861608e+01 -2.116560e+01 0.000000e+00
      vertex -2.025442e+01 -2.007090e+01 4.000000e+00
    endloop
  endfacet
  facet normal 5.555704e-01 8.314696e-01 0.000000e+00
    outer loop
      vertex -2.025442e+01 -2.007090e+01 4.000000e+00
      vertex -1.861608e+01 -2.116560e+01 0.000000e+00
      vertex -2.025442e+01 -2.007090e+01 0.000000e+00
    endloop
  endfacet
  facet normal 8.314696e-01 5.555704e-01 0.000000e+00
    outer loop
      vertex -2.134912e+01 -1.843260e+01 4.000000e+00
      vertex -2.025442e+01 -2.007090e+01 4.000000e+00
      vertex -2.025442e+01 -2.007090e+01 0.000000e+00
    endloop
  endfacet
  facet normal 8.314696e-01 5.555704e-01 0.000000e+00
    outer loop
      vertex -2.134912e+01 -1.843260e+01 0.000000e+00
      vertex -2.134912e+01 -1.843260e+01 4.000000e+00
      vertex -2.025442e+01 -2.007090e+01 0.000000e+00
    endloop
  endfacet
  facet normal 9.807854e-01 -1.950901e-01 0.000000e+00
    outer loop
      vertex -2.134912e+01 1.843260e+01 0.000000e+00
      vertex -2.134912e+01 1.843260e+01 4.000000e+00
      vertex -2.173353e+01 1.650000e+01 4.000000e+00
    endloop
  endfacet
  facet normal 9.807854e-01 -1.950901e-01 0.000000e+00
    outer loop
      vertex -2.173353e+01 1.650000e+01 0.000000e+00
      vertex -2.134912e+01 1.843260e+01 0.000000e+00
      vertex -2.173353e+01 1.650000e+01 4.000000e+00
    endloop
  endfacet
  facet normal 9.807854e-01 1.950901e-01 0.000000e+00
    outer loop
      vertex -2.173353e+01 1.650000e+01 4.000000e+00
      vertex -2.134912e+01 1.456740e+01 4.000000e+00
      vertex -2.134912e+01 1.456740e+01 0.000000e+00
    endloop
  endfacet
  facet normal 9.807854e-01 1.950901e-01 0.000000e+00
    outer loop
      vertex -2.173353e+01 1.650000e+01 0.000000e+00
      vertex -2.173353e+01 1.650000e+01 4.000000e+00
      vertex -2.134912e+01 1.456740e+01 0.000000e+00
    endloop
  endfacet
  facet normal 8.314696e-01 -5.555704e-01 0.000000e+00
    outer loop
      vertex -2.025442e+01 2.007090e+01 0.000000e+00
      vertex -2.025442e+01 2.007090e+01 4.000000e+00
      vertex -2.134912e+01 1.843260e+01 4.000000e+00
    endloop
  endfacet
  facet normal 8.314696e-01 -5.555704e-01 0.000000e+00
    outer loop
      vertex -2.134912e+01 1.843260e+01 0.000000e+00
      vertex -2.025442e+01 2.007090e+01 0.000000e+00
      vertex -2.134912e+01 1.843260e+01 4.000000e+00
    endloop
  endfacet
  facet normal 5.555704e-01 -8.314696e-01 0.000000e+00
    outer loop
      vertex -1.861608e+01 2.116560e+01 0.000000e+00
      vertex -1.861608e+01 2.116560e+01 4.000000e+00
      vertex -2.025442e+01 2.007090e+01 4.000000e+00
    endloop
  endfacet
  facet normal 5.555704e-01 -8.314696e-01 0.000000e+00
    outer loop
      vertex -2.025442e+01 2.007090e+01 0.000000e+00
      vertex -1.861608e+01 2.116560e+01 0.000000e+00
      vertex -2.025442e+01 2.007090e+01 4.000000e+00
    endloop
  endfacet
  facet normal 1.950901e-01 -9.807854e-01 0.000000e+00
    outer loop
      vertex -1.668353e+01 2.155000e+01 0.000000e+00
      vertex -1.668353e+01 2.155000e+01 4.000000e+00
      vertex -1.861608e+01 2.116560e+01 4.000000e+00
    endloop
  endfacet
  facet normal 1.950901e-01 -9.807854e-01 0.000000e+00
    outer loop
      vertex -1.861608e+01 2.116560e+01 0.000000e+00
      vertex -1.668353e+01 2.155000e+01 0.000000e+00
      vertex -1.861608e+01 2.116560e+01 4.000000e+00
    endloop
  endfacet
  facet normal -1.950901e-01 -9.807854e-01 -0.000000e+00
    outer loop
      vertex -1.475098e+01 2.116560e+01 0.000000e+00
      vertex -1.475098e+01 2.116560e+01 4.000000e+00
      vertex -1.668353e+01 2.155000e+01 4.000000e+00
    endloop
  endfacet
  facet normal -1.950901e-01 -9.807854e-01 -0.000000e+00
    outer loop
      vertex -1.668353e+01 2.155000e+01 0.000000e+00
      vertex -1.475098e+01 2.116560e+01 0.000000e+00
      vertex -1.668353e+01 2.155000e+01 4.000000e+00
    endloop
  endfacet
  facet normal -5.555704e-01 -8.314696e-01 -0.000000e+00
    outer loop
      vertex -1.311264e+01 2.007090e+01 0.000000e+00
      vertex -1.311264e+01 2.007090e+01 4.000000e+00
      vertex -1.475098e+01 2.116560e+01 4.000000e+00
    endloop
  endfacet
  facet normal -5.555704e-01 -8.314696e-01 -0.000000e+00
    outer loop
      vertex -1.475098e+01 2.116560e+01 0.000000e+00
      vertex -1.311264e+01 2.007090e+01 0.000000e+00
      vertex -1.475098e+01 2.116560e+01 4.000000e+00
    endloop
  endfacet
  facet normal -8.314696e-01 -5.555704e-01 0.000000e+00
    outer loop
      vertex -1.201794e+01 1.843260e+01 4.000000e+00
      vertex -1.311264e+01 2.007090e+01 4.000000e+00
      vertex -1.201794e+01 1.843260e+01 0.000000e+00
    endloop
  endfacet
  facet normal -8.314696e-01 -5.555704e-01 0.000000e+00
    outer loop
      vertex -1.201794e+01 1.843260e+01 0.000000e+00
      vertex -1.311264e+01 2.007090e+01 4.000000e+00
      vertex -1.311264e+01 2.007090e+01 0.000000e+00
    endloop
  endfacet
  facet normal -9.807854e-01 -1.950901e-01 0.000000e+00
    outer loop
      vertex -1.163353e+01 1.650000e+01 4.000000e+00
      vertex -1.201794e+01 1.843260e+01 4.000000e+00
      vertex -1.163353e+01 1.650000e+01 0.000000e+00
    endloop
  endfacet
  facet normal -9.807854e-01 -1.950901e-01 0.000000e+00
    outer loop
      vertex -1.163353e+01 1.650000e+01 0.000000e+00
      vertex -1.201794e+01 1.843260e+01 4.000000e+00
      vertex -1.201794e+01 1.843260e+01 0.000000e+00
    endloop
  endfacet
  facet normal -9.807854e-01 1.950901e-01 0.000000e+00
    outer loop
      vertex -1.163353e+01 1.650000e+01 4.000000e+00
      vertex -1.163353e+01 1.650000e+01 0.000000e+00
      vertex -1.201794e+01 1.456740e+01 4.000000e+00
    endloop
  endfacet
  facet normal -9.807854e-01 1.950901e-01 0.000000e+00
    outer loop
      vertex -1.201794e+01 1.456740e+01 4.000000e+00
      vertex -1.163353e+01 1.650000e+01 0.000000e+00
      vertex -1.201794e+01 1.456740e+01 0.000000e+00
    endloop
  endfacet
  facet normal -8.314696e-01 5.555704e-01 0.000000e+00
    outer loop
      vertex -1.201794e+01 1.456740e+01 4.000000e+00
      vertex -1.201794e+01 1.456740e+01 0.000000e+00
      vertex -1.311264e+01 1.292910e+01 4.000000e+00
    endloop
  endfacet
  facet normal -8.314696e-01 5.555704e-01 0.000000e+00
    outer loop
      vertex -1.311264e+01 1.292910e+01 4.000000e+00
      vertex -1.201794e+01 1.456740e+01 0.000000e+00
      vertex -1.311264e+01 1.292910e+01 0.000000e+00
    endloop
  endfacet
  facet normal -5.555704e-01 8.314696e-01 0.000000e+00
    outer loop
      vertex -1.311264e+01 1.292910e+01 4.000000e+00
      vertex -1.311264e+01 1.292910e+01 0.000000e+00
      vertex -1.475098e+01 1.183440e+01 4.000000e+00
    endloop
  endfacet
  facet normal -5.555704e-01 8.314696e-01 0.000000e+00
    outer loop
      vertex -1.475098e+01 1.183440e+01 4.000000e+00
      vertex -1.311264e+01 1.292910e+01 0.000000e+00
      vertex -1.475098e+01 1.183440e+01 0.000000e+00
    endloop
  endfacet
  facet normal -1.950901e-01 9.807854e-01 0.000000e+00
    outer loop
      vertex -1.475098e+01 1.183440e+01 4.000000e+00
      vertex -1.475098e+01 1.183440e+01 0.000000e+00
      vertex -1.668353e+01 1.145000e+01 4.000000e+00
    endloop
  endfacet
  facet normal -1.950901e-01 9.807854e-01 0.000000e+00
    outer loop
      vertex -1.668353e+01 1.145000e+01 4.000000e+00
      vertex -1.475098e+01 1.183440e+01 0.000000e+00
      vertex -1.668353e+01 1.145000e+01 0.000000e+00
    endloop
  endfacet
  facet normal 1.950901e-01 9.807854e-01 0.000000e+00
    outer loop
      vertex -1.668353e+01 1.145000e+01 4.000000e+00
      vertex -1.668353e+01 1.145000e+01 0.000000e+00
      vertex -1.861608e+01 1.183440e+01 4.000000e+00
    endloop
  endfacet
  facet normal 1.950901e-01 9.807854e-01 0.000000e+00
    outer loop
      vertex -1.861608e+01 1.183440e+01 4.000000e+00
      vertex -1.668353e+01 1.145000e+01 0.000000e+00
      vertex -1.861608e+01 1.183440e+01 0.000000e+00
    endloop
  endfacet
  facet normal 5.555704e-01 8.314696e-01 0.000000e+00
    outer loop
      vertex -1.861608e+01 1.183440e+01 4.000000e+00
      vertex -1.861608e+01 1.183440e+01 0.000000e+00
      vertex -2.025442e+01 1.292910e+01 4.000000e+00
    endloop
  endfacet
  facet normal 5.555704e-01 8.314696e-01 0.000000e+00
    outer loop
      vertex -2.025442e+01 1.292910e+01 4.000000e+00
      vertex -1.861608e+01 1.183440e+01 0.000000e+00
      vertex -2.025442e+01 1.292910e+01 0.000000e+00
    endloop
  endfacet
  facet normal 8.314696e-01 5.555704e-01 0.000000e+00
    outer loop
      vertex -2.134912e+01 1.456740e+01 4.000000e+00
      vertex -2.025442e+01 1.292910e+01 4.000000e+00
      vertex -2.025442e+01 1.292910e+01 0.000000e+00
    endloop
  endfacet
  facet normal 8.314696e-01 5.555704e-01 0.000000e+00
    outer loop
      vertex -2.134912e+01 1.456740e+01 0.000000e+00
      vertex -2.134912e+01 1.456740e+01 4.000000e+00
      vertex -2.025442e+01 1.292910e+01 0.000000e+00
    endloop
  endfacet
  facet normal 0.000000e+00 0.000000e+00 1.000000e+00
    outer loop
      vertex -2.381647e+01 -1.551960e+01 4.000000e+00
      vertex -2.381647e+01 -1.748040e+01 4.000000e+00
      vertex -2.328745e+01 -1.936850e+01 4.000000e+00
    endloop
  endfacet
  facet normal 0.000000e+00 0.000000e+00 1.000000e+00
    outer loop
      vertex -2.083563e+01 -2.238220e+01 4.000000e+00
      vertex -2.381647e+01 -1.551960e+01 4.000000e+00
      vertex -2.226865e+01 -2.104380e+01 4.000000e+00
    endloop
  endfacet
  facet normal 0.000000e+00 0.000000e+00 1.000000e+00
    outer loop
      vertex -2.226865e+01 -2.104380e+01 4.000000e+00
      vertex -2.381647e+01 -1.551960e+01 4.000000e+00
      vertex -2.328745e+01 -1.936850e+01 4.000000e+00
    endloop
  endfacet
  facet normal 0.000000e+00 0.000000e+00 1.000000e+00
    outer loop
      vertex -1.909466e+01 -2.328430e+01 4.000000e+00
      vertex -2.381647e+01 -1.551960e+01 4.000000e+00
      vertex -2.083563e+01 -2.238220e+01 4.000000e+00
    endloop
  endfacet
  facet normal 0.000000e+00 0.000000e+00 1.000000e+00
    outer loop
      vertex -2.025442e+01 -2.007090e+01 4.000000e+00
      vertex -2.381647e+01 -1.551960e+01 4.000000e+00
      vertex -1.909466e+01 -2.328430e+01 4.000000e+00
    endloop
  endfacet
  facet normal 0.000000e+00 0.000000e+00 1.000000e+00
    outer loop
      vertex 1.240087e+01 -2.370000e+01 4.000000e+00
      vertex -1.668353e+01 -2.364960e+01 4.000000e+00
      vertex -1.668353e+01 -2.370000e+01 4.000000e+00
    endloop
  endfacet
  facet normal 0.000000e+00 0.000000e+00 1.000000e+00
    outer loop
      vertex 1.406647e+01 -2.512920e+01 4.000000e+00
      vertex 1.240087e+01 -2.370000e+01 4.000000e+00
      vertex 1.255167e+01 -2.392110e+01 4.000000e+00
    endloop
  endfacet
  facet normal 0.000000e+00 0.000000e+00 1.000000e+00
    outer loop
      vertex 1.587007e+01 -2.583700e+01 4.000000e+00
      vertex 1.240087e+01 -2.370000e+01 4.000000e+00
      vertex 1.406647e+01 -2.512920e+01 4.000000e+00
    endloop
  endfacet
  facet normal 0.000000e+00 0.000000e+00 1.000000e+00
    outer loop
      vertex 1.780217e+01 -2.598180e+01 4.000000e+00
      vertex 1.240087e+01 -2.370000e+01 4.000000e+00
      vertex 1.587007e+01 -2.583700e+01 4.000000e+00
    endloop
  endfacet
  facet normal 0.000000e+00 0.000000e+00 1.000000e+00
    outer loop
      vertex 1.969117e+01 -2.555070e+01 4.000000e+00
      vertex 1.240087e+01 -2.370000e+01 4.000000e+00
      vertex 1.780217e+01 -2.598180e+01 4.000000e+00
    endloop
  endfacet
  facet normal 0.000000e+00 0.000000e+00 1.000000e+00
    outer loop
      vertex 2.136917e+01 -2.458190e+01 4.000000e+00
      vertex 1.240087e+01 -2.370000e+01 4.000000e+00
      vertex 1.969117e+01 -2.555070e+01 4.000000e+00
    endloop
  endfacet
  facet normal 0.000000e+00 0.000000e+00 1.000000e+00
    outer loop
      vertex -1.861608e+01 2.116560e+01 4.000000e+00
      vertex -1.668353e+01 2.155000e+01 4.000000e+00
      vertex -1.668353e+01 2.364960e+01 4.000000e+00
    endloop
  endfacet
  facet normal 0.000000e+00 0.000000e+00 1.000000e+00
    outer loop
      vertex 1.240087e+01 2.370000e+01 4.000000e+00
      vertex -1.668353e+01 9.350390e+00 4.000000e+00
      vertex -1.668353e+01 9.300000e+00 4.000000e+00
    endloop
  endfacet
  facet normal 0.000000e+00 0.000000e+00 1.000000e+00
    outer loop
      vertex 2.381647e+01 -1.750000e+01 4.000000e+00
      vertex 2.231647e+01 -1.750000e+01 4.000000e+00
      vertex 2.381647e+01 -1.950000e+01 4.000000e+00
    endloop
  endfacet
  facet normal 0.000000e+00 0.000000e+00 1.000000e+00
    outer loop
      vertex 1.240087e+01 2.370000e+01 4.000000e+00
      vertex -1.717488e+01 9.316780e+00 4.000000e+00
      vertex -1.668353e+01 9.350390e+00 4.000000e+00
    endloop
  endfacet
  facet normal 0.000000e+00 0.000000e+00 1.000000e+00
    outer loop
      vertex 2.381647e+01 -1.950000e+01 4.000000e+00
      vertex 2.231647e+01 -1.950000e+01 4.000000e+00
      vertex 2.352767e+01 -2.141590e+01 4.000000e+00
    endloop
  endfacet
  facet normal 0.000000e+00 0.000000e+00 1.000000e+00
    outer loop
      vertex 2.231647e+01 -1.950000e+01 4.000000e+00
      vertex 1.731647e+01 -1.950000e+01 4.000000e+00
      vertex 2.352767e+01 -2.141590e+01 4.000000e+00
    endloop
  endfacet
  facet normal 0.000000e+00 0.000000e+00 1.000000e+00
    outer loop
      vertex 1.240087e+01 2.370000e+01 4.000000e+00
      vertex -1.201794e+01 1.456740e+01 4.000000e+00
      vertex -1.311264e+01 1.292910e+01 4.000000e+00
    endloop
  endfacet
  facet normal 0.000000e+00 0.000000e+00 1.000000e+00
    outer loop
      vertex 2.352767e+01 2.141590e+01 4.000000e+00
      vertex 1.731647e+01 1.950000e+01 4.000000e+00
      vertex 2.231647e+01 1.950000e+01 4.000000e+00
    endloop
  endfacet
  facet normal 0.000000e+00 0.000000e+00 1.000000e+00
    outer loop
      vertex 2.381647e+01 1.950000e+01 4.000000e+00
      vertex 2.231647e+01 1.950000e+01 4.000000e+00
      vertex 2.381647e+01 1.750000e+01 4.000000e+00
    endloop
  endfacet
  facet normal 0.000000e+00 0.000000e+00 1.000000e+00
    outer loop
      vertex 2.352767e+01 2.141590e+01 4.000000e+00
      vertex 2.231647e+01 1.950000e+01 4.000000e+00
      vertex 2.381647e+01 1.950000e+01 4.000000e+00
    endloop
  endfacet
  facet normal 0.000000e+00 0.000000e+00 1.000000e+00
    outer loop
      vertex 2.268707e+01 2.316160e+01 4.000000e+00
      vertex 1.731647e+01 1.950000e+01 4.000000e+00
      vertex 2.352767e+01 2.141590e+01 4.000000e+00
    endloop
  endfacet
  facet normal 0.000000e+00 0.000000e+00 1.000000e+00
    outer loop
      vertex 2.136917e+01 2.458190e+01 4.000000e+00
      vertex 1.731647e+01 1.950000e+01 4.000000e+00
      vertex 2.268707e+01 2.316160e+01 4.000000e+00
    endloop
  endfacet
  facet normal 0.000000e+00 0.000000e+00 1.000000e+00
    outer loop
      vertex 1.088907e+01 -9.300000e+00 4.000000e+00
      vertex -1.668353e+01 -9.300000e+00 4.000000e+00
      vertex -1.668353e+01 -9.350390e+00 4.000000e+00
    endloop
  endfacet
  facet normal 0.000000e+00 0.000000e+00 1.000000e+00
    outer loop
      vertex -2.173353e+01 -1.650000e+01 4.000000e+00
      vertex -2.134912e+01 -1.456740e+01 4.000000e+00
      vertex -2.381647e+01 -1.551960e+01 4.000000e+00
    endloop
  endfacet
  facet normal 0.000000e+00 0.000000e+00 1.000000e+00
    outer loop
      vertex -1.668353e+01 9.300000e+00 4.000000e+00
      vertex 1.088907e+01 9.300000e+00 4.000000e+00
      vertex 1.731647e+01 1.950000e+01 4.000000e+00
    endloop
  endfacet
  facet normal 0.000000e+00 0.000000e+00 1.000000e+00
    outer loop
      vertex 1.255167e+01 2.392110e+01 4.000000e+00
      vertex 1.240087e+01 2.370000e+01 4.000000e+00
      vertex 1.406647e+01 2.512920e+01 4.000000e+00
    endloop
  endfacet
  facet normal 0.000000e+00 0.000000e+00 1.000000e+00
    outer loop
      vertex -2.381647e+01 1.551960e+01 4.000000e+00
      vertex -2.328745e+01 1.363150e+01 4.000000e+00
      vertex -2.328745e+01 1.936850e+01 4.000000e+00
    endloop
  endfacet
  facet normal 0.000000e+00 0.000000e+00 1.000000e+00
    outer loop
      vertex -1.717488e+01 -9.316780e+00 4.000000e+00
      vertex -1.909466e+01 -9.715720e+00 4.000000e+00
      vertex -2.381647e+01 -1.551960e+01 4.000000e+00
    endloop
  endfacet
  facet normal 0.000000e+00 0.000000e+00 1.000000e+00
    outer loop
      vertex -1.668353e+01 1.145000e+01 4.000000e+00
      vertex -1.861608e+01 1.183440e+01 4.000000e+00
      vertex -1.909466e+01 9.715720e+00 4.000000e+00
    endloop
  endfacet
  facet normal 0.000000e+00 0.000000e+00 1.000000e+00
    outer loop
      vertex -2.328745e+01 1.363150e+01 4.000000e+00
      vertex -2.226865e+01 1.195620e+01 4.000000e+00
      vertex -2.226865e+01 2.104380e+01 4.000000e+00
    endloop
  endfacet
  facet normal 0.000000e+00 0.000000e+00 1.000000e+00
    outer loop
      vertex -2.381647e+01 1.748040e+01 4.000000e+00
      vertex -2.381647e+01 1.551960e+01 4.000000e+00
      vertex -2.328745e+01 1.936850e+01 4.000000e+00
    endloop
  endfacet
  facet normal 0.000000e+00 0.000000e+00 1.000000e+00
    outer loop
      vertex -2.328745e+01 1.936850e+01 4.000000e+00
      vertex -2.328745e+01 1.363150e+01 4.000000e+00
      vertex -2.226865e+01 2.104380e+01 4.000000e+00
    endloop
  endfacet
  facet normal 0.000000e+00 0.000000e+00 1.000000e+00
    outer loop
      vertex -2.134912e+01 1.456740e+01 4.000000e+00
      vertex -2.173353e+01 1.650000e+01 4.000000e+00
      vertex -2.226865e+01 1.195620e+01 4.000000e+00
    endloop
  endfacet
  facet normal 0.000000e+00 0.000000e+00 1.000000e+00
    outer loop
      vertex 1.240087e+01 2.370000e+01 4.000000e+00
      vertex 1.780217e+01 2.598180e+01 4.000000e+00
      vertex 1.587007e+01 2.583700e+01 4.000000e+00
    endloop
  endfacet
  facet normal 0.000000e+00 0.000000e+00 1.000000e+00
    outer loop
      vertex -2.025442e+01 -1.292910e+01 4.000000e+00
      vertex -1.668353e+01 -9.350390e+00 4.000000e+00
      vertex -2.381647e+01 -1.551960e+01 4.000000e+00
    endloop
  endfacet
  facet normal 0.000000e+00 0.000000e+00 1.000000e+00
    outer loop
      vertex -1.668353e+01 9.300000e+00 4.000000e+00
      vertex 1.780217e+01 2.598180e+01 4.000000e+00
      vertex 1.240087e+01 2.370000e+01 4.000000e+00
    endloop
  endfacet
  facet normal 0.000000e+00 0.000000e+00 1.000000e+00
    outer loop
      vertex -1.668353e+01 9.300000e+00 4.000000e+00
      vertex 1.969117e+01 2.555070e+01 4.000000e+00
      vertex 1.780217e+01 2.598180e+01 4.000000e+00
    endloop
  endfacet
  facet normal 0.000000e+00 0.000000e+00 1.000000e+00
    outer loop
      vertex -1.668353e+01 9.300000e+00 4.000000e+00
      vertex 2.136917e+01 2.458190e+01 4.000000e+00
      vertex 1.969117e+01 2.555070e+01 4.000000e+00
    endloop
  endfacet
  facet normal 0.000000e+00 0.000000e+00 1.000000e+00
    outer loop
      vertex -2.025442e+01 -2.007090e+01 4.000000e+00
      vertex -2.134912e+01 -1.843260e+01 4.000000e+00
      vertex -2.381647e+01 -1.551960e+01 4.000000e+00
    endloop
  endfacet
  facet normal 0.000000e+00 0.000000e+00 1.000000e+00
    outer loop
      vertex -2.226865e+01 -1.195620e+01 4.000000e+00
      vertex -2.328745e+01 -1.363150e+01 4.000000e+00
      vertex -2.381647e+01 -1.551960e+01 4.000000e+00
    endloop
  endfacet
  facet normal 0.000000e+00 0.000000e+00 1.000000e+00
    outer loop
      vertex 2.231647e+01 1.750000e+01 4.000000e+00
      vertex 2.381647e+01 1.750000e+01 4.000000e+00
      vertex 2.231647e+01 1.950000e+01 4.000000e+00
    endloop
  endfacet
  facet normal 0.000000e+00 0.000000e+00 1.000000e+00
    outer loop
      vertex -1.668353e+01 -1.145000e+01 4.000000e+00
      vertex -1.668353e+01 -9.350390e+00 4.000000e+00
      vertex -1.861608e+01 -1.183440e+01 4.000000e+00
    endloop
  endfacet
  facet normal 0.000000e+00 0.000000e+00 1.000000e+00
    outer loop
      vertex 1.088907e+01 -9.300000e+00 4.000000e+00
      vertex -1.668353e+01 -9.350390e+00 4.000000e+00
      vertex -1.668353e+01 -1.145000e+01 4.000000e+00
    endloop
  endfacet
  facet normal 0.000000e+00 0.000000e+00 1.000000e+00
    outer loop
      vertex -1.861608e+01 -1.183440e+01 4.000000e+00
      vertex -1.668353e+01 -9.350390e+00 4.000000e+00
      vertex -2.025442e+01 -1.292910e+01 4.000000e+00
    endloop
  endfacet
  facet normal 0.000000e+00 0.000000e+00 1.000000e+00
    outer loop
      vertex -1.668353e+01 9.300000e+00 4.000000e+00
      vertex 1.731647e+01 1.950000e+01 4.000000e+00
      vertex 2.136917e+01 2.458190e+01 4.000000e+00
    endloop
  endfacet
  facet normal 0.000000e+00 0.000000e+00 1.000000e+00
    outer loop
      vertex -2.083563e+01 -1.061780e+01 4.000000e+00
      vertex -2.381647e+01 -1.551960e+01 4.000000e+00
      vertex -1.909466e+01 -9.715720e+00 4.000000e+00
    endloop
  endfacet
  facet normal 0.000000e+00 0.000000e+00 1.000000e+00
    outer loop
      vertex -2.226865e+01 -1.195620e+01 4.000000e+00
      vertex -2.381647e+01 -1.551960e+01 4.000000e+00
      vertex -2.083563e+01 -1.061780e+01 4.000000e+00
    endloop
  endfacet
  facet normal 0.000000e+00 0.000000e+00 1.000000e+00
    outer loop
      vertex -2.134912e+01 -1.843260e+01 4.000000e+00
      vertex -2.173353e+01 -1.650000e+01 4.000000e+00
      vertex -2.381647e+01 -1.551960e+01 4.000000e+00
    endloop
  endfacet
  facet normal 0.000000e+00 0.000000e+00 1.000000e+00
    outer loop
      vertex -1.163353e+01 -1.650000e+01 4.000000e+00
      vertex 2.352767e+01 -2.141590e+01 4.000000e+00
      vertex 1.731647e+01 -1.950000e+01 4.000000e+00
    endloop
  endfacet
  facet normal 0.000000e+00 0.000000e+00 1.000000e+00
    outer loop
      vertex -1.861608e+01 -2.116560e+01 4.000000e+00
      vertex -1.717488e+01 -2.368320e+01 4.000000e+00
      vertex -1.668353e+01 -2.364960e+01 4.000000e+00
    endloop
  endfacet
  facet normal 0.000000e+00 0.000000e+00 1.000000e+00
    outer loop
      vertex -1.163353e+01 -1.650000e+01 4.000000e+00
      vertex 1.240087e+01 -2.370000e+01 4.000000e+00
      vertex 2.136917e+01 -2.458190e+01 4.000000e+00
    endloop
  endfacet
  facet normal 0.000000e+00 0.000000e+00 1.000000e+00
    outer loop
      vertex -1.311264e+01 -1.292910e+01 4.000000e+00
      vertex -1.201794e+01 -1.456740e+01 4.000000e+00
      vertex 1.088907e+01 -9.300000e+00 4.000000e+00
    endloop
  endfacet
  facet normal 0.000000e+00 0.000000e+00 1.000000e+00
    outer loop
      vertex -1.163353e+01 -1.650000e+01 4.000000e+00
      vertex 2.136917e+01 -2.458190e+01 4.000000e+00
      vertex 2.268707e+01 -2.316160e+01 4.000000e+00
    endloop
  endfacet
  facet normal 0.000000e+00 0.000000e+00 1.000000e+00
    outer loop
      vertex -1.163353e+01 -1.650000e+01 4.000000e+00
      vertex 2.268707e+01 -2.316160e+01 4.000000e+00
      vertex 2.352767e+01 -2.141590e+01 4.000000e+00
    endloop
  endfacet
  facet normal 0.000000e+00 0.000000e+00 1.000000e+00
    outer loop
      vertex -1.201794e+01 -1.843260e+01 4.000000e+00
      vertex -1.311264e+01 -2.007090e+01 4.000000e+00
      vertex 1.240087e+01 -2.370000e+01 4.000000e+00
    endloop
  endfacet
  facet normal 0.000000e+00 0.000000e+00 1.000000e+00
    outer loop
      vertex -1.861608e+01 -2.116560e+01 4.000000e+00
      vertex -2.025442e+01 -2.007090e+01 4.000000e+00
      vertex -1.717488e+01 -2.368320e+01 4.000000e+00
    endloop
  endfacet
  facet normal 0.000000e+00 0.000000e+00 1.000000e+00
    outer loop
      vertex -1.668353e+01 -1.145000e+01 4.000000e+00
      vertex -1.475098e+01 -1.183440e+01 4.000000e+00
      vertex 1.088907e+01 -9.300000e+00 4.000000e+00
    endloop
  endfacet
  facet normal 0.000000e+00 0.000000e+00 1.000000e+00
    outer loop
      vertex -1.475098e+01 -1.183440e+01 4.000000e+00
      vertex -1.311264e+01 -1.292910e+01 4.000000e+00
      vertex 1.088907e+01 -9.300000e+00 4.000000e+00
    endloop
  endfacet
  facet normal 0.000000e+00 0.000000e+00 1.000000e+00
    outer loop
      vertex -2.134912e+01 -1.456740e+01 4.000000e+00
      vertex -2.025442e+01 -1.292910e+01 4.000000e+00
      vertex -2.381647e+01 -1.551960e+01 4.000000e+00
    endloop
  endfacet
  facet normal 0.000000e+00 0.000000e+00 1.000000e+00
    outer loop
      vertex 1.240087e+01 2.370000e+01 4.000000e+00
      vertex -1.909466e+01 9.715720e+00 4.000000e+00
      vertex -1.717488e+01 9.316780e+00 4.000000e+00
    endloop
  endfacet
  facet normal 0.000000e+00 0.000000e+00 1.000000e+00
    outer loop
      vertex -1.668353e+01 -2.155000e+01 4.000000e+00
      vertex -1.861608e+01 -2.116560e+01 4.000000e+00
      vertex -1.668353e+01 -2.364960e+01 4.000000e+00
    endloop
  endfacet
  facet normal 0.000000e+00 0.000000e+00 1.000000e+00
    outer loop
      vertex 1.240087e+01 -2.370000e+01 4.000000e+00
      vertex -1.311264e+01 -2.007090e+01 4.000000e+00
      vertex -1.668353e+01 -2.364960e+01 4.000000e+00
    endloop
  endfacet
  facet normal 0.000000e+00 0.000000e+00 1.000000e+00
    outer loop
      vertex -1.311264e+01 -2.007090e+01 4.000000e+00
      vertex -1.475098e+01 -2.116560e+01 4.000000e+00
      vertex -1.668353e+01 -2.364960e+01 4.000000e+00
    endloop
  endfacet
  facet normal 0.000000e+00 0.000000e+00 1.000000e+00
    outer loop
      vertex -1.475098e+01 -2.116560e+01 4.000000e+00
      vertex -1.668353e+01 -2.155000e+01 4.000000e+00
      vertex -1.668353e+01 -2.364960e+01 4.000000e+00
    endloop
  endfacet
  facet normal 0.000000e+00 0.000000e+00 1.000000e+00
    outer loop
      vertex -1.717488e+01 -2.368320e+01 4.000000e+00
      vertex -2.025442e+01 -2.007090e+01 4.000000e+00
      vertex -1.909466e+01 -2.328430e+01 4.000000e+00
    endloop
  endfacet
  facet normal 0.000000e+00 0.000000e+00 1.000000e+00
    outer loop
      vertex -2.173353e+01 1.650000e+01 4.000000e+00
      vertex -2.134912e+01 1.843260e+01 4.000000e+00
      vertex -2.083563e+01 2.238220e+01 4.000000e+00
    endloop
  endfacet
  facet normal 0.000000e+00 0.000000e+00 1.000000e+00
    outer loop
      vertex -1.861608e+01 2.116560e+01 4.000000e+00
      vertex -1.668353e+01 2.364960e+01 4.000000e+00
      vertex -1.717488e+01 2.368320e+01 4.000000e+00
    endloop
  endfacet
  facet normal 0.000000e+00 0.000000e+00 1.000000e+00
    outer loop
      vertex -2.226865e+01 2.104380e+01 4.000000e+00
      vertex -2.173353e+01 1.650000e+01 4.000000e+00
      vertex -2.083563e+01 2.238220e+01 4.000000e+00
    endloop
  endfacet
  facet normal 0.000000e+00 0.000000e+00 1.000000e+00
    outer loop
      vertex -2.226865e+01 2.104380e+01 4.000000e+00
      vertex -2.226865e+01 1.195620e+01 4.000000e+00
      vertex -2.173353e+01 1.650000e+01 4.000000e+00
    endloop
  endfacet
  facet normal 0.000000e+00 0.000000e+00 1.000000e+00
    outer loop
      vertex -2.134912e+01 1.843260e+01 4.000000e+00
      vertex -2.025442e+01 2.007090e+01 4.000000e+00
      vertex -2.083563e+01 2.238220e+01 4.000000e+00
    endloop
  endfacet
  facet normal 0.000000e+00 0.000000e+00 1.000000e+00
    outer loop
      vertex -2.083563e+01 2.238220e+01 4.000000e+00
      vertex -2.025442e+01 2.007090e+01 4.000000e+00
      vertex -1.909466e+01 2.328430e+01 4.000000e+00
    endloop
  endfacet
  facet normal 0.000000e+00 0.000000e+00 1.000000e+00
    outer loop
      vertex -1.909466e+01 2.328430e+01 4.000000e+00
      vertex -1.861608e+01 2.116560e+01 4.000000e+00
      vertex -1.717488e+01 2.368320e+01 4.000000e+00
    endloop
  endfacet
  facet normal 0.000000e+00 0.000000e+00 1.000000e+00
    outer loop
      vertex -1.668353e+01 -9.350390e+00 4.000000e+00
      vertex -1.717488e+01 -9.316780e+00 4.000000e+00
      vertex -2.381647e+01 -1.551960e+01 4.000000e+00
    endloop
  endfacet
  facet normal 0.000000e+00 0.000000e+00 1.000000e+00
    outer loop
      vertex -2.025442e+01 2.007090e+01 4.000000e+00
      vertex -1.861608e+01 2.116560e+01 4.000000e+00
      vertex -1.909466e+01 2.328430e+01 4.000000e+00
    endloop
  endfacet
  facet normal 0.000000e+00 0.000000e+00 1.000000e+00
    outer loop
      vertex -2.226865e+01 1.195620e+01 4.000000e+00
      vertex -2.083563e+01 1.061780e+01 4.000000e+00
      vertex -2.134912e+01 1.456740e+01 4.000000e+00
    endloop
  endfacet
  facet normal 0.000000e+00 0.000000e+00 1.000000e+00
    outer loop
      vertex -1.861608e+01 1.183440e+01 4.000000e+00
      vertex -2.083563e+01 1.061780e+01 4.000000e+00
      vertex -1.909466e+01 9.715720e+00 4.000000e+00
    endloop
  endfacet
  facet normal 0.000000e+00 0.000000e+00 1.000000e+00
    outer loop
      vertex -1.475098e+01 1.183440e+01 4.000000e+00
      vertex -1.668353e+01 1.145000e+01 4.000000e+00
      vertex -1.909466e+01 9.715720e+00 4.000000e+00
    endloop
  endfacet
  facet normal 0.000000e+00 0.000000e+00 1.000000e+00
    outer loop
      vertex -1.861608e+01 1.183440e+01 4.000000e+00
      vertex -2.025442e+01 1.292910e+01 4.000000e+00
      vertex -2.083563e+01 1.061780e+01 4.000000e+00
    endloop
  endfacet
  facet normal 0.000000e+00 0.000000e+00 1.000000e+00
    outer loop
      vertex 1.240087e+01 2.370000e+01 4.000000e+00
      vertex 1.587007e+01 2.583700e+01 4.000000e+00
      vertex 1.406647e+01 2.512920e+01 4.000000e+00
    endloop
  endfacet
  facet normal 0.000000e+00 0.000000e+00 1.000000e+00
    outer loop
      vertex 1.240087e+01 2.370000e+01 4.000000e+00
      vertex -1.311264e+01 1.292910e+01 4.000000e+00
      vertex -1.475098e+01 1.183440e+01 4.000000e+00
    endloop
  endfacet
  facet normal 0.000000e+00 0.000000e+00 1.000000e+00
    outer loop
      vertex 1.240087e+01 2.370000e+01 4.000000e+00
      vertex -1.475098e+01 1.183440e+01 4.000000e+00
      vertex -1.909466e+01 9.715720e+00 4.000000e+00
    endloop
  endfacet
  facet normal 0.000000e+00 0.000000e+00 1.000000e+00
    outer loop
      vertex 2.231647e+01 -1.750000e+01 4.000000e+00
      vertex 2.231647e+01 -1.950000e+01 4.000000e+00
      vertex 2.381647e+01 -1.950000e+01 4.000000e+00
    endloop
  endfacet
  facet normal 0.000000e+00 0.000000e+00 1.000000e+00
    outer loop
      vertex -2.025442e+01 1.292910e+01 4.000000e+00
      vertex -2.134912e+01 1.456740e+01 4.000000e+00
      vertex -2.083563e+01 1.061780e+01 4.000000e+00
    endloop
  endfacet
  facet normal 0.000000e+00 0.000000e+00 1.000000e+00
    outer loop
      vertex -1.163353e+01 -1.650000e+01 4.000000e+00
      vertex -1.201794e+01 -1.843260e+01 4.000000e+00
      vertex 1.240087e+01 -2.370000e+01 4.000000e+00
    endloop
  endfacet
  facet normal 0.000000e+00 0.000000e+00 1.000000e+00
    outer loop
      vertex 1.731647e+01 -1.950000e+01 4.000000e+00
      vertex -1.201794e+01 -1.456740e+01 4.000000e+00
      vertex -1.163353e+01 -1.650000e+01 4.000000e+00
    endloop
  endfacet
  facet normal 0.000000e+00 0.000000e+00 1.000000e+00
    outer loop
      vertex 1.731647e+01 -1.950000e+01 4.000000e+00
      vertex 1.088907e+01 -9.300000e+00 4.000000e+00
      vertex -1.201794e+01 -1.456740e+01 4.000000e+00
    endloop
  endfacet
  facet normal 0.000000e+00 0.000000e+00 1.000000e+00
    outer loop
      vertex 1.731647e+01 -1.950000e+01 4.000000e+00
      vertex 1.088907e+01 9.300000e+00 4.000000e+00
      vertex 1.088907e+01 -9.300000e+00 4.000000e+00
    endloop
  endfacet
  facet normal 0.000000e+00 0.000000e+00 1.000000e+00
    outer loop
      vertex 1.731647e+01 -1.950000e+01 4.000000e+00
      vertex 1.731647e+01 1.950000e+01 4.000000e+00
      vertex 1.088907e+01 9.300000e+00 4.000000e+00
    endloop
  endfacet
  facet normal 0.000000e+00 0.000000e+00 1.000000e+00
    outer loop
      vertex 1.240087e+01 2.370000e+01 4.000000e+00
      vertex -1.163353e+01 1.650000e+01 4.000000e+00
      vertex -1.201794e+01 1.456740e+01 4.000000e+00
    endloop
  endfacet
  facet normal 0.000000e+00 0.000000e+00 1.000000e+00
    outer loop
      vertex 1.240087e+01 2.370000e+01 4.000000e+00
      vertex -1.201794e+01 1.843260e+01 4.000000e+00
      vertex -1.163353e+01 1.650000e+01 4.000000e+00
    endloop
  endfacet
  facet normal 0.000000e+00 0.000000e+00 1.000000e+00
    outer loop
      vertex 1.240087e+01 2.370000e+01 4.000000e+00
      vertex -1.311264e+01 2.007090e+01 4.000000e+00
      vertex -1.201794e+01 1.843260e+01 4.000000e+00
    endloop
  endfacet
  facet normal 0.000000e+00 0.000000e+00 1.000000e+00
    outer loop
      vertex 1.240087e+01 2.370000e+01 4.000000e+00
      vertex -1.475098e+01 2.116560e+01 4.000000e+00
      vertex -1.311264e+01 2.007090e+01 4.000000e+00
    endloop
  endfacet
  facet normal 0.000000e+00 0.000000e+00 1.000000e+00
    outer loop
      vertex 1.240087e+01 2.370000e+01 4.000000e+00
      vertex -1.668353e+01 2.155000e+01 4.000000e+00
      vertex -1.475098e+01 2.116560e+01 4.000000e+00
    endloop
  endfacet
  facet normal 0.000000e+00 0.000000e+00 1.000000e+00
    outer loop
      vertex 1.240087e+01 2.370000e+01 4.000000e+00
      vertex -1.668353e+01 2.364960e+01 4.000000e+00
      vertex -1.668353e+01 2.155000e+01 4.000000e+00
    endloop
  endfacet
  facet normal 0.000000e+00 0.000000e+00 1.000000e+00
    outer loop
      vertex 1.240087e+01 2.370000e+01 4.000000e+00
      vertex -1.668353e+01 2.370000e+01 4.000000e+00
      vertex -1.668353e+01 2.364960e+01 4.000000e+00
    endloop
  endfacet
endsolid Default
